<svg width="64" height="60" viewBox="0 0 64 60" fill="none" xmlns="http://www.w3.org/2000/svg">
<g filter="url(#filter0_d)">
<path fill-rule="evenodd" clip-rule="evenodd" d="M5 27C5 12.0883 17.0883 0 32 0C46.9117 0 59 12.0883 59 27C59 41.9117 46.9117 54 32 54C17.0883 54 5 41.9117 5 27Z" fill="white"/>
<path d="M6 27C6 12.6406 17.6406 1 32 1C46.3594 1 58 12.6406 58 27C58 41.3594 46.3594 53 32 53C17.6406 53 6 41.3594 6 27Z" stroke="black" stroke-width="2"/>
</g>
<path fill-rule="evenodd" clip-rule="evenodd" d="M36.7159 14.1719C36.7572 14.6997 36.8685 16.1247 35.5084 17.6885C34.5232 18.8037 33.3268 19.4563 32.0149 19.3589C31.9043 18.0148 32.422 16.8217 33.3017 15.8575C34.1009 14.9565 35.5034 14.2261 36.7148 14.1579L36.7159 14.1719ZM41.1069 21.6736C39.3733 22.7226 38.5168 24.1469 38.5271 26.034C38.5271 26.0367 38.5269 26.0416 38.5267 26.0486C38.5198 26.2978 38.4387 29.2242 41.7106 30.7595C41.0811 32.6517 38.9244 36.8578 36.4168 36.8938C35.7142 36.8938 35.1522 36.6777 34.5729 36.4549C33.9565 36.2179 33.3205 35.9734 32.4748 35.9734C31.5593 35.9734 30.8702 36.2337 30.2247 36.4776C29.677 36.6845 29.1606 36.8796 28.5637 36.8938C26.0768 36.9709 23.693 32.3432 23.0325 30.4561C22.5372 29.0215 22.2896 27.628 22.2896 26.2808C22.2896 21.7199 25.3492 19.478 28.2283 19.4318C29.0265 19.4318 29.9501 19.7643 30.7388 20.0483C31.3268 20.26 31.8398 20.4447 32.1703 20.4447C32.4376 20.4447 32.8737 20.284 33.4088 20.0867C34.3408 19.7431 35.5731 19.2889 36.7367 19.3803C38.6715 19.5295 40.1369 20.2905 41.1069 21.6736Z" fill="black"/>
<defs>
<filter id="filter0_d" x="0" y="-4" width="64" height="64" filterUnits="userSpaceOnUse" color-interpolation-filters="sRGB">
<feFlood flood-opacity="0" result="BackgroundImageFix"/>
<feColorMatrix in="SourceAlpha" type="matrix" values="0 0 0 0 0 0 0 0 0 0 0 0 0 0 0 0 0 0 127 0"/>
<feOffset dy="1"/>
<feGaussianBlur stdDeviation="2.5"/>
<feColorMatrix type="matrix" values="0 0 0 0 0 0 0 0 0 0 0 0 0 0 0 0 0 0 0.1 0"/>
<feBlend mode="normal" in2="BackgroundImageFix" result="effect1_dropShadow"/>
<feBlend mode="normal" in="SourceGraphic" in2="effect1_dropShadow" result="shape"/>
</filter>
</defs>
</svg>
