<svg width="64" height="60" viewBox="0 0 64 60" fill="none" xmlns="http://www.w3.org/2000/svg">
<g filter="url(#filter0_d)">
<path fill-rule="evenodd" clip-rule="evenodd" d="M5 27C5 12.0883 17.0883 0 32 0C46.9117 0 59 12.0883 59 27C59 41.9117 46.9117 54 32 54C17.0883 54 5 41.9117 5 27Z" fill="white"/>
<path d="M6 27C6 12.6406 17.6406 1 32 1C46.3594 1 58 12.6406 58 27C58 41.3594 46.3594 53 32 53C17.6406 53 6 41.3594 6 27Z" stroke="#345DB5" stroke-width="2"/>
</g>
<path fill-rule="evenodd" clip-rule="evenodd" d="M37.85 15.4687V19.1812H35.6421C33.9125 19.1812 33.589 20.0109 33.589 21.2062V23.864H37.7093L37.1609 28.0266H33.589V38.7H29.2859V28.0266H25.7V23.864H29.2859V20.7984C29.2859 17.2406 31.4656 15.3 34.6437 15.3C36.1625 15.3 37.4703 15.4125 37.85 15.4687Z" fill="#345DB5"/>
<defs>
<filter id="filter0_d" x="0" y="-4" width="64" height="64" filterUnits="userSpaceOnUse" color-interpolation-filters="sRGB">
<feFlood flood-opacity="0" result="BackgroundImageFix"/>
<feColorMatrix in="SourceAlpha" type="matrix" values="0 0 0 0 0 0 0 0 0 0 0 0 0 0 0 0 0 0 127 0"/>
<feOffset dy="1"/>
<feGaussianBlur stdDeviation="2.5"/>
<feColorMatrix type="matrix" values="0 0 0 0 0 0 0 0 0 0 0 0 0 0 0 0 0 0 0.1 0"/>
<feBlend mode="normal" in2="BackgroundImageFix" result="effect1_dropShadow"/>
<feBlend mode="normal" in="SourceGraphic" in2="effect1_dropShadow" result="shape"/>
</filter>
</defs>
</svg>
