<svg width="18" height="18" viewBox="0 0 18 18" fill="none" xmlns="http://www.w3.org/2000/svg">
<g id="i_phonecall">
<path id="Shape" fill-rule="evenodd" clip-rule="evenodd" d="M12.9364 10.5572C13.4073 10.5572 13.8516 10.7622 14.2199 11.1458L16.3048 13.2382C16.6883 13.6179 16.8896 14.0698 16.8896 14.5407C16.8896 15.0078 16.6921 15.4635 16.3162 15.8546C16.1529 16.0255 15.9858 16.1888 15.8225 16.3445C15.8048 16.3617 15.7871 16.3787 15.7695 16.3958C15.5497 16.6083 15.3408 16.8103 15.1579 17.0318C15.156 17.0356 15.1532 17.0385 15.1503 17.0413C15.1475 17.0442 15.1446 17.047 15.1427 17.0508C14.5655 17.6774 13.8288 17.9926 12.9516 17.9926C12.8756 17.9926 12.7921 17.9888 12.7124 17.985C11.4098 17.9015 10.244 17.4116 9.37058 16.9977C7.08451 15.8926 5.08324 14.3243 3.41995 12.3382C2.04906 10.6901 1.13008 9.1521 0.514886 7.49261C0.264253 6.81666 -0.0623296 5.78375 0.0288096 4.67489C0.0895691 3.98755 0.366784 3.39514 0.85286 2.90906L2.144 1.60653L2.15159 1.59894C2.53134 1.23438 2.97944 1.04071 3.44273 1.04071C3.90602 1.04071 4.34653 1.23438 4.71489 1.59894C4.96172 1.82679 5.20096 2.06982 5.42881 2.30527C5.54273 2.42678 5.66425 2.5483 5.78197 2.66602L5.78197 2.66603L6.81868 3.70274C7.61615 4.5002 7.61615 5.53312 6.81868 6.33058C6.76552 6.38375 6.71235 6.43786 6.65919 6.49198C6.60602 6.54609 6.55286 6.6002 6.4997 6.65337C6.47259 6.68084 6.44541 6.70842 6.41815 6.73609C6.16279 6.99522 5.90004 7.26186 5.61868 7.51919C5.85033 8.03185 6.16932 8.53691 6.644 9.13691C7.62375 10.3407 8.64527 11.2711 9.76932 11.985C9.87944 12.0534 10.0086 12.1179 10.1453 12.1863C10.1775 12.203 10.2101 12.2198 10.243 12.2367C10.3072 12.2696 10.3724 12.303 10.4377 12.3382L11.6377 11.142C12.0212 10.7584 12.4693 10.5572 12.9364 10.5572ZM15.2027 15.5235C15.3337 15.3962 15.4578 15.2755 15.5794 15.1445C15.9668 14.742 15.9668 14.3432 15.5756 13.9559L13.4832 11.8635L13.4756 11.8559C13.3579 11.7268 13.1643 11.5787 12.9288 11.5787C12.6896 11.5787 12.4845 11.7344 12.3554 11.8635L11.0567 13.1622C10.9921 13.2268 10.7946 13.4243 10.4794 13.4243C10.3541 13.4243 10.2326 13.3939 10.1035 13.3293C10.0959 13.3255 10.0883 13.3208 10.0807 13.316C10.0731 13.3113 10.0655 13.3065 10.0579 13.3027C9.94781 13.2344 9.81871 13.1698 9.68202 13.1015L9.68197 13.1015C9.53008 13.0255 9.37058 12.9458 9.21489 12.847C7.9959 12.0762 6.89083 11.0698 5.84273 9.77869L5.83894 9.77489C5.26172 9.04198 4.88197 8.42679 4.61235 7.77362L4.60096 7.73944C4.53261 7.52299 4.47185 7.204 4.79843 6.87742C4.80088 6.87251 4.80492 6.86919 4.80951 6.86541C4.81204 6.86334 4.81473 6.86112 4.81742 6.85843C5.1478 6.56223 5.45159 6.25843 5.77058 5.93185C5.84386 5.8611 5.91546 5.78867 5.98761 5.71567C6.02389 5.67897 6.06032 5.64212 6.09716 5.60527C6.4997 5.20274 6.4997 4.83058 6.09716 4.42805L5.06046 3.39134C5.00017 3.32917 4.93989 3.26794 4.88006 3.20718C4.8193 3.14546 4.75902 3.08422 4.6997 3.02299C4.46805 2.78375 4.2478 2.5597 4.01615 2.34324L4.00476 2.33185C3.88324 2.21033 3.68957 2.06603 3.45033 2.06603C3.25666 2.06603 3.05919 2.16096 2.87311 2.33565L1.57818 3.63058C1.26299 3.94577 1.0921 4.31413 1.05413 4.75843C0.997164 5.45337 1.12628 6.19008 1.47944 7.13565C2.05286 8.68501 2.91868 10.1281 4.21362 11.6888C5.78197 13.561 7.66932 15.0382 9.81868 16.0787C10.6048 16.4546 11.6529 16.8951 12.7807 16.9673C12.8377 16.9711 12.8984 16.9711 12.9554 16.9711C13.5478 16.9711 13.9997 16.7774 14.3832 16.3673C14.6187 16.0901 14.8693 15.8432 15.1162 15.6078C15.1454 15.5793 15.1742 15.5512 15.2027 15.5235Z" fill="#575C65"/>
<path id="Shape_2" d="M9.72374 4.27999C10.7187 4.44708 11.6225 4.91797 12.344 5.63948C13.0655 6.361 13.5326 7.2648 13.7035 8.25974C13.7453 8.51037 13.9617 8.68505 14.2086 8.68505C14.2389 8.68505 14.2655 8.68126 14.2959 8.67746C14.5769 8.63189 14.763 8.36607 14.7174 8.08505C14.5123 6.88126 13.9427 5.78379 13.0731 4.91417C12.2035 4.04455 11.106 3.47493 9.90222 3.26986C9.62121 3.22429 9.35918 3.41037 9.30982 3.68759C9.26045 3.9648 9.44273 4.23442 9.72374 4.27999Z" fill="#575C65"/>
<path id="Shape_3" d="M17.9718 7.93693C17.6339 5.95465 16.6997 4.15085 15.2643 2.71541C13.8288 1.27997 12.025 0.34579 10.0427 0.00781575C9.76552 -0.0415513 9.50349 0.148322 9.45413 0.425537C9.40856 0.70655 9.59463 0.968575 9.87564 1.01794C11.6453 1.31794 13.2592 2.15718 14.5427 3.43693C15.8263 4.72047 16.6617 6.3344 16.9617 8.10402C17.0035 8.35465 17.2199 8.52934 17.4668 8.52934C17.4972 8.52934 17.5237 8.52554 17.5541 8.52174C17.8313 8.47997 18.0212 8.21414 17.9718 7.93693Z" fill="#575C65"/>
</g>
</svg>
