<svg width="18" height="18" viewBox="0 0 18 18" fill="none" xmlns="http://www.w3.org/2000/svg">
<path fill-rule="evenodd" clip-rule="evenodd" d="M8.99476 0C11.3998 0 13.6565 0.936152 15.3575 2.63721C17.0586 4.33827 17.9986 6.59493 17.9986 9C17.9986 11.4051 17.0624 13.6617 15.3614 15.3628C13.626 17.0981 11.3199 18 8.99095 18C7.54106 18 6.07975 17.6499 4.74402 16.9307C3.54529 17.7945 2.37319 17.981 1.57784 17.981C1.28102 17.981 1.03746 17.9543 0.866217 17.9277C0.500889 17.8706 0.219282 17.5852 0.1622 17.2199C0.105117 16.8545 0.291587 16.5006 0.622665 16.337C1.31146 15.9983 1.77573 15.3209 2.06495 14.7387C-0.884312 11.1882 -0.655982 5.92516 2.63197 2.63721C4.33302 0.936152 6.58968 0 8.99476 0ZM4.95713 15.8765C8.08524 17.7146 12.062 17.2047 14.6307 14.6359C17.7398 11.5268 17.7398 6.47315 14.6269 3.36406C11.5216 0.254968 6.4641 0.254968 3.35501 3.36406C0.379113 6.33996 0.234504 11.1349 3.02013 14.282C3.09243 14.3658 3.13429 14.4685 3.14571 14.5712C3.17235 14.6778 3.16474 14.792 3.11907 14.9023C2.83366 15.5531 2.34655 16.3903 1.57404 16.9535H1.57784C2.24761 16.9535 3.25987 16.786 4.29116 15.9869C4.30258 15.9755 4.3178 15.9641 4.33302 15.9564C4.49666 15.7928 4.75163 15.7548 4.95713 15.8765Z" fill="#575C65"/>
<path fill-rule="evenodd" clip-rule="evenodd" d="M6.03161 10.2634C6.3805 10.2634 6.66333 9.9806 6.66333 9.63171C6.66333 9.28283 6.3805 9 6.03161 9C5.68273 9 5.3999 9.28283 5.3999 9.63171C5.3999 9.9806 5.68273 10.2634 6.03161 10.2634ZM9.92083 9.63171C9.92083 9.9806 9.63801 10.2634 9.28912 10.2634C8.94023 10.2634 8.65741 9.9806 8.65741 9.63171C8.65741 9.28283 8.94023 9 9.28912 9C9.63801 9 9.92083 9.28283 9.92083 9.63171ZM13.1783 9.63171C13.1783 9.9806 12.8955 10.2634 12.5466 10.2634C12.1977 10.2634 11.9149 9.9806 11.9149 9.63171C11.9149 9.28283 12.1977 9 12.5466 9C12.8955 9 13.1783 9.28283 13.1783 9.63171Z" fill="#575C65"/>
</svg>
