<svg width="18" height="18" viewBox="0 0 18 18" fill="none" xmlns="http://www.w3.org/2000/svg">
<path id="Signals" fill-rule="evenodd" clip-rule="evenodd" d="M1.28864 9.11817C-0.429545 6.36368 -0.429545 3.01894 1.28864 0.26445C1.46045 0.0114865 1.80409 -0.0728347 2.06182 0.0677006C2.31955 0.236343 2.40545 0.573628 2.26227 0.826591C0.744546 3.21569 0.744546 6.13882 2.26227 8.52792C2.43409 8.78089 2.34818 9.11817 2.06182 9.28681C2.06182 9.34303 1.575 9.56788 1.28864 9.11817ZM14.9195 0.854698C14.7477 0.601735 14.8336 0.26445 15.12 0.0958076C15.3777 -0.0728347 15.75 0.0114865 15.8932 0.292557C17.6114 3.04705 17.6114 6.39179 15.8932 9.14628C15.6068 9.59599 15.12 9.34303 15.12 9.34303C14.8336 9.14628 14.7477 8.80899 14.9195 8.55603C16.4373 6.16693 16.4373 3.2438 14.9195 0.854698ZM15.3777 17.1568L9.65045 7.26311C10.71 6.86961 11.4545 5.85775 11.4545 4.70536C11.4545 3.18758 10.1659 1.97898 8.59091 1.97898C7.01591 1.97898 5.72727 3.18758 5.72727 4.70536C5.72727 5.85775 6.47182 6.86961 7.53136 7.26311L1.77545 17.1568C1.54636 17.5222 1.83273 18 2.26227 18H14.8909C15.3491 18 15.6068 17.5222 15.3777 17.1568ZM6.87273 4.70536C6.87273 3.77783 7.64591 3.07516 8.59091 3.07516C9.53591 3.07516 10.3091 3.77783 10.3091 4.70536C10.3091 5.6329 9.53591 6.36368 8.59091 6.36368C7.64591 6.36368 6.87273 5.60479 6.87273 4.70536ZM8.59091 7.74093L3.26455 16.9038H13.8886L8.59091 7.74093ZM12.6573 2.73787C13.23 4.00269 13.23 5.43615 12.6573 6.67286C12.5141 6.95393 12.6573 7.26311 12.9436 7.37553C12.8005 7.31932 13.4305 7.6566 13.6882 7.09446C14.3755 5.57668 14.3755 3.80594 13.6882 2.28816C13.5736 2.00709 13.23 1.89466 12.9436 2.00709C12.6573 2.11952 12.5427 2.4568 12.6573 2.73787ZM3.49364 2.31626C2.80636 3.83405 2.80636 5.60479 3.49364 7.12257C3.57955 7.31932 3.78 7.43175 4.00909 7.48796C4.07707 7.48796 4.12712 7.47036 4.18761 7.44909C4.20357 7.44348 4.22025 7.43761 4.23818 7.43175C4.52455 7.31932 4.63909 6.98204 4.52455 6.70096C3.95182 5.43615 3.95182 4.00269 4.52455 2.76598C4.66773 2.48491 4.52455 2.14762 4.23818 2.03519C3.95182 1.92277 3.60818 2.03519 3.49364 2.31626Z" fill="#565C64"/>
</svg>
