<svg width="59" height="60" viewBox="0 0 59 60" fill="none" xmlns="http://www.w3.org/2000/svg">
<g filter="url(#filter0_d)">
<path fill-rule="evenodd" clip-rule="evenodd" d="M5 27C5 12.0883 17.0883 0 32 0C46.9117 0 59 12.0883 59 27C59 41.9117 46.9117 54 32 54C17.0883 54 5 41.9117 5 27Z" fill="white"/>
<path d="M6 27C6 12.6406 17.6406 1 32 1C46.3594 1 58 12.6406 58 27C58 41.3594 46.3594 53 32 53C17.6406 53 6 41.3594 6 27Z" stroke="#14A833" stroke-width="2"/>
</g>
<path d="M44.0996 33.83C44.0328 33.6287 43.6077 33.3321 42.8245 32.9409C42.6123 32.8176 42.31 32.65 41.9188 32.4375C41.5622 32.2442 41.207 32.0484 40.8532 31.85C40.5515 31.6811 40.2522 31.5078 39.9554 31.3302C39.9108 31.2966 39.7709 31.1989 39.536 31.0363C39.3009 30.8742 39.1026 30.7539 38.9401 30.6755C38.7779 30.5975 38.6184 30.5582 38.4618 30.5582C38.2381 30.5582 37.9587 30.7177 37.6232 31.0363C37.2866 31.3563 36.9779 31.7044 36.7005 32.0769C36.4209 32.4518 36.1244 32.7983 35.8115 33.1171C35.4981 33.436 35.2406 33.5953 35.0395 33.5953C34.9385 33.5953 34.8127 33.5672 34.6618 33.5117C34.511 33.4558 34.3963 33.4079 34.3175 33.3693C34.2395 33.3298 34.1055 33.2518 33.9152 33.1339C33.7245 33.0165 33.6185 32.9521 33.5962 32.9409C32.0637 32.0906 30.7494 31.1174 29.653 30.0215C28.5569 28.925 27.5835 27.6109 26.7334 26.0783C26.7222 26.0559 26.6577 25.9496 26.5404 25.7595C26.4228 25.5693 26.3445 25.4352 26.3053 25.3567C26.2662 25.2785 26.2187 25.1638 26.1628 25.0128C26.107 24.8618 26.079 24.7361 26.079 24.6353C26.079 24.4341 26.2384 24.1766 26.5572 23.8634C26.876 23.5503 27.2229 23.2538 27.5975 22.9744C27.9699 22.6969 28.3179 22.3883 28.6379 22.0517C28.9566 21.7161 29.116 21.4366 29.116 21.2129C29.116 21.0564 29.0769 20.8969 28.9987 20.7347C28.9204 20.5722 28.8001 20.3739 28.6379 20.1389C28.4755 19.904 28.3777 19.7643 28.344 19.7194C28.1665 19.4227 27.9931 19.1235 27.824 18.8219C27.6257 18.4682 27.4299 18.113 27.2366 17.7564C27.0241 17.3651 26.8565 17.063 26.7333 16.8505C26.342 16.0676 26.0456 15.6424 25.8442 15.5755C25.7658 15.5419 25.6483 15.525 25.4918 15.525C25.1896 15.525 24.7954 15.5808 24.3088 15.6928C23.822 15.8047 23.439 15.922 23.1593 16.0452C22.6 16.28 22.0071 16.9623 21.3806 18.0919C20.8101 19.1432 20.5249 20.1837 20.5249 21.2126C20.5249 21.5144 20.5445 21.808 20.5836 22.0935C20.6228 22.3787 20.6927 22.7004 20.7935 23.0584C20.8941 23.4163 20.9753 23.6822 21.0366 23.8553C21.0981 24.0285 21.2127 24.3389 21.3806 24.7865C21.5482 25.234 21.649 25.5079 21.6825 25.6085C22.074 26.7048 22.5383 27.6835 23.0752 28.5449C23.9585 29.9766 25.164 31.4562 26.6909 32.9831C28.2179 34.51 29.6973 35.7153 31.1292 36.599C31.9905 37.1358 32.9696 37.5999 34.0658 37.9917C34.1665 38.025 34.4405 38.1256 34.8878 38.2938C35.3353 38.4615 35.6458 38.5762 35.819 38.6377C35.9923 38.6993 36.2583 38.7805 36.6159 38.8813C36.9743 38.9821 37.2957 39.052 37.5809 39.0915C37.8663 39.1301 38.16 39.15 38.4618 39.15C39.4908 39.15 40.5315 38.8646 41.583 38.2942C42.7125 37.668 43.3947 37.075 43.6296 36.5153C43.7531 36.2359 43.8701 35.8528 43.982 35.3661C44.0942 34.8796 44.1499 34.4855 44.1499 34.1833C44.1502 34.0262 44.1334 33.909 44.0996 33.83Z" fill="#14A833"/>
<defs>
<filter id="filter0_d" x="0" y="-4" width="64" height="64" filterUnits="userSpaceOnUse" color-interpolation-filters="sRGB">
<feFlood flood-opacity="0" result="BackgroundImageFix"/>
<feColorMatrix in="SourceAlpha" type="matrix" values="0 0 0 0 0 0 0 0 0 0 0 0 0 0 0 0 0 0 127 0"/>
<feOffset dy="1"/>
<feGaussianBlur stdDeviation="2.5"/>
<feColorMatrix type="matrix" values="0 0 0 0 0 0 0 0 0 0 0 0 0 0 0 0 0 0 0.1 0"/>
<feBlend mode="normal" in2="BackgroundImageFix" result="effect1_dropShadow"/>
<feBlend mode="normal" in="SourceGraphic" in2="effect1_dropShadow" result="shape"/>
</filter>
</defs>
</svg>
