<svg width="20" height="20" viewBox="0 0 20 20" fill="none" xmlns="http://www.w3.org/2000/svg">
<path fill-rule="evenodd" clip-rule="evenodd" d="M15.6836 9.04947H14.8926V6.67642C14.8926 3.91446 12.6448 1.66666 9.88281 1.66666C7.12085 1.66666 4.87305 3.91446 4.87305 6.67642V9.04947H4.08203C3.20862 9.04947 2.5 9.75809 2.5 10.6315V16.9596C2.5 17.833 3.20862 18.5417 4.08203 18.5417H15.6836C16.557 18.5417 17.2656 17.833 17.2656 16.9596V10.6315C17.2656 9.75809 16.557 9.04947 15.6836 9.04947ZM11.2012 14.5866C11.2012 15.315 10.6112 15.9049 9.88281 15.9049C9.15442 15.9049 8.56445 15.315 8.56445 14.5866V13.0045C8.56445 12.2762 9.15442 11.6862 9.88281 11.6862C10.6112 11.6862 11.2012 12.2762 11.2012 13.0045V14.5866ZM7.50977 9.04947H12.2559V6.67642C12.2559 5.36795 11.1913 4.30338 9.88281 4.30338C8.57434 4.30338 7.50977 5.36795 7.50977 6.67642V9.04947Z" fill="#CDCDCD"/>
</svg>
