<svg width="100" height="16" viewBox="0 0 100 16" fill="none" xmlns="http://www.w3.org/2000/svg">
<path fill-rule="evenodd" clip-rule="evenodd" d="M85.4217 7.46729C85.301 6.94518 85.0818 6.50617 84.7532 6.1255L84.7511 6.12266C84.3013 5.61784 83.7292 5.28233 83.0004 5.09676C82.3264 4.91842 81.3333 4.83093 79.9681 4.83093C78.4792 4.83093 77.5213 5.00566 76.8404 5.26529C76.5367 5.37575 76.2086 5.61345 75.9647 5.84263V5.34091H74.0385V15.459H75.9734V9.03233C75.9734 7.35451 77.6827 6.692 79.385 6.692H80.2391C81.9422 6.692 83.6674 7.35451 83.6674 9.03233V15.459H85.5769V9.94028C85.5769 8.68753 85.5288 7.92462 85.4217 7.46729ZM76.8371 5.26633C76.8381 5.26607 76.8391 5.26555 76.8404 5.26529L76.8409 5.26503L76.8371 5.26633Z" fill="white"/>
<mask id="mask0" mask-type="alpha" maskUnits="userSpaceOnUse" x="52" y="0" width="10" height="16">
<path fill-rule="evenodd" clip-rule="evenodd" d="M52.8854 0.0437012H61.7741V15.6898H52.8854V0.0437012Z" fill="white"/>
</mask>
<g mask="url(#mask0)">
<path fill-rule="evenodd" clip-rule="evenodd" d="M52.8854 4.91322H54.8384C54.8611 3.86444 54.896 2.86506 55.0098 2.40953C55.1007 1.95558 55.305 1.56879 55.5999 1.27347C55.9405 0.865247 56.4168 0.568882 57.0296 0.364249C57.62 0.20509 58.623 0.0684069 59.9396 0.0461925L61.7741 0.0435791L60.0088 1.76898C59.9459 1.76898 59.3224 1.77159 59.2621 1.77159C56.6648 1.77159 56.8464 3.43714 56.8464 4.91322H61.414L59.5672 6.79673H56.8013L56.8114 15.6898H54.8384V6.79673H52.8854V4.91322Z" fill="white"/>
</g>
<path fill-rule="evenodd" clip-rule="evenodd" d="M50.9615 3.38159H52.8846V1.44922H50.9615V3.38159Z" fill="white"/>
<path fill-rule="evenodd" clip-rule="evenodd" d="M33.5523 8.0122C33.3678 7.56602 33.0483 7.27691 32.5543 7.10639C32.0419 6.94273 31.1413 6.84759 29.5672 6.82492C27.993 6.84759 27.0922 6.94273 26.5797 7.10639C26.086 7.27691 25.7658 7.56602 25.5818 8.0122C25.4354 8.35402 25.2692 9.1863 25.2692 10.3865C25.2692 11.5867 25.4354 12.419 25.5818 12.7608C25.7658 13.207 26.086 13.4958 26.5797 13.6666C27.0922 13.8308 27.993 13.9254 29.5672 13.9481C31.1413 13.9254 32.0419 13.8308 32.5543 13.6666C33.0483 13.4958 33.3678 13.207 33.5523 12.7608C33.6992 12.419 33.8649 11.5867 33.8649 10.3865C33.8649 9.1863 33.6992 8.35402 33.5523 8.0122ZM36.0577 10.3865C36.0577 11.6144 35.9134 12.6248 35.6281 13.3801C35.3395 14.1671 34.3535 15.942 29.5672 15.942C24.7808 15.942 23.7948 14.1671 23.5065 13.3801C23.2214 12.6248 23.0769 11.6144 23.0769 10.3865C23.0769 9.1581 23.2214 8.14845 23.5065 7.39287C23.7948 6.60565 24.7808 4.83093 29.5672 4.83093C34.3535 4.83093 35.3395 6.60565 35.6281 7.39287C35.9134 8.14845 36.0577 9.1581 36.0577 10.3865Z" fill="white"/>
<path fill-rule="evenodd" clip-rule="evenodd" d="M70.5715 8.0122C70.387 7.56602 70.0676 7.27691 69.5739 7.10639C69.0612 6.94273 68.1607 6.84759 66.5865 6.82492C65.0121 6.84759 64.1116 6.94273 63.5991 7.10639C63.1055 7.27691 62.7852 7.56602 62.6018 8.0122C62.4546 8.35402 62.2889 9.1863 62.2889 10.3865C62.2889 11.5867 62.4546 12.419 62.6018 12.7608C62.7852 13.207 63.1055 13.4958 63.5991 13.6666C64.1116 13.8308 65.0121 13.9254 66.5865 13.9481C68.1607 13.9254 69.0612 13.8308 69.5739 13.6666C70.0676 13.4958 70.387 13.207 70.5715 12.7608C70.7182 12.419 70.8841 11.5867 70.8841 10.3865C70.8841 9.1863 70.7182 8.35402 70.5715 8.0122ZM73.0769 10.3865C73.0769 11.6144 72.9326 12.6248 72.6473 13.3801C72.3588 14.1671 71.3728 15.942 66.5865 15.942C61.8003 15.942 60.814 14.1671 60.5257 13.3801C60.2407 12.6248 60.0961 11.6144 60.0961 10.3865C60.0961 9.1581 60.2407 8.14845 60.5257 7.39287C60.814 6.60565 61.8003 4.83093 66.5865 4.83093C71.3728 4.83093 72.3588 6.60565 72.6473 7.39287C72.9326 8.14845 73.0769 9.1581 73.0769 10.3865Z" fill="white"/>
<path fill-rule="evenodd" clip-rule="evenodd" d="M34.6192 14.9784C34.6179 14.9797 34.6166 14.9803 34.6154 14.9816L34.6224 14.9758C34.6217 14.9771 34.6205 14.9778 34.6192 14.9784Z" fill="#959799"/>
<path fill-rule="evenodd" clip-rule="evenodd" d="M20.9978 7.46716C20.876 6.94528 20.6554 6.50626 20.3248 6.1253L20.322 6.1222C19.87 5.61762 19.2932 5.28235 18.5592 5.09678C17.8806 4.91817 16.9014 4.83093 15.5263 4.83093C14.0263 4.83093 13.0083 4.95172 12.3217 5.21111L12.3211 5.21163C12.3201 5.21189 12.3193 5.21215 12.3186 5.2124C11.7515 5.41811 11.2803 5.79984 10.9327 6.32275C10.5278 5.7748 10.0237 5.39978 9.39748 5.18814C8.68591 4.94759 7.36379 4.83093 5.69438 4.83093C4.44141 4.83093 3.581 4.92024 3.06351 5.10374L3.05863 5.10555C2.6684 5.25344 2.29539 5.50328 1.92829 5.8592V5.34094H0V15.459H1.92212V9.03228C1.92212 7.35463 3.61956 6.69209 5.33473 6.69209H6.19464C7.91007 6.69209 9.62473 7.35463 9.62473 9.03228V15.459H11.5458V9.03228C11.5458 7.35463 13.2237 6.69209 14.9386 6.69209H15.7991C17.514 6.69209 19.2335 7.35463 19.2335 9.03228V15.459H21.1538V9.94053C21.1538 8.68745 21.1058 7.92451 20.9978 7.46716ZM12.3204 5.21163H12.3211V5.21137C12.3211 5.21137 12.3206 5.21163 12.3204 5.21163ZM12.3222 5.21086C12.3217 5.21111 12.3214 5.21137 12.3211 5.21137C12.3214 5.21137 12.3214 5.21111 12.3214 5.21111L12.3222 5.21086Z" fill="white"/>
<path fill-rule="evenodd" clip-rule="evenodd" d="M90.5226 7.10639C91.0348 6.94247 91.9358 6.84759 93.5103 6.82466C95.0839 6.84759 95.9845 6.94247 96.4972 7.10639C96.9909 7.27691 97.3109 7.56602 97.4951 8.0122C97.5912 8.23569 97.695 8.67133 97.7561 9.28144H89.2639C89.3243 8.67133 89.4288 8.23569 89.5246 8.0122C89.7089 7.56602 90.0289 7.27691 90.5226 7.10639ZM98.9647 11.1415H99.9786C99.9918 10.8993 100 10.649 100 10.3865C100 9.1581 99.8565 8.14819 99.5704 7.3926C99.2821 6.60565 98.2961 4.83093 93.5103 4.83093C88.7236 4.83093 87.7376 6.60565 87.4491 7.3926C87.1638 8.14819 87.0192 9.1581 87.0192 10.3865C87.0192 11.6144 87.1638 12.6245 87.4491 13.3801C87.7376 14.1671 88.7236 15.942 93.5103 15.942C98.2961 15.942 99.2821 14.1671 99.5704 13.3801C99.5961 13.3119 99.6199 13.2391 99.6432 13.1666H97.2532C97.0681 13.3909 96.8209 13.5548 96.4972 13.6666C95.9845 13.8305 95.0839 13.9254 93.5103 13.9481C91.9358 13.9254 91.0348 13.8305 90.5226 13.6666C90.0289 13.4958 89.7089 13.207 89.5246 12.7608C89.4119 12.4975 89.2877 11.9422 89.2366 11.1529H98.9647V11.1415Z" fill="white"/>
<path fill-rule="evenodd" clip-rule="evenodd" d="M50.9615 15.459H52.8846V4.83093H50.9615V15.459Z" fill="white"/>
<path fill-rule="evenodd" clip-rule="evenodd" d="M47.0072 12.3723C46.8225 12.8053 46.5019 13.0856 46.0068 13.2508C45.4927 13.4104 44.5897 13.5023 43.0112 13.5243C41.4327 13.5023 40.8108 13.4104 40.2972 13.2508C39.802 13.0856 39.4808 12.8053 39.2966 12.3723C39.1806 12.1101 39.0524 11.5497 39.0038 10.7517V9.38381C39.0524 8.58605 39.1806 8.02565 39.2966 7.76349C39.4808 7.33046 39.802 7.05014 40.2972 6.88439C40.8108 6.72556 41.4327 6.63348 43.0112 6.61123C44.5897 6.63348 45.4927 6.72556 46.0068 6.88439C46.5019 7.05014 46.8225 7.33046 47.0072 7.76349C47.1543 8.09522 47.3207 8.90321 47.3207 10.0677C47.3207 11.2325 47.1543 12.0403 47.0072 12.3723ZM49.0884 7.16242C48.7994 6.39868 47.8107 4.67605 43.0112 4.67605C41.1739 4.67605 39.898 4.92926 39.0038 5.28376V0H37.0192V15.3364H39.0038V14.8517C39.898 15.206 41.1739 15.4589 43.0112 15.4589C47.8107 15.4589 48.7994 13.7371 49.0884 12.9736C49.3748 12.2398 49.5192 11.2597 49.5192 10.0677C49.5192 8.87559 49.3748 7.89572 49.0884 7.16242Z" fill="white"/>
</svg>
