<svg width="113" height="18" viewBox="0 0 113 18" fill="none" xmlns="http://www.w3.org/2000/svg">
<path fill-rule="evenodd" clip-rule="evenodd" d="M96.8252 7.97669C96.6892 7.38718 96.4422 6.8915 96.0719 6.46168L96.0696 6.45847C95.5628 5.88849 94.9182 5.50966 94.0971 5.30015C93.3378 5.09879 92.2189 5 90.6808 5C89.0032 5 87.924 5.19728 87.1569 5.49043C86.8147 5.61515 86.4451 5.88354 86.1702 6.1423V5.57581H84V17H86.1801V9.74376C86.1801 7.84934 88.1058 7.10131 90.0238 7.10131H90.9861C92.9049 7.10131 94.8487 7.84934 94.8487 9.74376V17H97V10.7689C97 9.35444 96.9458 8.49305 96.8252 7.97669ZM87.1531 5.4916C87.1542 5.49131 87.1554 5.49072 87.1569 5.49043L87.1574 5.49014L87.1531 5.4916Z" fill="white"/>
<path fill-rule="evenodd" clip-rule="evenodd" d="M60.0008 5.54745H62.1388C62.1637 4.36329 62.2019 3.2349 62.3265 2.72057C62.4259 2.20801 62.6497 1.77129 62.9725 1.43785C63.3454 0.976928 63.8668 0.642305 64.5377 0.411256C65.1839 0.231551 66.2819 0.0772233 67.7234 0.0521413L69.7317 0.0491905L67.7991 1.99732C67.7302 1.99732 67.0477 2.00027 66.9817 2.00027C64.1382 2.00027 64.3371 3.88083 64.3371 5.54745H69.3374L67.3157 7.67411H64.2877L64.2988 17.7152H62.1388V7.67411H60.0008V5.54745Z" fill="white"/>
<path fill-rule="evenodd" clip-rule="evenodd" d="M38.1049 8.72208C37.8917 8.20005 37.5225 7.86179 36.9517 7.66229C36.3595 7.4708 35.3189 7.35949 33.4998 7.33297C31.6808 7.35949 30.6399 7.4708 30.0477 7.66229C29.4772 7.86179 29.1071 8.20005 28.8945 8.72208C28.7254 9.12201 28.5333 10.0958 28.5333 11.5C28.5333 12.9042 28.7254 13.878 28.8945 14.2779C29.1071 14.8 29.4772 15.1379 30.0477 15.3377C30.6399 15.5298 31.6808 15.6405 33.4998 15.667C35.3189 15.6405 36.3595 15.5298 36.9517 15.3377C37.5225 15.1379 37.8917 14.8 38.1049 14.2779C38.2746 13.878 38.4661 12.9042 38.4661 11.5C38.4661 10.0958 38.2746 9.12201 38.1049 8.72208ZM41 11.5C41 12.9366 40.8333 14.1188 40.5036 15.0025C40.1701 15.9233 39.0308 18 33.4998 18C27.9689 18 26.8295 15.9233 26.4964 15.0025C26.167 14.1188 26 12.9366 26 11.5C26 10.0628 26.167 8.8815 26.4964 7.99746C26.8295 7.07642 27.9689 5 33.4998 5C39.0308 5 40.1701 7.07642 40.5036 7.99746C40.8333 8.8815 41 10.0628 41 11.5Z" fill="white"/>
<path fill-rule="evenodd" clip-rule="evenodd" d="M80.1049 8.72208C79.8917 8.20005 79.5225 7.86179 78.9521 7.66229C78.3596 7.4708 77.319 7.35949 75.5 7.33297C73.6807 7.35949 72.6401 7.4708 72.0479 7.66229C71.4775 7.86179 71.1074 8.20005 70.8954 8.72208C70.7253 9.12201 70.5338 10.0958 70.5338 11.5C70.5338 12.9042 70.7253 13.878 70.8954 14.2779C71.1074 14.8 71.4775 15.1379 72.0479 15.3377C72.6401 15.5298 73.6807 15.6405 75.5 15.667C77.319 15.6405 78.3596 15.5298 78.9521 15.3377C79.5225 15.1379 79.8917 14.8 80.1049 14.2779C80.2744 13.878 80.4662 12.9042 80.4662 11.5C80.4662 10.0958 80.2744 9.12201 80.1049 8.72208ZM83 11.5C83 12.9366 82.8333 14.1188 82.5036 15.0025C82.1702 15.9233 81.0308 18 75.5 18C69.9692 18 68.8295 15.9233 68.4964 15.0025C68.167 14.1188 68 12.9366 68 11.5C68 10.0628 68.167 8.8815 68.4964 7.99746C68.8295 7.07642 69.9692 5 75.5 5C81.0308 5 82.1702 7.07642 82.5036 7.99746C82.8333 8.8815 83 10.0628 83 11.5Z" fill="white"/>
<path fill-rule="evenodd" clip-rule="evenodd" d="M39.008 17.0053C39.0053 17.008 39.0027 17.0093 39 17.012L39.0146 17C39.0133 17.0027 39.0106 17.004 39.008 17.0053Z" fill="#959799"/>
<path fill-rule="evenodd" clip-rule="evenodd" d="M23.823 7.97654C23.6847 7.38729 23.4345 6.89159 23.0594 6.46146L23.0562 6.45796C22.5435 5.88824 21.889 5.50969 21.0563 5.30016C20.2863 5.0985 19.1754 5 17.6153 5C15.9135 5 14.7585 5.13638 13.9795 5.42926L13.9789 5.42984C13.9777 5.43013 13.9769 5.43042 13.976 5.43072C13.3326 5.66298 12.798 6.09398 12.4037 6.68439C11.9443 6.06571 11.3724 5.64228 10.6619 5.40332C9.85456 5.13172 8.35456 5 6.46053 5C5.03899 5 4.0628 5.10083 3.4757 5.30803L3.47015 5.31007C3.02742 5.47705 2.60422 5.75914 2.18773 6.16101V5.57584H0V17H2.18073V9.7437C2.18073 7.84948 4.10655 7.10141 6.0525 7.10141H7.0281C8.97433 7.10141 10.9197 7.84948 10.9197 9.7437V17H13.0993V9.7437C13.0993 7.84948 15.0029 7.10141 16.9486 7.10141H17.9248C19.8704 7.10141 21.8213 7.84948 21.8213 9.7437V17H24V10.7692C24 9.35436 23.9455 8.49293 23.823 7.97654ZM13.978 5.42984H13.9789V5.42955C13.9789 5.42955 13.9783 5.42984 13.978 5.42984ZM13.9801 5.42897C13.9795 5.42926 13.9792 5.42955 13.9789 5.42955C13.9792 5.42955 13.9792 5.42926 13.9792 5.42926L13.9801 5.42897Z" fill="white"/>
<path fill-rule="evenodd" clip-rule="evenodd" d="M102.048 7.66229C102.64 7.47049 103.681 7.35949 105.501 7.33266C107.319 7.35949 108.36 7.47049 108.952 7.66229C109.523 7.86179 109.893 8.20005 110.105 8.72208C110.217 8.98356 110.336 9.49326 110.407 10.2071H100.594C100.664 9.49326 100.784 8.98356 100.895 8.72208C101.108 8.20005 101.478 7.86179 102.048 7.66229ZM111.804 12.3834H112.975C112.991 12.1 113 11.8071 113 11.5C113 10.0628 112.834 8.88119 112.504 7.99715C112.17 7.07642 111.031 5 105.501 5C99.9696 5 98.8302 7.07642 98.4967 7.99715C98.167 8.88119 98 10.0628 98 11.5C98 12.9366 98.167 14.1185 98.4967 15.0025C98.8302 15.9233 99.9696 18 105.501 18C111.031 18 112.17 15.9233 112.504 15.0025C112.533 14.9227 112.561 14.8376 112.588 14.7528H109.826C109.612 15.0152 109.326 15.207 108.952 15.3377C108.36 15.5295 107.319 15.6405 105.501 15.667C103.681 15.6405 102.64 15.5295 102.048 15.3377C101.478 15.1379 101.108 14.8 100.895 14.2779C100.765 13.9699 100.621 13.3202 100.562 12.3967H111.804V12.3834Z" fill="white"/>
<path fill-rule="evenodd" clip-rule="evenodd" d="M58 17H60V5H58V17Z" fill="white"/>
<path fill-rule="evenodd" clip-rule="evenodd" d="M53.1866 13.6056C52.9797 14.0818 52.6205 14.3901 52.0661 14.5718C51.4903 14.7473 50.479 14.8483 48.711 14.8725C46.9431 14.8483 46.2466 14.7473 45.6714 14.5718C45.1167 14.3901 44.757 14.0818 44.5506 13.6056C44.4207 13.3173 44.2771 12.7011 44.2227 11.8235V10.3193C44.2771 9.44198 44.4207 8.82571 44.5506 8.53741C44.757 8.06122 45.1167 7.75294 45.6714 7.57068C46.2466 7.39601 46.9431 7.29475 48.711 7.27028C50.479 7.29475 51.4903 7.39601 52.0661 7.57068C52.6205 7.75294 52.9797 8.06122 53.1866 8.53741C53.3513 8.90222 53.5376 9.79075 53.5376 11.0714C53.5376 12.3523 53.3513 13.2405 53.1866 13.6056ZM55.5175 7.87642C55.1938 7.03655 54.0864 5.14219 48.711 5.14219C46.6533 5.14219 45.2243 5.42065 44.2227 5.81049V0H42V16.8653H44.2227V16.3323C45.2243 16.7218 46.6533 17 48.711 17C54.0864 17 55.1938 15.1065 55.5175 14.2669C55.8383 13.4599 56 12.3821 56 11.0714C56 9.76037 55.8383 8.68283 55.5175 7.87642Z" fill="white"/>
</svg>
