<svg width="17" height="16" viewBox="0 0 17 16" fill="none" xmlns="http://www.w3.org/2000/svg">
<path fill-rule="evenodd" clip-rule="evenodd" d="M7 9.33331L1 15.3333L7 9.33331Z" fill="white" fill-opacity="0.01"/>
<path d="M7 9.33331L1 15.3333" stroke="white" stroke-linecap="round" stroke-linejoin="round"/>
<path fill-rule="evenodd" clip-rule="evenodd" d="M14.329 5.85232C14.414 5.93739 14.5294 5.98518 14.6496 5.98518C14.7699 5.98518 14.8853 5.93739 14.9703 5.85232L15.4789 5.34375C15.7292 5.09331 15.7292 4.68735 15.4789 4.43691L11.8964 0.85443C11.646 0.604065 11.24 0.604065 10.9896 0.85443L10.481 1.36301C10.3959 1.44804 10.3481 1.56339 10.3481 1.68367C10.3481 1.80395 10.3959 1.9193 10.481 2.00434C10.566 2.08937 10.6138 2.20472 10.6138 2.325C10.6138 2.44528 10.566 2.56063 10.481 2.64567L7.7829 5.34375C7.66265 5.46403 7.49955 5.53162 7.32948 5.53166H5.29517C5.1251 5.5317 4.962 5.59929 4.84175 5.71957L4.52109 6.04023C4.27072 6.29067 4.27072 6.69664 4.52109 6.94708L9.38623 11.8122C9.63667 12.0626 10.0426 12.0626 10.2931 11.8122L10.6137 11.4915C10.734 11.3713 10.8016 11.2082 10.8016 11.0381V9.00447C10.8017 8.83439 10.8693 8.67129 10.9896 8.55105L13.6876 5.85297C13.7726 5.76782 13.8879 5.71991 14.0082 5.71979C14.1284 5.71967 14.2438 5.76735 14.329 5.85232Z" fill="white" fill-opacity="0.01" stroke="white" stroke-linecap="round" stroke-linejoin="round"/>
</svg>
