<svg width="100" height="100" viewBox="0 0 100 100" fill="none" xmlns="http://www.w3.org/2000/svg">
<g id="btn_scane qrcode copy">
<path id="Shape" d="M5.85938 5.85938H23.4375V0H0V23.4375H5.85938V5.85938Z" fill="#237BD3"/>
<path id="Shape_2" d="M76.5625 0V5.85938H94.1406V23.4375H100V0H76.5625Z" fill="#237BD3"/>
<path id="Shape_3" d="M94.1406 94.1406H76.5625V100H100V76.5625H94.1406V94.1406Z" fill="#237BD3"/>
<path id="Shape_4" d="M5.85938 76.5625H0V100H23.4375V94.1406H5.85938V76.5625Z" fill="#237BD3"/>
<path id="Shape_5" fill-rule="evenodd" clip-rule="evenodd" d="M11.9141 41.0156V11.7188H41.2109V17.5781H47.0703V23.4375H41.2109V41.0156H11.9141ZM17.7734 35.1562H35.3516V17.5781H17.7734V35.1562Z" fill="black"/>
<path id="Shape_6" fill-rule="evenodd" clip-rule="evenodd" d="M88.0859 58.5938V87.8906H58.7891V76.1719H52.9297V70.3125H58.7891V64.4531H52.9297V58.5938H70.5078V52.7344H76.3672V58.5938H88.0859ZM82.2266 64.4531H64.6484V82.0312H82.2266V64.4531Z" fill="black"/>
<path id="Shape_7" d="M29.4922 52.7344H41.2109V46.875H11.9141V52.7344H23.6328V58.5938H17.7734V64.4531H23.6328V76.1719H17.7734V82.0312H23.6328V87.8906H52.9297V82.0312H47.0703V76.1719H41.2109V82.0312H29.4922V76.1719H35.3516V70.3125H29.4922V52.7344Z" fill="black"/>
<path id="Shape_8" d="M23.6328 23.4375H29.4922V29.2969H23.6328V23.4375Z" fill="black"/>
<path id="Shape_9" d="M70.5078 23.4375H76.3672V29.2969H70.5078V23.4375Z" fill="black"/>
<path id="Shape_10" fill-rule="evenodd" clip-rule="evenodd" d="M88.0859 11.7188V41.0156H76.3672V46.875H70.5078V41.0156H58.7891V11.7188H88.0859ZM64.6484 17.5781V35.1562H82.2266V17.5781H64.6484Z" fill="black"/>
<path id="Shape_11" d="M88.0859 52.7344V46.875C86.6684 46.875 77.7946 46.875 76.3672 46.875V52.7344H88.0859Z" fill="black"/>
<path id="Shape_12" d="M70.5078 70.3125H76.3672V76.1719H70.5078V70.3125Z" fill="black"/>
<path id="Shape_13" d="M47.0703 64.4531H52.9297V70.3125H47.0703V64.4531Z" fill="black"/>
<path id="Shape_14" d="M35.3516 70.3125H41.2109C41.2109 68.895 41.2109 60.0212 41.2109 58.5938H35.3516V70.3125Z" fill="black"/>
<path id="Shape_15" d="M41.2109 52.7344H47.0703V58.5938H41.2109V52.7344Z" fill="black"/>
<path id="Shape_16" d="M17.7734 64.4531H11.9141V76.1719H17.7734C17.7734 74.7543 17.7734 65.8806 17.7734 64.4531Z" fill="black"/>
<path id="Shape_17" d="M11.9141 82.0312H17.7734V87.8906H11.9141V82.0312Z" fill="black"/>
<path id="Shape_18" d="M47.0703 11.7188H52.9297V17.5781H47.0703V11.7188Z" fill="black"/>
<path id="Shape_19" d="M47.0703 35.1562H52.9297C52.9297 33.7387 52.9297 24.865 52.9297 23.4375H47.0703V35.1562Z" fill="black"/>
<path id="Shape_20" d="M52.9297 46.875V41.0156H47.0703V52.7344H70.5078V46.875H52.9297Z" fill="black"/>
</g>
</svg>
