<svg width="20" height="20" viewBox="0 0 20 20" fill="none" xmlns="http://www.w3.org/2000/svg">
<path fill-rule="evenodd" clip-rule="evenodd" d="M15.1241 12.767L19.4571 17.0999C20.1079 17.7508 20.1079 18.8061 19.4571 19.4571C18.8061 20.1079 17.7508 20.1079 17.0998 19.4571L12.7668 15.124C12.7538 15.111 12.743 15.0967 12.7322 15.0824C12.7239 15.0714 12.7156 15.0604 12.7063 15.05C11.413 15.9025 9.86494 16.4002 8.2 16.4002C3.67124 16.4002 0 12.7288 0 8.20008C0 3.67132 3.67132 0 8.20008 0C12.7288 0 16.4002 3.67131 16.4002 8.20016C16.4002 9.86502 15.9025 11.4131 15.05 12.7065C15.0604 12.7157 15.0713 12.724 15.0822 12.7322C15.0966 12.7431 15.111 12.7539 15.1241 12.767ZM2.84263 8.20008C2.84263 11.1589 5.24119 13.5575 8.20008 13.5575C11.1588 13.5575 13.5575 11.1589 13.5575 8.20008C13.5575 5.24127 11.1588 2.84263 8.20008 2.84263C5.24127 2.84263 2.84263 5.24119 2.84263 8.20008Z" fill="white"/>
</svg>
