<svg width="24" height="24" viewBox="0 0 24 24" fill="none" xmlns="http://www.w3.org/2000/svg">
<path fill-rule="evenodd" clip-rule="evenodd" d="M24 2.57143V21.4286C24 22.8482 22.8482 24 21.4286 24H2.57143C1.15179 24 0 22.8482 0 21.4286V2.57143C0 1.15179 1.15179 0 2.57143 0H21.4286C22.8482 0 24 1.15179 24 2.57143ZM10.0071 9.1125L15.1071 12.0107L10.0071 14.9089V9.1125ZM21.3429 7.29107C21.75 8.82321 21.75 12.0161 21.75 12.0161C21.75 12.0161 21.75 15.2089 21.3429 16.7357C21.1179 17.5821 20.4589 18.2196 19.6179 18.4446C18.1018 18.8571 12 18.8571 12 18.8571C12 18.8571 5.89821 18.8571 4.38214 18.45C3.54107 18.225 2.88214 17.5875 2.65714 16.7411C2.25 15.2089 2.25 12.0161 2.25 12.0161C2.25 12.0161 2.25 8.81786 2.65714 7.29107C2.88214 6.44464 3.54107 5.78036 4.38214 5.55536C5.89821 5.14286 12 5.14286 12 5.14286C12 5.14286 18.1018 5.14286 19.6179 5.55536C20.4589 5.78036 21.1179 6.44464 21.3429 7.29107Z" fill="white"/>
</svg>
