<svg width="9" height="15" viewBox="0 0 9 15" fill="none" xmlns="http://www.w3.org/2000/svg">
<path d="M8.60008 7.15424L1.59366 0.150402C1.4934 0.0502744 1.37802 0 1.24779 0C1.11751 0 1.00218 0.0502744 0.901967 0.150402L0.150345 0.901939C0.0499747 1.00212 0 1.1172 0 1.24765C0 1.3781 0.0499747 1.49318 0.150345 1.59336L6.05905 7.50016L0.150345 13.4071C0.0499747 13.5072 0 13.6225 0 13.7526C0 13.883 0.0499747 13.9983 0.150345 14.0985L0.90202 14.8498C1.00223 14.95 1.11756 15 1.24784 15C1.37807 15 1.4934 14.9499 1.59366 14.8498L8.59971 7.84587C8.69987 7.74574 8.75 7.6304 8.75 7.50016C8.75 7.36992 8.70024 7.25463 8.60008 7.15424Z" fill="#237BD3"/>
</svg>
