<svg width="9" height="15" viewBox="0 0 9 15" fill="none" xmlns="http://www.w3.org/2000/svg">
<path d="M0.149924 7.15424L7.15634 0.150402C7.2566 0.0502744 7.37198 0 7.50221 0C7.63249 0 7.74782 0.0502744 7.84803 0.150402L8.59965 0.901939C8.70003 1.00212 8.75 1.1172 8.75 1.24765C8.75 1.3781 8.70003 1.49318 8.59965 1.59336L2.69095 7.50016L8.59965 13.4071C8.70003 13.5072 8.75 13.6225 8.75 13.7526C8.75 13.883 8.70003 13.9983 8.59965 14.0985L7.84798 14.8498C7.74777 14.95 7.63244 15 7.50216 15C7.37193 15 7.2566 14.9499 7.15634 14.8498L0.150292 7.84587C0.0501328 7.74574 0 7.6304 0 7.50016C0 7.36992 0.0497646 7.25463 0.149924 7.15424Z" fill="#237BD3"/>
</svg>
