<svg width="22" height="23" viewBox="0 0 22 23" fill="none" xmlns="http://www.w3.org/2000/svg">
<mask id="mask0" mask-type="alpha" maskUnits="userSpaceOnUse" x="0" y="0" width="21" height="13">
<path fill-rule="evenodd" clip-rule="evenodd" d="M0.200195 0.80011H20.5351V12.6647H0.200195V0.80011Z" fill="white"/>
</mask>
<g mask="url(#mask0)">
<path fill-rule="evenodd" clip-rule="evenodd" d="M1.825 12.6243C1.8622 12.5901 1.879 12.5451 1.873 12.4959C1.828 12.1215 1.8046 11.7471 1.8046 11.4111C1.8046 6.44491 5.845 2.40391 10.8112 2.40391C13 2.40391 15.2032 3.26971 16.8556 4.77871L17.239 5.12851L16.1242 6.26251C16.0792 6.30751 16.0636 6.36811 16.0804 6.42931C16.0906 6.45631 16.1392 6.50371 16.2016 6.51751C16.222 6.52171 19.165 7.35031 20.2756 7.86451L20.2834 7.84231L20.4148 7.89031C20.4028 7.88491 20.4364 7.87531 20.473 7.84351C20.524 7.79911 20.5432 7.74691 20.5324 7.68811C20.509 7.56991 19.6528 3.27691 19.609 3.05191C19.5976 3.00151 19.5574 2.95651 19.51 2.94271C19.4572 2.92831 19.3996 2.94331 19.3594 2.98411L18.376 3.94771L18.0262 3.62131C16.1062 1.82851 13.4764 0.80011 10.8112 0.80011C4.9606 0.80011 0.200195 5.55991 0.200195 11.4111C0.200195 11.7303 0.211595 11.9997 0.234995 12.2595C0.240995 12.3255 0.290795 12.3807 0.356195 12.3945L1.693 12.6615C1.7416 12.6717 1.789 12.6573 1.825 12.6243Z" fill="#388AF7"/>
</g>
<mask id="mask1" mask-type="alpha" maskUnits="userSpaceOnUse" x="1" y="10" width="21" height="13">
<path fill-rule="evenodd" clip-rule="evenodd" d="M1.08789 10.1498H21.4222V22.0219H1.08789V10.1498Z" fill="white"/>
</mask>
<g mask="url(#mask1)">
<path fill-rule="evenodd" clip-rule="evenodd" d="M21.3898 10.561C21.3838 10.4938 21.3346 10.4398 21.268 10.426L19.9276 10.153C19.8778 10.1428 19.8316 10.1572 19.795 10.1902C19.7584 10.2238 19.741 10.27 19.7476 10.3192C19.7926 10.6924 19.8178 11.08 19.8178 11.4112C19.8178 16.3774 15.7774 20.4178 10.8112 20.4178C8.61636 20.4178 6.41256 19.5472 4.76496 18.0286L4.38216 17.6752L5.50176 16.5568C5.54436 16.5136 5.55936 16.4536 5.54256 16.393C5.53236 16.3654 5.48376 16.3186 5.42076 16.3048C5.28696 16.2772 3.26076 15.6208 3.24036 15.6136C2.16096 15.2644 1.59636 15.0814 1.28616 14.9506L1.27776 14.95C1.22316 14.941 1.17336 14.9518 1.14996 14.9776C1.09236 15.0328 1.08276 15.0934 1.08996 15.1342L2.01336 19.7194C2.02596 19.7758 2.06436 19.822 2.11236 19.8346C2.16876 19.849 2.22036 19.8412 2.24556 19.813L3.23016 18.8272L3.58356 19.1572C5.53236 20.9776 8.16696 22.0222 10.8112 22.0222C16.6624 22.0222 21.4222 17.2618 21.4222 11.4112C21.4222 11.0962 21.412 10.8256 21.3898 10.561Z" fill="#388AF7"/>
</g>
<path fill-rule="evenodd" clip-rule="evenodd" d="M11.6066 17.618V16.0118C13.1894 15.7868 14.0894 14.8556 14.0894 13.6064C14.0894 12.1556 13.3598 11.3798 11.2652 10.7126C10.0238 10.3172 9.2012 10.1618 9.2012 9.25404C9.2012 8.61024 9.7598 7.99704 10.8308 7.99704C12.0644 7.99704 12.4598 8.67984 12.4598 9.50244H13.934C13.934 8.11344 13.0262 7.10484 11.6066 6.83304V5.20404H10.055V6.84144C8.8292 7.08924 7.727 7.90404 7.727 9.26184C7.727 11.0072 9.1082 11.4344 10.8308 11.993C12.2894 12.4664 12.5762 12.8 12.5762 13.6142C12.5762 14.3126 12.0566 14.825 10.8308 14.825C9.8996 14.825 9.0848 14.1728 9.0848 13.2266H7.5332C7.5332 14.6852 8.6042 15.7094 10.055 15.9884V17.618H11.6066Z" fill="#388AF7"/>
</svg>
