<svg width="14" height="8" viewBox="0 0 14 8" fill="none" xmlns="http://www.w3.org/2000/svg">
<path d="M13.7401 1.64358L7.61519 7.74141C7.44218 7.91385 7.23713 8 7 8C6.76287 8 6.55787 7.91385 6.38467 7.74141L0.259733 1.64358C0.0865297 1.47114 0 1.267 0 1.03111C0 0.795213 0.0865297 0.590929 0.259733 0.418633C0.433127 0.246195 0.638127 0.16 0.875066 0.16H13.1249C13.3619 0.16 13.567 0.246195 13.7401 0.418633C13.9131 0.590881 14 0.795166 14 1.03111C14 1.26705 13.9131 1.47114 13.7401 1.64358Z" fill="#878DA4"/>
<path d="M13.7401 1.64358L7.61519 7.74141C7.44218 7.91385 7.23713 8 7 8C6.76287 8 6.55787 7.91385 6.38467 7.74141L0.259733 1.64358C0.0865297 1.47114 0 1.267 0 1.03111C0 0.795213 0.0865297 0.590929 0.259733 0.418633C0.433127 0.246195 0.638127 0.16 0.875066 0.16H13.1249C13.3619 0.16 13.567 0.246195 13.7401 0.418633C13.9131 0.590881 14 0.795166 14 1.03111C14 1.26705 13.9131 1.47114 13.7401 1.64358Z" fill="#878DA4"/>
</svg>
