<svg width="42" height="42" viewBox="0 0 42 42" fill="none" xmlns="http://www.w3.org/2000/svg">
<path d="M40.6383 1.04632C39.0154 -0.581952 36.1629 -0.200285 34.5309 1.4358L26.225 9.72305L10.8192 3.96548C9.34348 3.58382 7.85735 3.09013 6.02736 4.92551C5.09348 5.86079 3.15278 7.8069 6.02736 10.687L16.5905 19.3364L9.71729 26.1959L3.30386 24.5924C2.35305 24.3475 1.71223 24.539 1.2238 25.0783C0.977629 25.3857 -0.808076 26.7092 0.437098 27.9571L7.89382 33.7589L13.6951 41.2164C14.5964 42.1204 15.4339 41.5564 16.5788 40.4687C17.3043 39.7419 17.148 39.368 16.9291 38.309L15.4808 31.9392L22.3071 25.0887L30.9426 35.6556C33.8158 38.5356 35.7579 36.5882 36.6917 35.6556C38.523 33.8189 38.0307 32.3313 37.6491 30.8528L31.9403 15.4194L40.2123 7.11782C41.8444 5.48303 42.2625 2.67329 40.6383 1.04632Z" fill="#388AF7"/>
</svg>
