<svg width="22" height="22" viewBox="0 0 22 22" fill="none" xmlns="http://www.w3.org/2000/svg">
<path fill-rule="evenodd" clip-rule="evenodd" d="M1.825 12.0242C1.8622 11.99 1.879 11.945 1.873 11.8958C1.828 11.5214 1.8046 11.147 1.8046 10.811C1.8046 5.84481 5.845 1.80381 10.8112 1.80381C13 1.80381 15.2032 2.66961 16.8556 4.17861L17.239 4.52841L16.1242 5.66241C16.0792 5.70741 16.0636 5.76801 16.0804 5.82921C16.0906 5.85621 16.1392 5.90361 16.2016 5.91741C16.222 5.92161 19.165 6.75021 20.2756 7.26441L20.2834 7.24221L20.4148 7.29021C20.4028 7.28481 20.4364 7.27521 20.473 7.24341C20.524 7.19901 20.5432 7.14681 20.5324 7.08801C20.509 6.96981 19.6528 2.67681 19.609 2.45181C19.5976 2.40141 19.5574 2.35641 19.51 2.34261C19.4572 2.32821 19.3996 2.34321 19.3594 2.38401L18.376 3.34761L18.0262 3.02121C16.1062 1.22841 13.4764 0.200012 10.8112 0.200012C4.9606 0.200012 0.200195 4.95981 0.200195 10.811C0.200195 11.1302 0.211595 11.3996 0.234995 11.6594C0.240995 11.7254 0.290795 11.7806 0.356195 11.7944L1.693 12.0614C1.7416 12.0716 1.789 12.0572 1.825 12.0242Z" fill="white"/>
<path fill-rule="evenodd" clip-rule="evenodd" d="M21.3898 9.96085C21.3838 9.89365 21.3346 9.83965 21.268 9.82585L19.9276 9.55285C19.8778 9.54265 19.8316 9.55705 19.795 9.59005C19.7584 9.62365 19.741 9.66985 19.7476 9.71905C19.7926 10.0922 19.8178 10.4798 19.8178 10.811C19.8178 15.7772 15.7774 19.8176 10.8112 19.8176C8.61636 19.8176 6.41256 18.947 4.76496 17.4284L4.38216 17.075L5.50176 15.9566C5.54436 15.9134 5.55936 15.8534 5.54256 15.7928C5.53236 15.7652 5.48376 15.7184 5.42076 15.7046C5.28696 15.677 3.26076 15.0206 3.24036 15.0134C2.16096 14.6642 1.59636 14.4812 1.28616 14.3504L1.27776 14.3498C1.22316 14.3408 1.17336 14.3516 1.14996 14.3774C1.09236 14.4326 1.08276 14.4932 1.08996 14.534L2.01336 19.1192C2.02596 19.1756 2.06436 19.2218 2.11236 19.2344C2.16876 19.2488 2.22036 19.241 2.24556 19.2128L3.23016 18.227L3.58356 18.557C5.53236 20.3774 8.16696 21.422 10.8112 21.422C16.6624 21.422 21.4222 16.6616 21.4222 10.811C21.4222 10.496 21.412 10.2254 21.3898 9.96085Z" fill="white"/>
<path fill-rule="evenodd" clip-rule="evenodd" d="M11.6066 17.0179V15.4117C13.1894 15.1867 14.0894 14.2555 14.0894 13.0063C14.0894 11.5555 13.3598 10.7797 11.2652 10.1125C10.0238 9.71708 9.2012 9.56168 9.2012 8.65388C9.2012 8.01008 9.7598 7.39688 10.8308 7.39688C12.0644 7.39688 12.4598 8.07968 12.4598 8.90228H13.934C13.934 7.51328 13.0262 6.50468 11.6066 6.23288V4.60388H10.055V6.24128C8.8292 6.48908 7.727 7.30388 7.727 8.66168C7.727 10.4071 9.1082 10.8343 10.8308 11.3929C12.2894 11.8663 12.5762 12.1999 12.5762 13.0141C12.5762 13.7125 12.0566 14.2249 10.8308 14.2249C9.8996 14.2249 9.0848 13.5727 9.0848 12.6265H7.5332C7.5332 14.0851 8.6042 15.1093 10.055 15.3883V17.0179H11.6066Z" fill="white"/>
</svg>
