<svg width="25" height="24" viewBox="0 0 25 24" fill="none" xmlns="http://www.w3.org/2000/svg">
<path fill-rule="evenodd" clip-rule="evenodd" d="M7.4773 5.04616H21.2185V9.64336C21.2185 10.094 20.8525 10.4516 20.4109 10.4516H8.2855C7.8451 10.4516 7.4773 10.0958 7.4773 9.64336V5.04616ZM7.4773 2.82316C7.4773 2.37736 7.8379 2.01496 8.2855 2.01496H20.4109C20.8579 2.01496 21.2185 2.37676 21.2185 2.82316V3.63136H7.4773V2.82316ZM8.2855 11.867H20.4109C21.6301 11.867 22.6339 10.8812 22.6339 9.64336V2.82316C22.6339 1.59556 21.6403 0.600159 20.4109 0.600159H8.2855C7.0573 0.600159 6.0625 1.59316 6.0625 2.82316V9.64336C6.0625 10.8842 7.0699 11.867 8.2855 11.867Z" fill="#388AF7"/>
<mask id="mask0" mask-type="alpha" maskUnits="userSpaceOnUse" x="0" y="14" width="25" height="10">
<path fill-rule="evenodd" clip-rule="evenodd" d="M0 14.813H24.1498V23.234H0V14.813Z" fill="white"/>
</mask>
<g mask="url(#mask0)">
<path fill-rule="evenodd" clip-rule="evenodd" d="M18.525 21.1383C18.0864 21.5769 17.5026 21.8187 16.8822 21.8187H4.4466V19.6437L6.5988 20.1813C6.81 20.2347 7.0338 20.1867 7.2054 20.0523C7.3776 19.9185 7.4778 19.7121 7.4778 19.4943C7.4778 18.6453 7.8828 17.8329 8.5608 17.3217C9.2382 16.8099 10.1304 16.6443 10.9476 16.8771C11.502 17.0355 11.88 17.1441 11.88 17.1441C11.9436 17.1621 12.009 17.1711 12.075 17.1711H15.1062C15.5544 17.1711 15.9144 17.5341 15.9144 17.9793V18.7875H12.8328C12.4422 18.7875 12.1254 19.1043 12.1254 19.4949C12.1254 19.8861 12.4422 20.2023 12.8328 20.2023H16.6218H16.623H16.6242H16.6248C16.8054 20.2017 16.9704 20.1333 17.0946 20.0217C17.1792 19.9467 19.245 18.1101 21.081 16.4781C21.3732 16.2189 21.792 16.1541 22.1478 16.3143C22.4238 16.4385 22.6242 16.6791 22.7004 16.9629L18.525 21.1383ZM1.4154 21.8187H3.0318V17.9289H1.4154V21.8187ZM22.7274 15.0237C21.864 14.6361 20.8488 14.7915 20.1408 15.4209C19.1556 16.2963 18.1044 17.2305 17.3286 17.9205C17.2974 16.7199 16.3164 15.7563 15.1062 15.7563H12.1746C12.0282 15.7143 11.7252 15.6279 11.3358 15.5169C10.095 15.1623 8.7384 15.4143 7.7082 16.1919C6.9162 16.7889 6.3696 17.6571 6.159 18.6129L4.4466 18.1851V17.2215C4.4466 16.8309 4.1298 16.5141 3.7386 16.5141H0.708C0.3168 16.5141 0 16.8309 0 17.2215V22.5261C0 22.9173 0.3168 23.2341 0.708 23.2341H16.8822C17.8806 23.2341 18.8196 22.8453 19.5258 22.1385L23.9424 17.7219C24.075 17.5893 24.15 17.4087 24.15 17.2209C24.15 16.2741 23.592 15.4119 22.7274 15.0237Z" fill="#388AF7"/>
</g>
<path fill-rule="evenodd" clip-rule="evenodd" d="M17.3798 8.83539H18.8954C19.286 8.83539 19.6028 8.51859 19.6028 8.12799C19.6028 7.73679 19.286 7.42059 18.8954 7.42059H17.3798C16.9892 7.42059 16.6724 7.73679 16.6724 8.12799C16.6724 8.51859 16.9892 8.83539 17.3798 8.83539Z" fill="#388AF7"/>
</svg>
