<svg width="25" height="24" viewBox="0 0 25 24" fill="none" xmlns="http://www.w3.org/2000/svg">
<path fill-rule="evenodd" clip-rule="evenodd" d="M7.87769 5.04598H21.6189V9.64318C21.6189 10.0938 21.2529 10.4514 20.8113 10.4514H8.68589C8.24549 10.4514 7.87769 10.0956 7.87769 9.64318V5.04598ZM7.87769 2.82298C7.87769 2.37718 8.23829 2.01478 8.68589 2.01478H20.8113C21.2583 2.01478 21.6189 2.37658 21.6189 2.82298V3.63118H7.87769V2.82298ZM8.68589 11.8668H20.8113C22.0305 11.8668 23.0343 10.881 23.0343 9.64318V2.82298C23.0343 1.59538 22.0407 0.599976 20.8113 0.599976H8.68589C7.45769 0.599976 6.46289 1.59298 6.46289 2.82298V9.64318C6.46289 10.884 7.47029 11.8668 8.68589 11.8668Z" fill="white"/>
<path fill-rule="evenodd" clip-rule="evenodd" d="M18.9249 21.1382C18.4863 21.5768 17.9025 21.8186 17.2821 21.8186H4.8465V19.6436L6.9987 20.1812C7.2099 20.2346 7.4337 20.1866 7.6053 20.0522C7.7775 19.9184 7.8777 19.712 7.8777 19.4942C7.8777 18.6452 8.2827 17.8328 8.9607 17.3216C9.6381 16.8098 10.5303 16.6442 11.3475 16.877C11.9019 17.0354 12.2799 17.144 12.2799 17.144C12.3435 17.162 12.4089 17.171 12.4749 17.171H15.5061C15.9543 17.171 16.3143 17.534 16.3143 17.9792V18.7874H13.2327C12.8421 18.7874 12.5253 19.1042 12.5253 19.4948C12.5253 19.886 12.8421 20.2022 13.2327 20.2022H17.0217H17.0229H17.0241H17.0247C17.2053 20.2016 17.3703 20.1332 17.4945 20.0216C17.5791 19.9466 19.6449 18.11 21.4809 16.478C21.7731 16.2188 22.1919 16.154 22.5477 16.3142C22.8237 16.4384 23.0241 16.679 23.1003 16.9628L18.9249 21.1382ZM1.8153 21.8186H3.4317V17.9288H1.8153V21.8186ZM23.1273 15.0236C22.2639 14.636 21.2487 14.7914 20.5407 15.4208C19.5555 16.2962 18.5043 17.2304 17.7285 17.9204C17.6973 16.7198 16.7163 15.7562 15.5061 15.7562H12.5745C12.4281 15.7142 12.1251 15.6278 11.7357 15.5168C10.4949 15.1622 9.1383 15.4142 8.1081 16.1918C7.3161 16.7888 6.7695 17.657 6.5589 18.6128L4.8465 18.185V17.2214C4.8465 16.8308 4.5297 16.514 4.1385 16.514H1.1079C0.716702 16.514 0.399902 16.8308 0.399902 17.2214V22.526C0.399902 22.9172 0.716702 23.234 1.1079 23.234H17.2821C18.2805 23.234 19.2195 22.8452 19.9257 22.1384L24.3423 17.7218C24.4749 17.5892 24.5499 17.4086 24.5499 17.2208C24.5499 16.274 23.9919 15.4118 23.1273 15.0236Z" fill="white"/>
<path fill-rule="evenodd" clip-rule="evenodd" d="M17.7797 8.83521H19.2953C19.6859 8.83521 20.0027 8.51841 20.0027 8.12781C20.0027 7.73661 19.6859 7.42041 19.2953 7.42041H17.7797C17.3891 7.42041 17.0723 7.73661 17.0723 8.12781C17.0723 8.51841 17.3891 8.83521 17.7797 8.83521Z" fill="white"/>
</svg>
