<svg width="24" height="18" viewBox="0 0 24 18" fill="none" xmlns="http://www.w3.org/2000/svg">
<g id="i_birthday">
<path id="Shape" fill-rule="evenodd" clip-rule="evenodd" d="M21.2436 16.2191H22.2395C22.654 16.2191 22.9878 16.5637 22.9878 16.9842C22.9878 17.4048 22.654 17.7436 22.2395 17.7436H0.779643C0.365182 17.7436 0.031311 17.4048 0.031311 16.9842C0.031311 16.5637 0.365182 16.2249 0.779643 16.2249H1.78126V10.6759V9.38503C1.78126 8.12921 2.78863 7.10702 4.02625 7.10702H10.767V5.96218C9.44878 5.48905 8.86738 3.91197 9.56966 2.67951L10.8649 0.395655C11.1527 -0.112517 11.8722 -0.112517 12.16 0.395655L13.4552 2.67951C14.1575 3.90613 13.5819 5.48905 12.2579 5.96218V7.10702H18.9986C20.2363 7.10702 21.2436 8.12921 21.2436 9.38503V16.2191ZM11.5096 2.294L10.8591 3.433C10.577 3.93533 10.9339 4.57201 11.5096 4.57201C12.0852 4.57201 12.4479 3.93533 12.16 3.433L11.5096 2.294ZM3.27216 9.38503C3.27216 8.96448 3.60604 8.6257 4.0205 8.6257H18.9929C19.4074 8.6257 19.7412 8.96448 19.7412 9.38503V10.3138C19.1416 10.5226 18.7521 10.9507 18.4163 11.3197C18.0946 11.6733 17.8223 11.9726 17.4617 11.9726C17.1064 11.9726 16.8262 11.667 16.4979 11.3089C16.0336 10.8024 15.4732 10.1911 14.4684 10.1911C13.4635 10.1911 12.9031 10.8024 12.4388 11.3089C12.1105 11.667 11.8303 11.9726 11.475 11.9726C11.1218 11.9726 10.8388 11.6664 10.5075 11.3078C10.0398 10.8016 9.47575 10.1911 8.48171 10.1911C7.47684 10.1911 6.91642 10.8024 6.45215 11.3089C6.12386 11.667 5.84365 11.9726 5.48838 11.9726C5.10784 11.9726 4.77713 11.6047 4.39486 11.1795C4.07744 10.8264 3.72448 10.4338 3.27792 10.1794V9.38503H3.27216ZM3.27216 16.2191H19.7355V12.1011C19.6657 12.1727 19.5936 12.2521 19.5178 12.3354C19.062 12.837 18.4727 13.4855 17.4559 13.4855C16.4511 13.4855 15.8906 12.8741 15.4264 12.3677C15.0981 12.0096 14.8179 11.7039 14.4626 11.7039C14.1073 11.7039 13.8271 12.0096 13.4988 12.3677C13.0346 12.8741 12.4741 13.4855 11.4693 13.4855C10.4738 13.4855 9.90763 12.8733 9.43903 12.3666C9.10825 12.009 8.82611 11.7039 8.47595 11.7039C8.12068 11.7039 7.84047 12.0096 7.51218 12.3677C7.04791 12.8741 6.48748 13.4855 5.48262 13.4855C4.44071 13.4855 3.79024 12.7612 3.27216 12.1829V16.2191Z" fill="#B2BCC8"/>
</g>
</svg>
