<svg width="44" height="36" viewBox="0 0 44 36" fill="none" xmlns="http://www.w3.org/2000/svg">
<path fill-rule="evenodd" clip-rule="evenodd" d="M24.1056 28.6668C24.0194 28.6668 23.935 28.6426 23.8622 28.5953C23.741 28.5174 23.6683 28.3852 23.6683 28.2444L23.6666 5.55145C23.6666 5.37785 23.7755 5.22252 23.9422 5.15856L36.4009 0.363284C36.5359 0.311687 36.6882 0.327811 36.8082 0.406281C36.9282 0.484752 36.9999 0.615894 36.9999 0.756172V26.1595C36.9999 26.3901 36.8093 26.5777 36.5715 26.5825C31.6633 26.6744 27.4101 27.3844 24.2717 28.6351C24.2178 28.6566 24.1617 28.6668 24.1056 28.6668ZM7.42834 26.582C12.3366 26.6739 16.5891 27.3845 19.7281 28.6351C19.7815 28.6561 19.8381 28.6668 19.8943 28.6668C19.9798 28.6668 20.0649 28.6426 20.1377 28.5948C20.2588 28.5169 20.3316 28.3847 20.3316 28.2438L20.3333 5.55125C20.3333 5.37819 20.2243 5.22287 20.0576 5.15891L7.59893 0.363698C7.46446 0.311564 7.31165 0.327688 7.19163 0.406157C7.07216 0.485163 6.99992 0.616303 6.99992 0.756043V26.159C6.99992 26.3896 7.19051 26.5772 7.42834 26.582ZM43.4905 3.75336C43.3799 3.6709 43.2371 3.64583 43.1044 3.68483L38.6988 5.00645C38.5138 5.06161 38.3871 5.23266 38.3871 5.426V28.1515C38.3871 28.1515 38.406 28.5103 38.0299 28.5103H37.316C33.7621 28.5103 27.1571 28.8803 22.8538 31.3586L21.9994 31.8489L21.1455 31.3586C16.8427 28.8803 10.2377 28.5103 6.68381 28.5103H5.7727C5.60214 28.5103 5.6127 28.3053 5.6127 28.3053V5.426C5.6127 5.23266 5.48603 5.06161 5.30103 5.00645L0.895474 3.68483C0.763252 3.64583 0.619919 3.6709 0.508808 3.75336C0.398808 3.83582 0.333252 3.9662 0.333252 4.10494V31.5999C0.333252 31.7236 0.385474 31.8417 0.476585 31.9247C0.567696 32.0077 0.689919 32.0484 0.812696 32.0361C2.12214 31.9074 4.16936 31.7542 6.48547 31.7542C11.5727 31.7542 15.6605 32.4991 18.3099 33.9094L18.3665 33.9393C18.8806 34.2117 20.998 35.3335 21.9999 35.3335C22.9998 35.3335 25.1108 34.2162 25.6307 33.9409L25.6905 33.9094C28.3394 32.4991 32.4277 31.7542 37.5144 31.7542C39.8299 31.7542 41.8777 31.9074 43.1866 32.0361C43.3099 32.0484 43.4316 32.0077 43.5233 31.9247C43.6149 31.8417 43.6666 31.7236 43.6666 31.5999V4.10494C43.6666 3.9662 43.601 3.83582 43.4905 3.75336Z" fill="#388AF7"/>
</svg>
