<svg width="20" height="16" viewBox="0 0 20 16" fill="none" xmlns="http://www.w3.org/2000/svg">
<mask id="mask0" mask-type="alpha" maskUnits="userSpaceOnUse" x="0" y="0" width="20" height="16">
<path fill-rule="evenodd" clip-rule="evenodd" d="M0 0.000305176H19.9999V15.5553H0V0.000305176Z" fill="white"/>
</mask>
<g mask="url(#mask0)">
<path fill-rule="evenodd" clip-rule="evenodd" d="M18.336 12.9643H18.33V13.6803C18.33 13.7953 18.236 13.8883 18.122 13.8883H1.878C1.764 13.8883 1.67 13.7953 1.67 13.6803V12.9643H1.667V2.85631H1.67V1.87531C1.67 1.76031 1.764 1.66631 1.878 1.66631H18.122C18.236 1.66631 18.33 1.76031 18.33 1.87531V2.85631H18.336V12.9643ZM18.33 0.000305176H1.67C0.747 0.000305176 0 0.746305 0 1.66631V13.8883C0 14.8093 0.747 15.5553 1.67 15.5553H18.33C19.253 15.5553 20 14.8093 20 13.8883V1.66631C20 0.746305 19.253 0.000305176 18.33 0.000305176Z" fill="#CDCDCD"/>
</g>
<path fill-rule="evenodd" clip-rule="evenodd" d="M15.0363 7.05071C15.0093 7.06972 14.9633 7.07672 14.9393 7.07572C14.4553 6.98272 13.9663 6.27772 14.0373 5.77472C14.1233 5.16172 14.6903 4.56572 15.3023 4.44372C15.3753 4.42872 15.4443 4.42172 15.5103 4.42172C15.6803 4.42172 15.8263 4.46972 15.9383 4.56372C16.1123 4.70972 16.2013 4.96072 16.1953 5.28872C16.1273 5.96072 15.7373 6.55371 15.0363 7.05071ZM14.5603 10.5297C14.2193 10.8967 13.7723 11.1147 13.3633 11.1147H13.3573H13.3563C13.0423 11.1127 12.7763 11.0037 12.6083 10.8047C12.4393 10.6057 12.3743 10.3237 12.4253 10.0107C12.5523 9.21772 13.0023 8.60672 13.8413 8.08772C13.8613 8.07472 13.9003 8.06872 13.9353 8.06872C13.9623 8.06872 13.9863 8.07171 13.9993 8.07972C14.2983 8.31572 14.6073 8.55972 14.8633 8.83872C14.9743 8.96072 15.0273 9.17172 15.0403 9.32871C15.0733 9.72871 14.8983 10.1657 14.5603 10.5297ZM16.0253 3.81572C14.7313 3.66072 13.3253 4.53172 12.8803 5.75572C12.6193 6.47572 12.7603 7.08071 13.2983 7.55672C13.3483 7.59971 13.4063 7.62972 13.4633 7.65372C13.3493 7.73272 13.2503 7.79372 13.1583 7.84972C13.0553 7.91372 12.9633 7.96972 12.8783 8.03372C12.7793 8.10972 12.6763 8.18272 12.5733 8.25672C12.2413 8.49272 11.8973 8.73872 11.6363 9.05272C11.1563 9.63072 11.0553 10.3197 11.3583 10.9447C11.6203 11.4847 12.1363 11.7577 12.8913 11.7577C12.9123 11.7577 12.9333 11.7577 12.9553 11.7577C14.2973 11.7317 15.3573 11.1137 16.0213 9.97171C16.5923 8.98872 16.4373 8.22372 15.5193 7.49172C15.4953 7.47272 15.4733 7.45372 15.4493 7.43272L15.6543 7.29872C15.8933 7.14372 16.1283 6.99172 16.3573 6.83172C16.8273 6.50272 17.1223 6.05172 17.2373 5.48972C17.3243 5.06772 17.2513 4.66872 17.0343 4.36672C16.8143 4.06372 16.4563 3.86772 16.0253 3.81572Z" fill="#CDCDCD"/>
<path fill-rule="evenodd" clip-rule="evenodd" d="M6.28281 10.4502C5.81881 10.4352 5.66481 10.1662 5.55781 9.70522C5.35181 8.82322 5.12581 7.93122 4.90781 7.06822C4.81581 6.70822 4.72381 6.34722 4.63381 5.98522L4.60481 5.86722L2.72681 6.42222L2.96481 6.55622C3.02481 6.59122 3.07481 6.62422 3.11881 6.65222C3.20781 6.71122 3.28481 6.76122 3.37581 6.77722C3.67581 6.82822 3.82981 6.99222 3.91081 7.34322C4.01881 7.80622 4.13481 8.26722 4.25181 8.72822C4.33881 9.07322 4.42481 9.41822 4.50881 9.76322C4.63681 10.2992 4.63681 10.2992 4.08981 10.4662C4.03581 10.4832 4.01181 10.5222 3.98481 10.5682C3.97081 10.5912 3.83281 10.8892 3.83281 10.8892L6.76481 10.9612C6.76481 10.9612 6.54081 10.6242 6.51981 10.6012C6.45681 10.5322 6.38481 10.4532 6.28281 10.4502Z" fill="#CDCDCD"/>
<path fill-rule="evenodd" clip-rule="evenodd" d="M3.79456 5.1411C3.80156 5.1411 3.80956 5.1411 3.81556 5.1411C4.13256 5.1411 4.33656 4.9701 4.35156 4.6881V4.6831C4.35356 4.4511 4.25856 4.2221 4.09256 4.0561C3.94956 3.9121 3.77256 3.8331 3.59456 3.8331H3.59056C3.24356 3.8351 3.04356 4.0311 3.04056 4.3691C3.03656 4.7771 3.38156 5.1311 3.79456 5.1411Z" fill="#CDCDCD"/>
<path fill-rule="evenodd" clip-rule="evenodd" d="M11.1705 8.09522C10.9895 7.99022 10.8475 8.12422 10.8475 8.12422L10.7045 8.29722L10.7025 8.30322L10.6885 8.32122L10.5605 8.48022C10.2535 8.86022 9.85852 9.08022 9.44952 9.09922C9.04052 9.12722 8.67052 8.95422 8.34752 8.62522C7.72852 7.99522 7.50352 7.21222 7.69952 6.36022C7.78652 5.98622 7.99652 5.69422 8.29152 5.53822C8.59652 5.37722 8.97352 5.37022 9.35052 5.51822C9.44352 5.55522 9.54352 5.60522 9.66352 5.67522C9.79052 5.74922 9.90652 5.76322 10.0055 5.72622C10.1115 5.68522 10.1905 5.58922 10.2385 5.43822C10.3015 5.23822 10.2945 5.05722 10.2165 4.91422C10.1495 4.79122 10.0305 4.70522 9.87452 4.66422C9.52552 4.57422 9.22652 4.55322 8.98152 4.60122C8.15152 4.77022 7.44152 5.30522 7.03252 6.07122C6.60952 6.86222 6.56052 7.78822 6.89852 8.61222C7.30052 9.59622 7.99452 10.1282 8.95852 10.1912C9.00952 10.1952 9.05952 10.1972 9.10852 10.1972C10.1595 10.1972 10.7115 9.43522 11.0385 8.85022C11.0475 8.83422 11.0475 8.81721 11.0545 8.80122L11.0585 8.80322C11.0585 8.80322 11.3515 8.20022 11.1705 8.09522Z" fill="#CDCDCD"/>
</svg>
