<svg width="20" height="20" viewBox="0 0 20 20" fill="none" xmlns="http://www.w3.org/2000/svg">
<path fill-rule="evenodd" clip-rule="evenodd" d="M18.75 2.5H16.25V0.937516C16.25 0.42 15.83 0 15.3125 0C14.795 0 14.375 0.42 14.375 0.937516V2.5H5.62497V0.937516C5.625 0.42 5.205 0 4.68752 0C4.17003 0 3.75 0.42 3.75 0.937516V2.5H1.25C0.56 2.5 0 3.05938 0 3.75V18.75C0 19.4406 0.56 20 1.25 20H18.75C19.44 20 20 19.4406 20 18.75V3.75C20 3.05938 19.44 2.5 18.75 2.5ZM18.125 18.125H1.875V8.125H18.125V18.125ZM1.875 6.25H18.125V4.375H1.875V6.25Z" fill="#B2BCC8"/>
</svg>
