<svg width="37" height="25" viewBox="0 0 37 25" fill="none" xmlns="http://www.w3.org/2000/svg">
<path fill-rule="evenodd" clip-rule="evenodd" d="M26.3674 0C26.3156 0 26.2626 0.00115202 26.2108 0.00230404C24.568 0.0391687 22.9367 0.471177 21.4956 1.25225C20.3297 1.88355 19.2837 2.74411 18.4323 3.76596C17.581 2.74527 16.535 1.88355 15.3703 1.25225C13.9291 0.471177 12.2978 0.0391687 10.6539 0.00230404C10.6124 0.00115202 10.5698 0.00115202 10.5283 0H10.3071C7.63905 0.0276485 5.12073 1.07484 3.18764 2.9653C1.13244 4.97558 0 7.6667 0 10.5421V24.3042C0 24.5196 0.116354 24.7201 0.301829 24.8272L0.609419 25L4.81545 22.5036V10.4189C4.81545 8.90973 5.40758 7.49274 6.48703 6.42943C7.56532 5.36726 8.99383 4.79471 10.503 4.81545C13.5466 4.85922 16.0246 7.41786 16.0246 10.5191V21.9414L16.0269 22.2766L16.308 22.4517L19.9334 24.6049C20.1189 24.7143 20.3504 24.7143 20.5371 24.6072L20.8401 24.4309V10.5191C20.8401 7.41786 23.3169 4.85922 26.3617 4.81545C27.872 4.79471 29.2982 5.36726 30.3776 6.42943C31.4559 7.49274 32.0504 8.90973 32.0504 10.4189V22.1027L32.0527 22.4391L32.3326 22.6142L35.9534 24.7638C36.1389 24.8744 36.3681 24.8779 36.5559 24.7731L36.8647 24.5979V10.5421C36.8647 7.6667 35.7334 4.97558 33.6782 2.9653C31.729 1.05986 29.1911 0.0172803 26.4976 0H26.3674Z" fill="white"/>
</svg>
