<svg width="20" height="15" viewBox="0 0 20 15" fill="none" xmlns="http://www.w3.org/2000/svg">
<path fill-rule="evenodd" clip-rule="evenodd" d="M19.5312 13.75C19.7891 13.75 20 13.9609 20 14.2188V14.5312C20 14.7891 19.7891 15 19.5312 15H0.46875C0.210938 15 0 14.7891 0 14.5312V0.46875C0 0.210938 0.210938 0 0.46875 0H0.78125C1.03906 0 1.25 0.210938 1.25 0.46875V13.75H19.5312ZM6.25 11.0156V7.73438C6.25 7.60547 6.14453 7.5 6.01562 7.5H5.23438C5.10547 7.5 5 7.60547 5 7.73438V11.0156C5 11.1445 5.10547 11.25 5.23438 11.25H6.01562C6.14453 11.25 6.25 11.1445 6.25 11.0156ZM17.5 1.48438V11.0156C17.5 11.1445 17.3945 11.25 17.2656 11.25H16.4844C16.3555 11.25 16.25 11.1445 16.25 11.0156V1.48438C16.25 1.35547 16.3555 1.25 16.4844 1.25H17.2656C17.3945 1.25 17.5 1.35547 17.5 1.48438ZM13.75 11.0156V5.23438C13.75 5.10547 13.6445 5 13.5156 5H12.7344C12.6055 5 12.5 5.10547 12.5 5.23438V11.0156C12.5 11.1445 12.6055 11.25 12.7344 11.25H13.5156C13.6445 11.25 13.75 11.1445 13.75 11.0156ZM10 2.73438V11.0156C10 11.1445 9.89453 11.25 9.76562 11.25H8.98438C8.85547 11.25 8.75 11.1445 8.75 11.0156V2.73438C8.75 2.60547 8.85547 2.5 8.98438 2.5H9.76562C9.89453 2.5 10 2.60547 10 2.73438Z" fill="#575C65"/>
</svg>
