<svg width="21" height="21" viewBox="0 0 21 21" fill="none" xmlns="http://www.w3.org/2000/svg">
<path fill-rule="evenodd" clip-rule="evenodd" d="M7.93714 12.9875C7.93714 12.5891 7.61374 12.2657 7.21534 12.2657C6.81694 12.2657 6.49414 12.5891 6.49414 12.9875C6.49414 14.9801 8.10934 16.5953 10.1019 16.5953C12.0945 16.5953 13.7097 14.9801 13.7097 12.9875C13.7097 12.5891 13.3869 12.2657 12.9879 12.2657C12.5895 12.2657 12.2667 12.5891 12.2667 12.9875C12.2667 14.1833 11.2977 15.1523 10.1019 15.1523C8.90614 15.1523 7.93714 14.1833 7.93714 12.9875Z" fill="white"/>
<path fill-rule="evenodd" clip-rule="evenodd" d="M7.72592 4.11765L9.38012 2.46285V12.2662C9.38012 12.6646 9.70352 12.9874 10.1019 12.9874C10.5003 12.9874 10.8237 12.6646 10.8237 12.2662V2.46285L12.4779 4.11765C12.6135 4.25325 12.7965 4.32885 12.9879 4.32885C13.3869 4.32885 13.7097 4.00545 13.7097 3.60705C13.7097 3.41625 13.6335 3.23265 13.4985 3.09705L10.6119 0.21105C10.3299 -0.07035 9.87332 -0.07035 9.59192 0.21105L6.70532 3.09705C6.42872 3.38385 6.43652 3.84105 6.72332 4.11765C7.00292 4.38765 7.44632 4.38765 7.72592 4.11765Z" fill="white"/>
<path fill-rule="evenodd" clip-rule="evenodd" d="M18.7608 9.27742C17.751 9.01342 16.9626 8.22502 16.6986 7.21522H18.7608V9.27742ZM18.7608 18.7604H16.6986C16.9626 17.7506 17.751 16.9622 18.7608 16.6976V18.7604ZM1.4436 18.7604V16.6976C2.4528 16.9622 3.2418 17.7506 3.5058 18.7604H1.4436ZM1.4436 7.21522H3.5058C3.2418 8.22502 2.4528 9.01342 1.4436 9.27742V7.21522ZM19.4826 5.77222H12.9882C12.5898 5.77222 12.267 6.09502 12.267 6.49342C12.267 6.89182 12.5898 7.21522 12.9882 7.21522H15.2178C15.5274 9.02782 16.9482 10.448 18.7608 10.7582V15.2174C16.9482 15.527 15.5274 16.9472 15.2178 18.7604H4.986C4.6764 16.9472 3.2562 15.527 1.4436 15.2174V10.7582C3.2562 10.448 4.6764 9.02782 4.986 7.21522H7.2156C7.6146 7.21522 7.9374 6.89182 7.9374 6.49342C7.9374 6.09502 7.6146 5.77222 7.2156 5.77222H0.7218C0.3234 5.77222 0 6.09502 0 6.49342V19.4816C0 19.88 0.3234 20.2028 0.7218 20.2028H19.4826C19.881 20.2028 20.2038 19.88 20.2038 19.4816V6.49342C20.2038 6.09502 19.881 5.77222 19.4826 5.77222Z" fill="white"/>
</svg>
