<svg width="22" height="18" viewBox="0 0 22 18" fill="none" xmlns="http://www.w3.org/2000/svg">
<path fill-rule="evenodd" clip-rule="evenodd" d="M1.83715 0H20.1628C21.1788 0 22 0.821181 22 1.83333V15.2778C22 16.2899 21.1788 17.1111 20.1628 17.1111H1.83715C0.82118 17.1111 0 16.2899 0 15.2778V1.83333C0 0.821181 0.82118 0 1.83715 0ZM2.06632 15.2778H19.9337C20.0597 15.2778 20.1628 15.1747 20.1628 15.0486V2.0625C20.1628 1.93646 20.0597 1.83333 19.9337 1.83333H2.06632C1.94028 1.83333 1.83715 1.93646 1.83715 2.0625V15.0486C1.83715 15.1747 1.94028 15.2778 2.06632 15.2778ZM7.33333 12.6806V12.9861C7.33333 13.2382 7.12708 13.4444 6.875 13.4444H4.125C3.87292 13.4444 3.66667 13.2382 3.66667 12.9861V12.6806C3.66667 12.4285 3.87292 12.2222 4.125 12.2222H6.875C7.12708 12.2222 7.33333 12.4285 7.33333 12.6806ZM14.6667 12.9861V12.6806C14.6667 12.4285 14.4604 12.2222 14.2083 12.2222H9.01389C8.76181 12.2222 8.55556 12.4285 8.55556 12.6806V12.9861C8.55556 13.2382 8.76181 13.4444 9.01389 13.4444H14.2083C14.4604 13.4444 14.6667 13.2382 14.6667 12.9861Z" fill="#B2BCC8"/>
</svg>
