<svg width="18" height="14" viewBox="0 0 18 14" fill="none" xmlns="http://www.w3.org/2000/svg">
<path fill-rule="evenodd" clip-rule="evenodd" d="M1.50312 0H16.4969C17.3281 0 18 0.638696 18 1.42593V11.8827C18 12.6699 17.3281 13.3086 16.4969 13.3086H1.50312C0.671875 13.3086 0 12.6699 0 11.8827V1.42593C0 0.638696 0.671875 0 1.50312 0ZM1.69062 11.8827H16.3094C16.4125 11.8827 16.4969 11.8025 16.4969 11.7045V1.60417C16.4969 1.50613 16.4125 1.42593 16.3094 1.42593H1.69062C1.5875 1.42593 1.50312 1.50613 1.50312 1.60417V11.7045C1.50312 11.8025 1.5875 11.8827 1.69062 11.8827ZM6 9.86265V10.1003C6 10.2964 5.83125 10.4568 5.625 10.4568H3.375C3.16875 10.4568 3 10.2964 3 10.1003V9.86265C3 9.66659 3.16875 9.50617 3.375 9.50617H5.625C5.83125 9.50617 6 9.66659 6 9.86265ZM12 10.1003V9.86265C12 9.66659 11.8313 9.50617 11.625 9.50617H7.375C7.16875 9.50617 7 9.66659 7 9.86265V10.1003C7 10.2964 7.16875 10.4568 7.375 10.4568H11.625C11.8313 10.4568 12 10.2964 12 10.1003Z" fill="#237BD3"/>
</svg>
