<svg width="42" height="41" viewBox="0 0 42 41" fill="none" xmlns="http://www.w3.org/2000/svg">
<path fill-rule="evenodd" clip-rule="evenodd" d="M33.8277 5.99984C33.8277 3.05454 31.5011 0.666504 28.6303 0.666504H13.037C10.1662 0.666504 7.83961 3.05454 7.83961 5.99984H7.83298C2.92285 5.99984 1.06023 5.99984 0.376708 6.89758C-0.0410545 7.44627 -0.0183555 8.33032 0.0182169 9.75469C0.0301806 10.2206 0.0436289 10.7444 0.0436289 11.3332C0.0436289 15.7518 3.53412 19.3332 7.83961 19.3332C8.10651 19.3332 8.36377 19.2956 8.62134 19.2579C8.6628 19.2518 8.70426 19.2458 8.74577 19.2399C10.4903 24.4719 14.6019 29.1852 19.5336 29.9039V37.9998H15.6357C14.9183 37.9998 14.3364 38.5971 14.3364 39.3332C14.3364 40.0692 14.9183 40.6665 15.6357 40.6665H26.0303C26.7477 40.6665 27.3297 40.0692 27.3297 39.3332C27.3297 38.5971 26.7477 37.9998 26.0303 37.9998H22.1324V29.9025C27.0654 29.1838 31.1756 24.4705 32.9202 19.2385C32.9608 19.2443 33.0013 19.2502 33.0418 19.2561L33.0428 19.2563C33.301 19.294 33.5589 19.3318 33.8264 19.3318C38.1319 19.3318 41.6224 15.7504 41.6224 11.3318C41.6226 10.7432 41.6361 10.2195 41.6482 9.75372C41.6851 8.32983 41.708 7.44603 41.2905 6.89747C40.6073 5.99984 38.7447 5.99984 33.8343 5.99984H33.8277ZM7.83961 16.6665C4.96883 16.6665 2.64227 14.2785 2.64227 11.3332C2.64227 8.64218 2.68682 8.64241 6.61748 8.66252H6.61757C6.98911 8.66442 7.39538 8.6665 7.83961 8.6665V16.6665ZM33.8277 8.6665V16.6665C36.6985 16.6665 39.025 14.2785 39.025 11.3332C39.025 8.64218 38.9805 8.64241 35.0498 8.66252C34.6782 8.66442 34.272 8.6665 33.8277 8.6665Z" fill="#388AF7"/>
</svg>
