<svg width="24" height="24" viewBox="0 0 24 24" fill="none" xmlns="http://www.w3.org/2000/svg">
<path fill-rule="evenodd" clip-rule="evenodd" d="M18.0625 19.875H5.68751C5.37651 19.875 5.12451 19.623 5.12451 19.313V9.75H18.6245V19.313C18.6245 19.623 18.3735 19.875 18.0625 19.875ZM5.68751 6.375H18.0625C18.3735 6.375 18.6245 6.627 18.6245 6.937V8.625H5.12451V6.937C5.12451 6.627 5.37651 6.375 5.68751 6.375ZM18.0625 5.25H16.3755V3.422C16.3755 3.189 16.1865 3 15.9535 3H15.6715C15.4385 3 15.2495 3.189 15.2495 3.422V5.25H8.49951V3.422C8.49951 3.189 8.31151 3 8.07851 3H7.79651C7.56351 3 7.37451 3.189 7.37451 3.422V5.25H5.68751C4.75551 5.25 3.99951 6.005 3.99951 6.937V19.313C3.99951 20.245 4.75551 21 5.68751 21H18.0625C18.9945 21 19.7495 20.245 19.7495 19.313V6.937C19.7495 6.005 18.9945 5.25 18.0625 5.25Z" fill="#237BD3"/>
</svg>
