<svg width="90" height="90" viewBox="0 0 90 90" fill="none" xmlns="http://www.w3.org/2000/svg">
<mask id="mask0" mask-type="alpha" maskUnits="userSpaceOnUse" x="70" y="22" width="15" height="23">
<path fill-rule="evenodd" clip-rule="evenodd" d="M70.2021 22.4779H84.7058V44.7799H70.2021V22.4779Z" fill="white"/>
</mask>
<g mask="url(#mask0)">
<path fill-rule="evenodd" clip-rule="evenodd" d="M81.2209 42.8994C81.0025 43.6908 81.4657 44.5075 82.2572 44.7258C83.0486 44.9442 83.8653 44.481 84.0836 43.6895C86.6076 34.5479 81.2248 25.0569 72.0832 22.5316C71.6875 22.4231 71.2851 22.4839 70.9542 22.6706C70.6247 22.8585 70.3653 23.1722 70.2567 23.5679C70.037 24.3594 70.5003 25.176 71.2917 25.3944C78.857 27.4816 83.3107 35.3341 81.2209 42.8994" fill="#A9DEF2"/>
</g>
<path fill-rule="evenodd" clip-rule="evenodd" d="M75.3517 45.2275C76.1432 45.4459 76.9598 44.9826 77.1782 44.1911C78.0822 40.9234 77.6547 37.4954 75.9791 34.54C74.3022 31.5845 71.5797 29.4576 68.3092 28.555C67.9148 28.4464 67.5124 28.5073 67.1816 28.6953C66.8507 28.8819 66.5926 29.1969 66.4827 29.5913C66.2644 30.3828 66.7276 31.1994 67.5191 31.4178C70.0232 32.1086 72.1104 33.7392 73.3955 36.0051C74.6807 38.271 75.0089 40.8956 74.3154 43.401C74.0983 44.1898 74.5616 45.0078 75.3517 45.2275" fill="#A9DEF2"/>
<path fill-rule="evenodd" clip-rule="evenodd" d="M17.401 30.9946C18.4664 31.9502 19.9051 32.2295 21.2498 31.7398C22.5865 31.254 25.8821 30.0549 27.2758 29.5467L22.4727 25.3008C21.451 24.3981 20.0785 24.1228 18.8105 24.5186C16.0218 25.3908 15.1721 28.9948 17.401 30.9946" fill="#A9DEF2"/>
<path fill-rule="evenodd" clip-rule="evenodd" d="M38.8014 25.3523C41.6404 24.3186 42.2373 20.8298 39.7478 19.0073C38.6519 18.2052 37.2595 18.053 36.03 18.5666C34.7872 19.0841 33.9269 20.1892 33.727 21.5194L32.7939 27.5388L35.0731 26.7089C35.2226 26.6546 38.325 25.5257 38.8014 25.3523" fill="#A9DEF2"/>
<path fill-rule="evenodd" clip-rule="evenodd" d="M29.375 32.7268L31.9096 39.6912C33.1285 39.2478 34.1741 38.868 35.3931 38.4246L32.8572 31.4589L29.375 32.7268Z" fill="#A9DEF2"/>
<mask id="mask1" mask-type="alpha" maskUnits="userSpaceOnUse" x="5" y="14" width="57" height="64">
<path fill-rule="evenodd" clip-rule="evenodd" d="M5.29395 14.5586H61.0377V77.8098H5.29395V14.5586Z" fill="white"/>
</mask>
<g mask="url(#mask1)">
<path fill-rule="evenodd" clip-rule="evenodd" d="M38.875 37.1569L36.3405 30.1925L52.0111 24.4881C52.9706 24.1387 54.0374 24.635 54.3855 25.5959L56.2874 30.8186L38.875 37.1569ZM31.9093 39.6915L29.3748 32.7271L32.857 31.4592L35.3929 38.4249C34.1739 38.8683 33.1283 39.2481 31.9093 39.6915V39.6915ZM48.2377 47.912V47.9146H57.2179V72.2503C57.2179 73.2721 56.3615 74.1033 55.3398 74.1033H42.3692V74.102H38.6884V74.1033H34.9574V74.102H31.2754V74.1033H18.2796C17.2579 74.1033 16.4267 73.2721 16.4267 72.2503V49.2712L20.1537 47.9146H29.212V47.912H48.2377ZM11.0147 47.2965L9.1128 42.0739C8.76339 41.1117 9.25839 40.0489 10.2206 39.6981L25.8925 33.9937L28.4271 40.9594L11.0147 47.2965ZM18.8103 24.5186C20.0783 24.1228 21.4508 24.3981 22.4725 25.3008L27.2756 29.5467C25.8819 30.0549 22.5864 31.254 21.2496 31.7397C19.9049 32.2295 18.4662 31.9502 17.4008 30.9946C15.1719 28.9947 16.0216 25.3908 18.8103 24.5186V24.5186ZM33.7265 21.5194C33.9264 20.188 34.7867 19.0842 36.0295 18.5667C37.2604 18.0531 38.6514 18.2053 39.7473 19.0074C42.2381 20.8299 41.6412 24.3187 38.8009 25.3524C38.3258 25.5258 35.2221 26.6547 35.0726 26.709L32.7934 27.5389L33.7265 21.5194ZM57.869 24.328C56.8208 21.448 53.6244 19.9564 50.7431 21.0059L44.9169 23.1262C44.9275 23.0693 44.9368 23.0124 44.9447 22.9542C45.3272 20.2687 44.2022 17.6746 41.9363 16.0162C39.7936 14.4492 37.0525 14.1236 34.6027 15.1467C32.1528 16.1684 30.4547 18.3456 30.063 20.9609L29.2305 26.3292L24.9264 22.5253C22.9371 20.7664 20.2384 20.1893 17.7052 20.9821C12.1265 22.7252 10.6005 29.8709 14.9258 33.7528C15.0039 33.823 15.0833 33.8905 15.1627 33.9567L8.954 36.2159C6.06738 37.2668 4.57974 40.4539 5.63062 43.3405L8.80047 52.0467L12.7459 50.6199V72.2503C12.7459 75.3156 15.2156 77.8105 18.2809 77.8105H55.3411C58.4063 77.8105 60.8999 75.3156 60.8999 72.2503V44.2087H30.3369L61.0375 33.0342L57.869 24.328Z" fill="#006DB7"/>
</g>
</svg>
