<svg width="18" height="23" viewBox="0 0 18 23" fill="none" xmlns="http://www.w3.org/2000/svg">
<g id="i_location copy">
<g id="location">
<path fill-rule="evenodd" clip-rule="evenodd" d="M1 9C1 4.582 4.582 1 9 1C13.418 1 17 4.582 17 9C17 12.3 10.3093 22.3407 9 22.3333C7.67 22.3407 1 12.3453 1 9ZM9 20.3333C7.89133 20.3393 2.33333 11.7873 2.33333 9C2.33333 5.31867 5.318 2.33333 9 2.33333C12.682 2.33333 15.6667 5.31867 15.6667 9C15.6667 11.75 10.0913 20.3393 9 20.3333ZM5.66667 9C5.66667 7.15867 7.15933 5.66667 9 5.66667C10.8407 5.66667 12.3333 7.15867 12.3333 9C12.3333 10.8413 10.8407 12.3333 9 12.3333C7.15933 12.3333 5.66667 10.8413 5.66667 9ZM7 9C7 10.1047 7.89533 11 9 11C10.1047 11 11 10.1047 11 9C11 7.89533 10.1047 7 9 7C7.89533 7 7 7.89533 7 9Z" fill="#B2BCC8"/>
<path d="M9 22.3333L9.0014 22.0833L8.99862 22.0833L9 22.3333ZM9 20.3333L9.00137 20.0833L8.99865 20.0833L9 20.3333ZM9 0.75C4.44393 0.75 0.75 4.44393 0.75 9H1.25C1.25 4.72007 4.72007 1.25 9 1.25V0.75ZM17.25 9C17.25 4.44393 13.5561 0.75 9 0.75V1.25C13.2799 1.25 16.75 4.72007 16.75 9H17.25ZM8.9986 22.5833C9.15138 22.5842 9.30339 22.5155 9.43603 22.4343C9.57554 22.349 9.72756 22.2286 9.88786 22.0828C10.2091 21.7908 10.5867 21.3757 10.9959 20.8755C11.8155 19.8735 12.7806 18.507 13.7027 17.0399C14.6248 15.5728 15.5077 13.9989 16.1612 12.5812C16.8088 11.1761 17.25 9.88521 17.25 9H16.75C16.75 9.76479 16.3548 10.9665 15.7071 12.3719C15.0651 13.7648 14.1935 15.3193 13.2793 16.7739C12.365 18.2286 11.412 19.5772 10.6089 20.5589C10.2067 21.0505 9.84677 21.4444 9.55148 21.7129C9.40353 21.8474 9.27755 21.9452 9.1752 22.0078C9.06599 22.0745 9.01229 22.0834 9.0014 22.0833L8.9986 22.5833ZM0.75 9C0.75 9.89607 1.18948 11.1922 1.83577 12.6C2.48763 14.0199 3.36871 15.5925 4.28962 17.057C5.21042 18.5213 6.17498 19.8837 6.99577 20.8823C7.40556 21.3808 7.78416 21.7944 8.10701 22.0854C8.26814 22.2307 8.42111 22.3506 8.56174 22.4356C8.69587 22.5166 8.84841 22.5842 9.00138 22.5833L8.99862 22.0833C8.98534 22.0834 8.92992 22.0738 8.82022 22.0076C8.71702 21.9452 8.59032 21.8479 8.44178 21.714C8.14529 21.4468 7.7846 21.0545 7.38204 20.5648C6.57815 19.5868 5.62583 18.2426 4.71288 16.7908C3.80004 15.3392 2.9305 13.7862 2.29017 12.3914C1.64427 10.9844 1.25 9.77659 1.25 9H0.75ZM2.08333 9C2.08333 9.75588 2.45286 10.8568 2.9912 12.0504C3.53511 13.2562 4.27003 14.596 5.03794 15.8451C5.80574 17.094 6.61036 18.2586 7.29556 19.1134C7.63753 19.54 7.95439 19.8952 8.22548 20.1459C8.36071 20.271 8.49034 20.3755 8.61071 20.4502C8.72427 20.5205 8.86044 20.5841 9.00135 20.5833L8.99865 20.0833C9.00098 20.0833 8.9638 20.0808 8.87415 20.0252C8.79129 19.9738 8.68784 19.8925 8.56499 19.7789C8.31991 19.5522 8.02066 19.2185 7.68567 18.8006C7.01694 17.9664 6.22417 16.82 5.46389 15.5832C4.70372 14.3467 3.97985 13.0262 3.44698 11.8448C2.90856 10.6511 2.58333 9.63779 2.58333 9H2.08333ZM9 2.08333C5.17991 2.08333 2.08333 5.18061 2.08333 9H2.58333C2.58333 5.45672 5.45609 2.58333 9 2.58333V2.08333ZM15.9167 9C15.9167 5.18061 12.8201 2.08333 9 2.08333V2.58333C12.5439 2.58333 15.4167 5.45672 15.4167 9H15.9167ZM8.99863 20.5833C9.13958 20.5841 9.27539 20.5194 9.38761 20.449C9.507 20.3741 9.63581 20.2692 9.77033 20.1437C10.04 19.8921 10.356 19.5356 10.6975 19.1077C11.3817 18.2502 12.1868 17.0822 12.9556 15.8311C13.7245 14.5797 14.461 13.2389 15.0062 12.035C15.5457 10.8437 15.9167 9.747 15.9167 9H15.4167C15.4167 9.628 15.0908 10.6362 14.5507 11.8287C14.0165 13.0085 13.2909 14.3303 12.5296 15.5693C11.7682 16.8084 10.9747 17.9586 10.3067 18.7958C9.972 19.2152 9.67335 19.5503 9.42925 19.7781C9.30687 19.8922 9.204 19.9739 9.12182 20.0255C9.03248 20.0816 8.99684 20.0833 9.00137 20.0833L8.99863 20.5833ZM9 5.41667C7.02129 5.41667 5.41667 7.02056 5.41667 9H5.91667C5.91667 7.29677 7.29737 5.91667 9 5.91667V5.41667ZM12.5833 9C12.5833 7.02056 10.9787 5.41667 9 5.41667V5.91667C10.7026 5.91667 12.0833 7.29677 12.0833 9H12.5833ZM9 12.5833C10.9787 12.5833 12.5833 10.9794 12.5833 9H12.0833C12.0833 10.7032 10.7026 12.0833 9 12.0833V12.5833ZM5.41667 9C5.41667 10.9794 7.02129 12.5833 9 12.5833V12.0833C7.29737 12.0833 5.91667 10.7032 5.91667 9H5.41667ZM9 10.75C8.0334 10.75 7.25 9.9666 7.25 9H6.75C6.75 10.2427 7.75726 11.25 9 11.25V10.75ZM10.75 9C10.75 9.9666 9.9666 10.75 9 10.75V11.25C10.2427 11.25 11.25 10.2427 11.25 9H10.75ZM9 7.25C9.9666 7.25 10.75 8.0334 10.75 9H11.25C11.25 7.75726 10.2427 6.75 9 6.75V7.25ZM7.25 9C7.25 8.0334 8.0334 7.25 9 7.25V6.75C7.75726 6.75 6.75 7.75726 6.75 9H7.25Z" fill="#B2BCC8"/>
</g>
</g>
</svg>
