<svg width="24" height="24" viewBox="0 0 24 24" fill="none" xmlns="http://www.w3.org/2000/svg">
<path fill-rule="evenodd" clip-rule="evenodd" d="M12.4383 11.3252C11.2393 10.9422 10.4443 10.7922 10.4443 9.91524C10.4443 9.29224 10.9843 8.70024 12.0183 8.70024C13.2113 8.70024 13.5933 9.36024 13.5933 10.1552H15.0183C15.0183 8.81224 14.1413 7.83724 12.7683 7.57524V6.00024H11.2683V7.58224C10.0843 7.82224 9.0183 8.61024 9.0183 9.92224C9.0183 11.6102 10.3533 12.0222 12.0183 12.5622C13.4283 13.0202 13.7063 13.3422 13.7063 14.1302C13.7063 14.8052 13.2043 15.3002 12.0183 15.3002C11.1193 15.3002 10.3313 14.6702 10.3313 13.7552H8.8313C8.8313 15.1652 9.8663 16.1552 11.2683 16.4252V18.0002H12.7683V16.4472C14.2983 16.2302 15.1683 15.3302 15.1683 14.1222C15.1683 12.7202 14.4633 11.9702 12.4383 11.3252Z" fill="#237BD3"/>
<path fill-rule="evenodd" clip-rule="evenodd" d="M11.9998 19.875C7.65676 19.875 4.12476 16.342 4.12476 12C4.12476 7.658 7.65676 4.125 11.9998 4.125C16.3428 4.125 19.8748 7.658 19.8748 12C19.8748 16.342 16.3428 19.875 11.9998 19.875ZM11.9998 3C7.03676 3 2.99976 7.038 2.99976 12C2.99976 16.962 7.03676 21 11.9998 21C16.9628 21 20.9998 16.962 20.9998 12C20.9998 7.038 16.9628 3 11.9998 3Z" fill="#237BD3"/>
</svg>
