<svg width="45" height="27" viewBox="0 0 45 27" fill="none" xmlns="http://www.w3.org/2000/svg">
<path d="M44.754 13.4473C44.7553 20.8367 38.7661 26.8285 31.3719 26.8308C23.9809 26.8331 17.9871 20.8434 17.9849 13.4528V13.4473C17.9825 6.05574 23.9737 0.0633634 31.366 0.0615243C38.7579 0.058827 44.7522 6.04888 44.7541 13.4399C44.754 13.4399 44.754 13.4433 44.754 13.4473Z" fill="#F9A000"/>
<path d="M13.4379 0.0616461C6.08888 0.10886 0.138672 6.08649 0.138672 13.4462C0.138672 20.8349 6.13484 26.8308 13.5238 26.8308C16.9899 26.8308 20.151 25.5088 22.5293 23.3429L22.5289 23.3416H22.5307C23.0186 22.8983 23.473 22.4198 23.8901 21.9081H21.1484C20.7819 21.4671 20.449 21.0064 20.1501 20.5306H24.8789C25.1678 20.0704 25.4271 19.5913 25.6594 19.0971H19.3703C19.1556 18.6369 18.9693 18.1684 18.8106 17.6916H26.219C26.6665 16.3563 26.9079 14.9288 26.9079 13.4462C26.9079 12.4619 26.8007 11.5033 26.5998 10.5796H18.4175C18.5196 10.1043 18.6469 9.6339 18.7987 9.17415H26.2108C26.0453 8.68276 25.8526 8.20498 25.6337 7.7402H19.3695C19.5952 7.25887 19.8514 6.78857 20.137 6.3347H24.863C24.548 5.83362 24.2003 5.35498 23.8246 4.90161H21.1896C21.5975 4.42211 22.0454 3.97009 22.5314 3.55031C20.1539 1.38351 16.9924 0.0615234 13.5246 0.0615234C13.4945 0.0616461 13.466 0.0616461 13.4379 0.0616461Z" fill="#EE0005"/>
<path d="M17.7759 17.667L17.9458 16.401C17.8533 16.401 17.7169 16.4442 17.5968 16.4442C17.126 16.4442 17.0735 16.1688 17.1041 15.965L17.4845 13.3807H18.2004L18.3734 11.9794H17.6986L17.8362 11.1092H16.4823C16.453 11.1418 15.6831 16.0086 15.6831 16.6C15.6831 17.4774 16.1299 17.8683 16.7614 17.8625C17.2548 17.8575 17.6405 17.7074 17.7759 17.667Z" fill="white"/>
<path fill-rule="evenodd" clip-rule="evenodd" d="M20.5426 17.859C19.4669 17.859 18.2051 17.3582 18.2051 15.2527C18.2051 13.4283 19.2118 11.8151 20.5732 11.8147C22.0587 11.8147 22.5033 13.0111 22.5033 13.9922C22.5033 14.3855 22.3265 15.3517 22.3265 15.3517H19.5753C19.5753 15.3517 19.3206 16.5451 20.7738 16.5451C21.456 16.5451 22.2111 16.1767 22.2111 16.1767L21.9722 17.6138C21.9722 17.6138 21.5359 17.859 20.5426 17.859ZM21.2036 14.1347C21.2183 13.9461 21.2805 13.1482 20.5789 13.1482C19.8404 13.1482 19.6984 14.0722 19.6988 14.1695H21.2013C21.2013 14.1633 21.2023 14.1514 21.2036 14.1347Z" fill="white"/>
<path d="M29.1491 17.667L29.3915 16.0413C29.3915 16.0413 28.7272 16.4097 28.2717 16.4097C27.3117 16.4097 26.9269 15.6009 26.9269 14.7355C26.9269 12.9759 27.7528 12.0078 28.6731 12.0078C29.3624 12.0078 29.9161 12.4347 29.9161 12.4347L30.1367 10.8574C30.1367 10.8574 29.316 10.4909 28.6129 10.4909C27.0501 10.4909 25.5293 11.9814 25.5293 14.7857C25.5293 16.6423 26.3508 17.8707 27.966 17.8707C28.4222 17.871 29.1491 17.667 29.1491 17.667Z" fill="white"/>
<path fill-rule="evenodd" clip-rule="evenodd" d="M8.69211 12.1654C8.69211 12.1654 9.40367 11.8377 10.3318 11.8377C10.8108 11.8377 12.1906 11.8937 12.1906 13.6341L11.6587 17.7381H10.4672L10.5118 17.1682C10.5089 17.1686 10.4997 17.18 10.4838 17.1996C10.3755 17.3338 9.95672 17.8528 9.1233 17.8528C8.62312 17.8528 7.81689 17.5525 7.81689 16.2468C7.81689 14.5879 9.04684 14.0382 10.2169 14.0382C10.4012 14.0382 10.7982 14.0751 10.7982 14.0751C10.7982 14.0751 10.8431 13.974 10.8431 13.7005C10.8431 13.2491 10.475 13.1872 9.97096 13.1872C9.08384 13.1872 8.49601 13.4491 8.49601 13.4491L8.69211 12.1654ZM9.66397 16.6036C10.479 16.6036 10.648 15.4283 10.6222 15.1774C10.6134 15.176 10.6054 15.1736 10.5957 15.1706C10.5616 15.1601 10.5068 15.1433 10.3278 15.1433C9.3355 15.1433 9.13415 15.6331 9.13415 16.0404C9.13415 16.2496 9.24376 16.6036 9.66397 16.6036Z" fill="white"/>
<path d="M13.4576 17.8215C13.762 17.8215 15.5047 17.9074 15.5047 15.9281C15.5047 14.0773 13.8918 14.4424 13.8918 13.6988C13.8918 13.33 14.1548 13.2119 14.6351 13.2119C14.826 13.2119 15.5602 13.2796 15.5602 13.2796L15.7314 11.9633C15.7314 11.9633 15.2562 11.8472 14.4831 11.8472C13.4808 11.8472 12.4653 12.2856 12.4653 13.7914C12.4653 15.4987 14.1599 15.326 14.1599 16.0446C14.1599 16.5243 13.686 16.5637 13.3209 16.5637C12.6902 16.5637 12.122 16.3252 12.1193 16.3363L11.939 17.6377C11.9705 17.6499 12.3216 17.8215 13.4576 17.8215Z" fill="white"/>
<path fill-rule="evenodd" clip-rule="evenodd" d="M40.0692 12.6507L40.3606 10.657L41.7186 10.6538L40.6839 17.7387H39.3675L39.4264 17.2077C39.4264 17.2077 38.9778 17.8298 38.1668 17.8298C37.039 17.8298 36.4883 16.6348 36.4883 15.4139C36.4883 13.5224 37.5217 11.877 38.7625 11.877C39.5595 11.877 40.0692 12.6507 40.0692 12.6507ZM38.6444 16.3824C39.3778 16.3824 39.7325 15.3324 39.7325 14.5461C39.7325 13.6778 39.4822 13.3084 38.9943 13.3083C38.4004 13.3083 37.9295 14.072 37.9295 15.2262C37.9295 15.9324 38.157 16.3824 38.6444 16.3824Z" fill="white"/>
<path d="M3.00243 17.7448L3.82745 12.396L3.94756 17.7448H4.88043L6.62001 12.396L5.84915 17.7448H7.23457L8.3025 10.6523H6.1594L4.82511 15.0033L4.75565 10.6523H2.781L1.69824 17.7448H3.00243Z" fill="white"/>
<path d="M23.8571 17.7549C24.2511 15.2896 24.3241 13.2868 25.2649 13.6519C25.4296 12.6982 25.5881 12.3293 25.7671 11.925C25.7671 11.925 25.6833 11.9054 25.5059 11.9054C24.901 11.9054 24.4515 12.8168 24.4515 12.8168L24.5712 11.9801H23.3106L22.4673 17.7549H23.8571Z" fill="white"/>
<path fill-rule="evenodd" clip-rule="evenodd" d="M30.633 12.1654C30.633 12.1654 31.3441 11.8377 32.2722 11.8377C32.7526 11.8377 34.132 11.8937 34.1315 13.6341L33.6 17.7381H32.4076L32.4517 17.1682C32.449 17.1686 32.4402 17.1795 32.425 17.1984C32.3187 17.3308 31.8996 17.8528 31.0637 17.8528C30.564 17.8528 29.7573 17.5525 29.7573 16.2468C29.7573 14.5879 30.9859 14.0382 32.1564 14.0382C32.3421 14.0382 32.7391 14.0751 32.7391 14.0751C32.7391 14.0751 32.7845 13.974 32.7845 13.7005C32.7845 13.2491 32.4154 13.1872 31.9119 13.1872C31.0239 13.1872 30.4374 13.4491 30.4374 13.4491L30.633 12.1654ZM31.6044 16.6036C32.4207 16.6036 32.5889 15.4283 32.5631 15.1774C32.5542 15.176 32.5461 15.1735 32.5363 15.1705C32.5023 15.1601 32.4476 15.1433 32.2678 15.1433C31.2772 15.1433 31.0759 15.6331 31.0759 16.0404C31.0759 16.2496 31.1847 16.6036 31.6044 16.6036Z" fill="white"/>
<path d="M35.2197 17.7549C35.6141 15.2896 35.6871 13.2868 36.6278 13.6519C36.7925 12.6982 36.951 12.3293 37.131 11.925C37.131 11.925 37.0458 11.9054 36.8694 11.9054C36.2628 11.9054 35.8147 12.8168 35.8147 12.8168L35.9352 11.9801H34.6739L33.8301 17.7545H35.2198L35.2197 17.7549Z" fill="white"/>
</svg>
