<svg width="21" height="19" viewBox="0 0 21 19" fill="none" xmlns="http://www.w3.org/2000/svg">
<path fill-rule="evenodd" clip-rule="evenodd" d="M3.0999 0C1.6113 0 0.399902 1.2108 0.399902 2.7V15.3C0.399902 17.1198 1.8801 18.6 3.6999 18.6H18.3999V13.8H20.1999V8.4H18.3999V3.6H3.9999H3.0999C2.6037 3.6 2.1999 3.1962 2.1999 2.7C2.1999 2.2038 2.6037 1.8 3.0999 1.8H12.9999V3H14.7999V0H3.0999ZM2.1999 15.3V5.2458C2.2767 5.2728 2.3577 5.2878 2.4375 5.3076C2.4897 5.3214 2.5401 5.3388 2.5929 5.349C2.7573 5.3802 2.9259 5.4 3.0999 5.4H3.9999H16.5999V8.4H15.0999C13.6107 8.4 12.3999 9.6114 12.3999 11.1C12.3999 12.5886 13.6107 13.8 15.0999 13.8H16.5999V16.8H3.6999C2.8731 16.8 2.1999 16.1268 2.1999 15.3ZM14.1999 11.1C14.1999 10.6038 14.6037 10.2 15.0999 10.2H16.5999H18.3999V12H16.5999H15.0999C14.6037 12 14.1999 11.5962 14.1999 11.1Z" fill="#388AF7"/>
</svg>
