<svg width="33" height="31" viewBox="0 0 33 31" fill="none" xmlns="http://www.w3.org/2000/svg">
<path fill-rule="evenodd" clip-rule="evenodd" d="M4.5 0C2.019 0 0 2.018 0 4.5V25.5C0 28.533 2.467 31 5.5 31H30V23H33V14H30V6H6H4.5C3.673 6 3 5.327 3 4.5C3 3.673 3.673 3 4.5 3H21V5H24V0H4.5ZM3 25.5V8.743C3.128 8.788 3.263 8.813 3.396 8.846C3.483 8.869 3.567 8.898 3.655 8.915C3.929 8.967 4.21 9 4.5 9H6H27V14H24.5C22.018 14 20 16.019 20 18.5C20 20.981 22.018 23 24.5 23H27V28H5.5C4.122 28 3 26.878 3 25.5ZM23 18.5C23 17.673 23.673 17 24.5 17H27H30V20H27H24.5C23.673 20 23 19.327 23 18.5Z" fill="#388AF7"/>
</svg>
