<svg width="120" height="160" viewBox="0 0 120 160" fill="none" xmlns="http://www.w3.org/2000/svg">
<mask id="mask0" mask-type="alpha" maskUnits="userSpaceOnUse" x="93" y="1" width="27" height="31">
<path fill-rule="evenodd" clip-rule="evenodd" d="M93.679 1.03613H119.661V31.3499H93.679V1.03613Z" fill="white"/>
</mask>
<g mask="url(#mask0)">
<path fill-rule="evenodd" clip-rule="evenodd" d="M115.084 28.8988C114.969 30.1331 115.872 31.2234 117.106 31.34C118.339 31.4554 119.431 30.5514 119.546 29.3183C120.885 15.0668 110.38 2.38455 96.13 1.04626C95.514 0.987975 94.9323 1.18455 94.4912 1.5514C94.0489 1.91712 93.7472 2.45197 93.6889 3.06683C93.5735 4.30112 94.4763 5.39255 95.7106 5.50797C107.501 6.61426 116.192 17.1068 115.084 28.8988Z" fill="#A9DEF2"/>
</g>
<path fill-rule="evenodd" clip-rule="evenodd" d="M106.097 34.2758C107.305 34.3909 108.373 33.491 108.487 32.2609C108.957 27.1844 107.45 22.2183 104.247 18.283C101.044 14.3477 96.5325 11.9148 91.5428 11.4387C90.9396 11.3806 90.3701 11.5765 89.937 11.941C89.5051 12.3066 89.2096 12.8397 89.1526 13.4525C89.0395 14.6826 89.9236 15.7692 91.1321 15.8854C94.9536 16.251 98.4114 18.1156 100.867 21.1328C103.322 24.15 104.479 27.952 104.117 31.8429C104.004 33.0696 104.891 34.1585 106.097 34.2758Z" fill="#A9DEF2"/>
<mask id="mask1" mask-type="alpha" maskUnits="userSpaceOnUse" x="0" y="1" width="120" height="159">
<path fill-rule="evenodd" clip-rule="evenodd" d="M0 160H120V1.14282H0V160Z" fill="white"/>
</mask>
<g mask="url(#mask1)">
<path fill-rule="evenodd" clip-rule="evenodd" d="M22.8572 129.143H90.2858V43.4286H22.8572V129.143Z" fill="#FEFEFE"/>
<path fill-rule="evenodd" clip-rule="evenodd" d="M65.5619 36.5714H63.3143C62.0719 36.5714 61.0667 35.5492 61.0667 34.2857C61.0667 33.0222 62.0719 31.9999 63.3143 31.9999H65.5619C66.8044 31.9999 67.8096 33.0222 67.8096 34.2857C67.8096 35.5492 66.8044 36.5714 65.5619 36.5714ZM56.5715 36.5714H47.581C46.3374 36.5714 45.3334 35.5492 45.3334 34.2857C45.3334 33.0222 46.3374 31.9999 47.581 31.9999H56.5715C57.8139 31.9999 58.8191 33.0222 58.8191 34.2857C58.8191 35.5492 57.8139 36.5714 56.5715 36.5714ZM84.8782 29.7142H28.2625C25.2825 29.7142 22.8572 32.1806 22.8572 35.2111V38.8571H90.2858V35.2111C90.2858 32.1806 87.8605 29.7142 84.8782 29.7142Z" fill="#A9DEF2"/>
<path fill-rule="evenodd" clip-rule="evenodd" d="M55.9999 148.571C58.5211 148.571 60.5713 146.521 60.5713 144C60.5713 141.479 58.5211 139.429 55.9999 139.429C53.4787 139.429 51.4285 141.479 51.4285 144C51.4285 146.521 53.4787 148.571 55.9999 148.571Z" fill="#A9DEF2"/>
<path fill-rule="evenodd" clip-rule="evenodd" d="M56.5715 136C61.5298 136 65.5619 140.1 65.5619 145.143C65.5619 150.185 61.5298 154.286 56.5715 154.286C51.6132 154.286 47.581 150.185 47.581 145.143C47.581 140.1 51.6132 136 56.5715 136ZM22.8572 151.074C22.8572 154.105 25.2825 156.571 28.2625 156.571H84.8805C87.8605 156.571 90.2858 154.105 90.2858 151.074V133.714H22.8572V151.074Z" fill="#A9DEF2"/>
<path fill-rule="evenodd" clip-rule="evenodd" d="M90.3529 38.6284H22.7898V35.0433C22.7898 32.0633 25.2188 29.638 28.2059 29.638H84.9345C87.9228 29.638 90.3529 32.0633 90.3529 35.0433V38.6284ZM22.7898 128.534H90.3529V43.1248H22.7898V128.534ZM90.3529 150.1C90.3529 153.08 87.9228 155.505 84.9368 155.505H28.2059C25.2188 155.505 22.7898 153.08 22.7898 150.1V133.029H90.3529V150.1ZM84.9368 25.1428H28.2059C22.737 25.1428 18.2856 29.5864 18.2856 35.0433V150.097C18.2856 155.556 22.737 160 28.2059 160H84.9345C90.4046 160 94.8571 155.556 94.8571 150.1V35.0433C94.8571 29.5864 90.4046 25.1428 84.9368 25.1428Z" fill="#006DB7"/>
<path fill-rule="evenodd" clip-rule="evenodd" d="M56 140.571C58.5212 140.571 60.5715 142.622 60.5715 145.143C60.5715 147.664 58.5212 149.714 56 149.714C53.4789 149.714 51.4286 147.664 51.4286 145.143C51.4286 142.622 53.4789 140.571 56 140.571ZM56 154.286C61.0424 154.286 65.1429 150.185 65.1429 145.143C65.1429 140.101 61.0424 136 56 136C50.9577 136 46.8572 140.101 46.8572 145.143C46.8572 150.185 50.9577 154.286 56 154.286Z" fill="#006DB7"/>
<path fill-rule="evenodd" clip-rule="evenodd" d="M56.0001 32H46.8572C45.5938 32 44.5715 33.0222 44.5715 34.2857C44.5715 35.5492 45.5938 36.5714 46.8572 36.5714H56.0001C57.2636 36.5714 58.2858 35.5492 58.2858 34.2857C58.2858 33.0222 57.2636 32 56.0001 32Z" fill="#006DB7"/>
<path fill-rule="evenodd" clip-rule="evenodd" d="M65.143 32H62.8572C61.5938 32 60.5715 33.0222 60.5715 34.2857C60.5715 35.5492 61.5938 36.5714 62.8572 36.5714H65.143C66.4065 36.5714 67.4287 35.5492 67.4287 34.2857C67.4287 33.0222 66.4065 32 65.143 32Z" fill="#006DB7"/>
<path fill-rule="evenodd" clip-rule="evenodd" d="M76.1117 63.2289C77.0581 63.7411 78.1451 64.0001 79.3439 64.0001C80.3674 64.0001 81.4879 63.8112 82.6728 63.437C82.9495 63.3499 83.1754 63.1633 83.3079 62.9101C83.4405 62.6568 83.4647 62.3685 83.376 62.0971C83.286 61.8246 83.0935 61.6041 82.833 61.4741C82.5748 61.344 82.2809 61.3214 82.01 61.4085C80.0216 62.0349 78.3975 62.0213 77.1791 61.3712C75.7164 60.591 75.283 59.0928 75.2795 59.0793C75.1308 58.5196 74.5418 58.177 73.9574 58.3172C73.3787 58.4653 73.0283 59.0476 73.177 59.6163C73.2416 59.8583 73.8767 62.0202 76.1117 63.2289Z" fill="#006DB7"/>
<path fill-rule="evenodd" clip-rule="evenodd" d="M33.8977 64.5797C35.0861 64.954 36.2053 65.1429 37.2266 65.1429C38.4266 65.1429 39.5136 64.8839 40.4588 64.3716C42.6846 63.1672 43.3278 61.0016 43.3947 60.7562C43.5422 60.1908 43.1941 59.6107 42.6177 59.4625C42.0391 59.3166 41.4466 59.6548 41.2933 60.2146C41.246 60.3717 40.7942 61.7661 39.3914 62.5147C38.1718 63.165 36.5465 63.1774 34.5639 62.5509C34.2884 62.4616 33.9945 62.4842 33.7363 62.6131C33.4758 62.7432 33.2844 62.966 33.1945 63.2396C33.1069 63.511 33.1311 63.8005 33.2637 64.0538C33.3962 64.306 33.6222 64.4938 33.8977 64.5797Z" fill="#006DB7"/>
<path fill-rule="evenodd" clip-rule="evenodd" d="M38.857 70.8572C36.9633 70.8572 35.4285 72.3918 35.4285 74.2851C35.4285 76.1785 36.9633 77.7143 38.857 77.7143C40.7507 77.7143 42.2856 76.1785 42.2856 74.2851C42.2856 72.3918 40.7507 70.8572 38.857 70.8572Z" fill="#006DB7"/>
<path fill-rule="evenodd" clip-rule="evenodd" d="M75.4286 77.7143C77.3223 77.7143 78.8571 76.1797 78.8571 74.2863C78.8571 72.393 77.3223 70.8572 75.4286 70.8572C73.5349 70.8572 72 72.393 72 74.2863C72 76.1797 73.5349 77.7143 75.4286 77.7143Z" fill="#006DB7"/>
<path fill-rule="evenodd" clip-rule="evenodd" d="M45.4212 94.1188C45.7639 94.1946 48.893 94.8571 53.0912 94.8571C58.8352 94.8571 66.7311 93.5914 71.7374 87.5629C71.9247 87.3378 72.0178 87.051 71.9973 86.7535C71.9769 86.4561 71.8475 86.1847 71.633 85.9903C71.4196 85.7936 71.145 85.6976 70.8635 85.7166C70.5764 85.7355 70.3142 85.8718 70.1235 86.1006C66.1285 90.9072 59.7909 92.244 55.1784 92.5201C50.0734 92.8247 45.9024 91.9418 45.8604 91.9323C45.2839 91.8079 44.7164 92.1942 44.5938 92.7974C44.4746 93.3983 44.8458 93.9908 45.4212 94.1188Z" fill="#006DB7"/>
<path fill-rule="evenodd" clip-rule="evenodd" d="M94.536 97.8841C96.3669 90.1886 105.622 89.0985 112.192 88.8926C114.977 88.8044 114.99 84.4845 112.192 84.5727C107.314 84.7254 102.261 85.1461 97.8855 87.4972C94.2748 89.4377 91.3114 92.7048 90.3528 96.7363C89.7088 99.4391 93.892 100.593 94.536 97.8841Z" fill="#006DB7"/>
<path fill-rule="evenodd" clip-rule="evenodd" d="M21.3177 97.3694C16.9218 91.1045 9.87401 87.2113 2.14919 86.86C-0.719897 86.7299 -0.712893 91.1299 2.14919 91.26C8.21302 91.5353 14.0061 94.6568 17.4681 99.5902C19.0906 101.902 22.9565 99.7054 21.3177 97.3694Z" fill="#006DB7"/>
</g>
</svg>
