<svg width="40" height="24" viewBox="0 0 40 24" fill="none" xmlns="http://www.w3.org/2000/svg">
<path fill-rule="evenodd" clip-rule="evenodd" d="M38 0H2C0.895625 0 0 0.895625 0 2V22C0 23.1044 0.895625 24 2 24H38C39.1044 24 40 23.1044 40 22V2C40 0.895625 39.1044 0 38 0ZM37 17C34.7906 17 33 18.7906 33 21H7C7 18.7906 5.20937 17 3 17V7C5.20937 7 7 5.20937 7 3H33C33 5.20937 34.7906 7 37 7V17ZM20 6C17.2388 6 15 8.68625 15 12C15 15.3131 17.2381 18 20 18C22.7606 18 25 15.3144 25 12C25 8.68625 22.7612 6 20 6Z" fill="white"/>
</svg>
