<svg width="20" height="20" viewBox="0 0 20 20" fill="none" xmlns="http://www.w3.org/2000/svg">
<g id="i_phone">
<path id="Shape" d="M15 19.3333C13.8333 19.3333 12.5 19 11 18.25C9.16666 17.3333 7.33333 16 5.58333 14.25C3.91666 12.5833 2.49999 10.6666 1.58333 8.83329C0.16666 5.91663 0.0833262 3.49996 1.49999 2.16663C1.83333 1.83329 2.33333 1.83329 2.66666 2.16663C2.99999 2.49996 2.99999 2.99996 2.66666 3.33329C1.83333 4.16663 1.99999 5.99996 3.08333 8.16663C3.91666 9.83329 5.16666 11.5833 6.74999 13.1666C8.33333 14.75 10.0833 16 11.75 16.8333C13.9167 17.9166 15.75 18.0833 16.5833 17.25C16.9167 16.9166 17.4167 16.9166 17.75 17.25C18.0833 17.5833 18.0833 18.0833 17.75 18.4166C17.0833 19 16.1667 19.3333 15 19.3333Z" fill="#B2BCC8"/>
<path id="Shape_2" d="M6.5 8.91663C6.16667 8.91663 5.91667 8.74996 5.75 8.41663C5.5 7.99996 5.66667 7.49996 6.08333 7.33329L8 6.41663C8.33333 6.24996 8.75 5.83329 8.66667 5.33329C8.66667 5.08329 8.5 4.91663 8.33333 4.74996L5.58333 1.91663C5.33333 1.66663 4.91667 1.58329 4.5 1.66663C4.33333 1.74996 4.16667 1.83329 4 1.91663L2.66667 3.33329C2.33333 3.66663 1.83333 3.66663 1.5 3.33329C1.16667 2.99996 1.16667 2.49996 1.5 2.16663L2.83333 0.833294C3.16667 0.499961 3.58333 0.249961 4 0.166628C5 -0.0833722 6 0.166628 6.75 0.833294L9.5 3.58329C9.91667 3.99996 10.1667 4.58329 10.25 5.16663C10.4167 6.24996 9.75 7.41663 8.66667 7.99996L6.75 8.91663C6.75 8.83329 6.58333 8.91663 6.5 8.91663Z" fill="#B2BCC8"/>
<path id="Shape_3" d="M17.0833 18.5834C16.8333 18.5834 16.6667 18.5 16.5 18.3334C16.1667 18 16.1667 17.5 16.5 17.1667L17.8333 15.8334C18 15.6667 18.0833 15.5834 18.0833 15.3334C18.1667 14.9167 18.0833 14.5 17.8333 14.25L15.0833 11.5C14.9167 11.3334 14.6667 11.25 14.5 11.1667C14 11.0834 13.5833 11.4167 13.4167 11.8334L12.5 13.75C12.3333 14.1667 11.8333 14.3334 11.4167 14.0834C11 13.9167 10.8333 13.4167 11.0833 13L12 11.0834C12.5833 10 13.6667 9.33338 14.8333 9.50004C15.4167 9.58338 15.9167 9.83338 16.3333 10.25L19.0833 13C19.8333 13.75 20.0833 14.75 19.75 15.75C19.5833 16.1667 19.4167 16.5834 19.0833 16.9167L17.6667 18.3334C17.5 18.5 17.3333 18.5834 17.0833 18.5834Z" fill="#B2BCC8"/>
<path id="Shape_4" d="M11.75 14.1667C11.5833 14.1667 11.4167 14.0833 11.25 14C10.25 13.25 9.25 12.4167 8.25 11.5C7.25 10.5 6.41667 9.50002 5.75 8.50002C5.5 8.16668 5.58333 7.66668 6 7.33335C6.41667 7.08335 6.91667 7.16668 7.16667 7.50002C7.83333 8.41668 8.58333 9.41668 9.5 10.25C10.4167 11.0833 11.3333 11.9167 12.25 12.5833C12.6667 12.8333 12.75 13.3333 12.4167 13.75C12.3333 14.0833 12.0833 14.1667 11.75 14.1667Z" fill="#B2BCC8"/>
</g>
</svg>
