<svg width="24" height="24" viewBox="0 0 24 24" fill="none" xmlns="http://www.w3.org/2000/svg">
<mask id="mask0" mask-type="alpha" maskUnits="userSpaceOnUse" x="3" y="3" width="18" height="17">
<path fill-rule="evenodd" clip-rule="evenodd" d="M3 3.00009H20.4837V19.5322H3V3.00009Z" fill="white"/>
</mask>
<g mask="url(#mask0)">
<path fill-rule="evenodd" clip-rule="evenodd" d="M19.3596 16.682L19.3094 16.789L19.2118 16.7218L19.3085 16.789C18.7012 17.6852 18.1754 18.4583 15.7767 18.5095C12.7773 18.5095 9.70783 15.7915 8.14467 14.1715L8.11625 14.143C5.53278 11.768 4.10888 9.39199 4.11078 7.45557C4.16667 5.14967 5.02593 4.62767 5.93541 4.07441L6.02446 4.03651C6.1893 4.00809 6.33236 4.04693 6.44509 4.13599C6.86667 4.48367 8.57004 6.08662 9.08162 6.57072L9.13657 6.61904C9.13751 6.61999 9.35067 6.80757 9.36962 6.98851L9.3753 7.04346L9.35825 7.09556C9.34688 7.13346 9.32225 7.17514 9.28814 7.21872C9.03141 7.54462 8.48478 8.13578 7.78941 8.84062L7.53172 9.10304L8.0973 10.111C8.99257 11.5018 9.95983 12.5941 11.0503 13.441C11.991 14.1724 13.5229 14.9587 13.6953 15.0459L14.0515 15.2259L14.3461 14.9663C14.8596 14.5135 15.5408 13.9356 15.9538 13.6324V13.4846L16.239 13.5111C16.3944 13.5254 16.5639 13.6694 16.6104 13.7186L16.6587 13.7679C17.2574 14.3335 18.8973 15.8938 19.2412 16.268C19.3369 16.3694 19.3824 16.5077 19.3691 16.645L19.3596 16.682ZM17.5056 13.1019L17.4649 13.063C17.3313 12.9247 16.8614 12.4861 16.2144 12.4861C15.9102 12.4861 15.6109 12.5846 15.3485 12.7703C14.9695 13.0375 14.4134 13.5036 14.0127 13.8475L13.8781 13.9649L13.7199 13.8797C13.1411 13.5651 12.332 13.099 11.7665 12.6595C10.7784 11.8921 9.89351 10.8907 9.05983 9.59946L8.87225 9.2622L9.00583 9.12388C9.38762 8.72883 9.90204 8.1822 10.1862 7.8203C10.8314 7.00272 10.2715 6.18325 9.88593 5.86399C9.85941 5.83841 7.69846 3.79588 7.18878 3.37714C6.89793 3.13367 6.52372 3.00104 6.13625 3.00104C6.12109 3.00009 6.10783 3.00009 6.09362 3.00009C5.79804 3.00009 5.60193 3.07683 5.53467 3.10335L5.31488 3.22557C4.31635 3.83283 3.06867 4.58978 2.99951 7.44325C2.99762 10.2768 5.34709 13.0394 7.31951 14.8564C9.38478 16.9927 12.5206 19.5326 15.7672 19.5326C18.8016 19.4663 19.6059 18.2821 20.252 17.3309L20.3847 17.1159C20.5126 16.8269 20.6026 16.1657 20.09 15.6058C19.8295 15.3235 18.9115 14.4339 17.5056 13.1019Z" fill="#237BD3"/>
</g>
</svg>
