<svg width="21" height="21" viewBox="0 0 21 21" fill="none" xmlns="http://www.w3.org/2000/svg">
<g id="i_quoctich">
<path id="Shape" fill-rule="evenodd" clip-rule="evenodd" d="M20.5633 7.90283C20.5732 7.66045 20.5061 7.41351 20.3472 7.16404C18.9703 3.00781 15.0499 0 10.438 0C9.20382 0 8.01922 0.216578 6.91937 0.611783L6.89306 0.59306L6.86776 0.629241C2.86511 2.09089 0 5.93592 0 10.4378C0 16.1935 4.68249 20.876 10.438 20.876C16.1935 20.876 20.876 16.1935 20.876 10.4378C20.876 9.5636 20.7665 8.71475 20.5633 7.90283ZM18.9951 7.9256C18.8426 8.19101 18.3047 8.67907 17.9671 8.98496C17.069 9.7984 15.9714 10.7925 16.0349 11.9781C15.8924 12.0171 15.711 12.0563 15.5724 12.0861C14.9044 12.2298 14.1477 12.3928 13.7335 12.9659C13.6212 13.1217 12.9798 13.0172 12.5648 12.8227C12.4863 12.7861 12.4034 12.7597 12.3181 12.7442C12.4623 12.6926 12.6047 12.6364 12.7452 12.5757C13.3272 12.3207 14.6947 11.3392 14.6259 10.4236C14.5963 10.0284 14.3215 9.70478 13.9258 9.59826C11.8754 9.04822 11.1449 7.15392 11.1161 7.077L11.0559 6.91128C11.0493 6.87276 11.0429 6.83422 11.0366 6.79565L11.0366 6.79513C10.9313 6.15336 10.7355 4.96003 9.702 4.8849C9.37851 4.86167 9.11651 4.89263 8.88558 4.91992L8.88426 4.92007L8.88347 4.92017C8.57944 4.95631 8.31662 4.98755 7.86159 4.8973C7.8112 4.88863 7.76185 4.87472 7.71434 4.85581C7.67613 4.74904 7.65614 4.45251 7.63995 4.21113L7.6393 4.2014L7.6393 4.20139V4.20138C7.62478 3.98567 7.60835 3.74137 7.57645 3.46146C7.49649 2.76011 7.66576 2.26117 7.86134 1.8986C8.69688 1.64589 9.56509 1.51759 10.438 1.51782C14.4839 1.51807 17.9074 4.22682 18.9951 7.9256ZM2.80186 11.3959C2.55188 11.3109 2.05218 11.236 1.55349 11.2082C1.84598 14.6079 4.05199 17.4674 7.08737 18.7021L7.18883 18.3978C6.98794 18.3307 6.81387 18.395 6.76124 18.4365C6.95631 18.2834 7.35835 17.4938 7.49295 17.1289C7.47806 17.001 7.39896 16.7353 7.36291 16.6142L7.36265 16.6133C7.32748 16.4954 7.29889 16.3987 7.27941 16.3099C7.11394 16.0665 6.59375 15.4628 6.43207 15.333C5.91314 14.9874 5.99512 14.3099 6.06748 13.7122L6.06909 13.6987C6.08351 13.5781 6.09816 13.4555 6.1067 13.3479C5.95626 13.2482 5.65971 13.1186 5.48227 13.0411L5.47569 13.0382C5.37423 12.9942 5.2748 12.9509 5.17992 12.9064C4.94816 13.1943 4.46667 13.6644 3.76533 13.3638C2.91596 13 2.85195 12.1013 2.8097 11.5065L2.80186 11.3959ZM7.29484 14.0849C7.34494 14.1183 7.38517 14.1553 7.41755 14.1925C7.3783 14.1548 7.33735 14.1189 7.29484 14.0849ZM8.19405 19.0713C8.91134 19.2578 9.66304 19.3577 10.438 19.3577C15.3563 19.3577 19.358 15.3563 19.3572 10.438C19.3572 10.2209 19.3466 10.0066 19.3311 9.79359C19.2153 9.90188 19.0986 10.0076 18.9855 10.1101C18.3717 10.666 17.4442 11.506 17.5613 11.9675C17.6357 12.2612 17.5922 12.559 17.4391 12.8062C17.1304 13.3034 16.5288 13.4329 15.8912 13.57L15.8867 13.571C15.5995 13.633 15.0721 13.7468 14.9566 13.8633C14.5882 14.3731 14.0318 14.5639 13.4471 14.5639C12.96 14.5639 12.453 14.4316 12.0183 14.2415C11.9675 14.2443 11.8954 14.2509 11.8427 14.2557C11.4475 14.2927 10.8514 14.3465 10.4418 13.923C10.2751 13.7502 10.0894 13.441 10.1514 12.9494C10.2867 11.867 11.113 11.567 11.7165 11.3478L11.7376 11.3402C11.8657 11.2937 12 11.2449 12.1357 11.1852C12.3305 11.0996 12.5491 10.9428 12.7331 10.7839C10.7955 9.93047 9.94692 8.20923 9.73995 7.72269C9.61623 7.51522 9.57372 7.25689 9.53855 7.04208L9.53777 7.03729C9.51269 6.88478 9.46224 6.57792 9.39965 6.3969C9.29263 6.40121 9.18585 6.4136 9.06314 6.42828C8.70412 6.47104 8.2573 6.52392 7.56683 6.38729C6.24663 6.12644 6.1821 5.16299 6.12517 4.31313L6.12517 4.3131L6.12453 4.30357C6.11128 4.10581 6.09637 3.88327 6.06799 3.63401C6.03087 3.31359 6.02934 2.99004 6.06343 2.66928C3.55912 4.08488 1.80473 6.67471 1.55198 9.68657C3.26664 9.74982 4.1871 10.1832 4.28653 10.9784C4.30262 11.1183 4.31511 11.2585 4.32398 11.399C4.32473 11.4093 4.3255 11.4199 4.32628 11.4308C4.32919 11.4712 4.33239 11.5156 4.33637 11.5616C4.87402 11.0695 5.36082 11.2522 5.62446 11.428C5.70755 11.4835 5.90422 11.5694 6.07879 11.6456L6.08292 11.6474L6.08321 11.6475C6.73697 11.9327 7.63211 12.3231 7.63211 13.1923C7.63211 13.4177 7.60343 13.6561 7.57564 13.8871L7.57467 13.8952C7.55975 14.0174 7.53951 14.1839 7.53267 14.3015C7.94892 14.7027 8.75798 15.563 8.77027 16.0698C8.76926 16.0221 8.76331 15.9908 8.76242 15.9861L8.76231 15.9856C8.77026 16.023 8.7859 16.0749 8.8041 16.1353C8.80852 16.1499 8.81308 16.1651 8.81772 16.1806C8.97484 16.7089 9.08516 17.1441 8.9589 17.5345C8.95485 17.5469 8.65706 18.4013 8.19405 19.0713Z" fill="#B2BCC8"/>
</g>
</svg>
