<svg width="40" height="33" viewBox="0 0 40 33" fill="none" xmlns="http://www.w3.org/2000/svg">
<path fill-rule="evenodd" clip-rule="evenodd" d="M21.0313 3.1024V5.5383C31.0555 6.17042 39.0001 14.6742 39.0001 25.0255V26.2434C39.0001 26.9157 38.4634 27.4614 37.8022 27.4614H1.86466C1.20341 27.4614 0.666748 26.9157 0.666748 26.2434V25.0255C0.666748 14.6742 8.61133 6.17042 18.6355 5.5383C18.6271 5.63815 18.6355 3.1024 18.6355 3.1024H16.2397C15.5784 3.1024 15.0417 2.55676 15.0417 1.88445C15.0417 1.21214 15.5784 0.666504 16.2397 0.666504H23.4272C24.0884 0.666504 24.6251 1.21214 24.6251 1.88445C24.6251 2.55676 24.0884 3.1024 23.4272 3.1024H21.0313ZM1.86466 29.8973H37.8022C38.4634 29.8973 39.0001 30.4429 39.0001 31.1152C39.0001 31.7875 38.4634 32.3332 37.8022 32.3332H1.86466C1.20341 32.3332 0.666748 31.7875 0.666748 31.1152C0.666748 30.4429 1.20341 29.8973 1.86466 29.8973Z" fill="#388AF7"/>
</svg>
