<svg width="14" height="14" viewBox="0 0 14 14" fill="none" xmlns="http://www.w3.org/2000/svg">
<path fill-rule="evenodd" clip-rule="evenodd" d="M10.6159 8.96147L13.6574 12.0028C14.1142 12.4597 14.1142 13.2005 13.6574 13.6574C13.2004 14.1142 12.4597 14.1142 12.0028 13.6574L8.9613 10.6159C8.95217 10.6067 8.9446 10.5967 8.93703 10.5867C8.93121 10.579 8.92539 10.5712 8.91885 10.5639C8.01105 11.1624 6.92444 11.5117 5.75578 11.5117C2.57693 11.5117 0 8.93463 0 5.75583C0 2.57698 2.57698 0 5.75583 0C8.93468 0 11.5117 2.57698 11.5117 5.75589C11.5117 6.92449 11.1624 8.01116 10.5639 8.91897C10.5712 8.92547 10.5789 8.93127 10.5866 8.93707C10.5967 8.94468 10.6068 8.95229 10.6159 8.96147ZM1.99531 5.75583C1.99531 7.83269 3.67892 9.5163 5.75583 9.5163C7.83263 9.5163 9.5163 7.83269 9.5163 5.75583C9.5163 3.67898 7.83263 1.99531 5.75583 1.99531C3.67898 1.99531 1.99531 3.67892 1.99531 5.75583Z" fill="#CDCDCD"/>
</svg>
