<svg width="34" height="39" viewBox="0 0 34 39" fill="none" xmlns="http://www.w3.org/2000/svg">
<mask id="mask0" mask-type="alpha" maskUnits="userSpaceOnUse" x="0" y="11" width="17" height="18">
<path fill-rule="evenodd" clip-rule="evenodd" d="M2.991 11.679C1.342 11.679 0 13.021 0 14.67V21.507C0 23.155 1.342 24.497 2.991 24.497H5.945L10.716 28.474C10.951 28.67 11.243 28.77 11.537 28.77C11.722 28.77 11.907 28.731 12.081 28.65C12.532 28.439 12.819 27.987 12.819 27.489V24.497H13.246C14.896 24.497 16.238 23.155 16.238 21.507V14.67C16.238 13.021 14.896 11.679 13.246 11.679H2.991ZM5.127 18.088C5.127 17.38 5.702 16.806 6.41 16.806H9.828C10.535 16.806 11.11 17.38 11.11 18.088C11.11 18.796 10.535 19.37 9.828 19.37H6.41C5.702 19.37 5.127 18.796 5.127 18.088Z" fill="white"/>
</mask>
<g mask="url(#mask0)">
<path fill-rule="evenodd" clip-rule="evenodd" d="M2.991 11.679C1.342 11.679 0 13.021 0 14.67V21.507C0 23.155 1.342 24.497 2.991 24.497H5.945L10.716 28.474C10.951 28.67 11.243 28.77 11.537 28.77C11.722 28.77 11.907 28.731 12.081 28.65C12.532 28.439 12.819 27.987 12.819 27.489V24.497H13.246C14.896 24.497 16.238 23.155 16.238 21.507V14.67C16.238 13.021 14.896 11.679 13.246 11.679H2.991ZM5.127 18.088C5.127 17.38 5.702 16.806 6.41 16.806H9.828C10.535 16.806 11.11 17.38 11.11 18.088C11.11 18.796 10.535 19.37 9.828 19.37H6.41C5.702 19.37 5.127 18.796 5.127 18.088Z" fill="#388AF7"/>
</g>
<mask id="mask1" mask-type="alpha" maskUnits="userSpaceOnUse" x="9" y="1" width="25" height="38">
<path fill-rule="evenodd" clip-rule="evenodd" d="M12.8481 1C10.9821 1 9.45508 2.527 9.45508 4.394V9.485H12.8481V6.09H29.8191V33.243H12.8481V29.848H9.45508V34.939C9.45508 36.806 10.9821 38.333 12.8481 38.333H29.8191C31.6851 38.333 33.2131 36.806 33.2131 34.939V4.394C33.2131 2.527 31.6851 1 29.8191 1H12.8481Z" fill="white"/>
</mask>
<g mask="url(#mask1)">
<path fill-rule="evenodd" clip-rule="evenodd" d="M12.8481 1C10.9821 1 9.45508 2.527 9.45508 4.394V9.485H12.8481V6.09H29.8191V33.243H12.8481V29.848H9.45508V34.939C9.45508 36.806 10.9821 38.333 12.8481 38.333H29.8191C31.6851 38.333 33.2131 36.806 33.2131 34.939V4.394C33.2131 2.527 31.6851 1 29.8191 1H12.8481Z" fill="#388AF7"/>
</g>
</svg>
