<svg width="20" height="20" viewBox="0 0 20 20" fill="none" xmlns="http://www.w3.org/2000/svg">
<path fill-rule="evenodd" clip-rule="evenodd" d="M10.8538 14.9414V16.667H9.18717V14.917C7.62939 14.617 6.47828 13.517 6.47828 11.9503H8.14495C8.14495 12.967 9.02161 13.667 10.0205 13.667C11.3383 13.667 11.8949 13.117 11.8949 12.367C11.8949 11.4914 11.5872 11.1336 10.0205 10.6247C8.1705 10.0247 6.68717 9.56697 6.68717 7.69142C6.68717 6.23364 7.8705 5.35808 9.18717 5.09142V3.33364H10.8538V5.08364C12.3794 5.37475 13.3538 6.45808 13.3538 7.9503H11.7705C11.7705 7.06697 11.3461 6.33364 10.0205 6.33364C8.87161 6.33364 8.27161 6.99142 8.27161 7.68364C8.27161 8.65808 9.15495 8.82475 10.4872 9.25031C12.7372 9.96697 13.5205 10.8003 13.5205 12.3581C13.5205 13.7003 12.5538 14.7003 10.8538 14.9414ZM9.99939 0.000305176C4.48606 0.000305176 -0.000610352 4.48586 -0.000610352 10.0003C-0.000610352 15.5136 4.48606 20.0003 9.99939 20.0003C15.5138 20.0003 19.9994 15.5136 19.9994 10.0003C19.9994 4.48586 15.5138 0.000305176 9.99939 0.000305176Z" fill="#B2BCC8"/>
</svg>
