<svg width="24" height="24" viewBox="0 0 24 24" fill="none" xmlns="http://www.w3.org/2000/svg">
<mask id="mask0" mask-type="alpha" maskUnits="userSpaceOnUse" x="3" y="3" width="18" height="18">
<path fill-rule="evenodd" clip-rule="evenodd" d="M3 3H20.9996V21H3V3Z" fill="white"/>
</mask>
<g mask="url(#mask0)">
<path fill-rule="evenodd" clip-rule="evenodd" d="M11.9995 19.875C7.65751 19.875 4.12451 16.342 4.12451 12C4.12451 7.658 7.65751 4.125 11.9995 4.125C16.3425 4.125 19.8745 7.658 19.8745 12C19.8745 16.342 16.3425 19.875 11.9995 19.875ZM11.9995 3C7.03651 3 2.99951 7.038 2.99951 12C2.99951 16.962 7.03651 21 11.9995 21C16.9625 21 20.9995 16.962 20.9995 12C20.9995 7.038 16.9625 3 11.9995 3Z" fill="#237BD3"/>
</g>
<path fill-rule="evenodd" clip-rule="evenodd" d="M12.9155 7.1626H11.6655V12.1626L16.0365 14.7876L16.6655 13.7626L12.9155 11.5376V7.1626Z" fill="#237BD3"/>
</svg>
