<svg width="22" height="22" viewBox="0 0 22 22" fill="none" xmlns="http://www.w3.org/2000/svg">
<path d="M11.088 10.1444C9.49901 9.68556 8.98801 9.21111 8.98801 8.47222C8.98801 7.62444 9.69501 7.03333 10.878 7.03333C12.124 7.03333 12.586 7.69444 12.628 8.66667H14.175C14.126 7.32889 13.391 6.1 11.928 5.70333V4H9.82801V5.68C8.47001 6.00667 7.37801 6.98667 7.37801 8.48778C7.37801 10.2844 8.71501 11.1789 10.668 11.7C12.418 12.1667 12.768 12.8511 12.768 13.5744C12.768 14.1111 12.425 14.9667 10.878 14.9667C9.43601 14.9667 8.86901 14.2511 8.79201 13.3333H7.25201C7.33601 15.0367 8.48401 15.9933 9.82801 16.3122V18H11.928V16.3278C13.293 16.04 14.378 15.1611 14.378 13.5667C14.378 11.3578 12.677 10.6033 11.088 10.1444Z" fill="#B2BCC8"/>
<circle cx="11" cy="11" r="10" stroke="#B2BCC8" stroke-width="1.8"/>
</svg>
