<svg width="45" height="37" viewBox="0 0 45 37" fill="none" xmlns="http://www.w3.org/2000/svg">
<path d="M43.593 7.26975L30.2702 0.666504C28.8948 2.56879 25.8498 3.89628 22.2984 3.89628C18.747 3.89628 15.702 2.56879 14.3266 0.666504L1.00374 7.26975C0.463167 7.54346 0.244199 8.20037 0.511067 8.74094L4.42512 16.5759C4.69883 17.1165 5.35573 17.3354 5.89631 17.0686L9.7693 15.1731C10.4946 14.8173 11.3431 15.3442 11.3431 16.1585V33.5117C11.3431 34.7229 12.3216 35.7014 13.5328 35.7014H31.0502C32.2614 35.7014 33.2399 34.7229 33.2399 33.5117V16.1516C33.2399 15.3442 34.0884 14.8105 34.8138 15.1663L38.6867 17.0617C39.2273 17.3354 39.8842 17.1165 40.1579 16.569L44.0788 8.74094C44.3525 8.20037 44.1336 7.53662 43.593 7.26975Z" fill="#388AF7"/>
</svg>
