<svg width="55" height="68" viewBox="0 0 55 68" fill="none" xmlns="http://www.w3.org/2000/svg">
<path d="M50.7358 2.89355H4.24142C1.8987 2.89355 0 4.79893 0 7.14989V63.7436C0 66.0946 1.8987 67.9999 4.24142 67.9999H50.7373C53.08 67.9999 54.9787 66.0946 54.9787 63.7436V7.14989C54.9773 4.79906 53.0799 2.89355 50.7358 2.89355" fill="#237BD3"/>
<path d="M5.78711 8.68091H49.1914V62.2128H5.78711V8.68091Z" fill="#F2F2F2"/>
<path d="M11.5742 52.8086H43.404V56.4256H11.5742V52.8086Z" fill="#7DD5FB"/>
<path d="M11.5742 41.2341H43.404V44.8512H11.5742V41.2341Z" fill="#7DD5FB"/>
<path d="M30.2578 29.6597H44.0025V33.2767H30.2578V29.6597Z" fill="#7DD5FB"/>
<path d="M30.9814 18.1399H44.0027V21.6406H30.9814V18.1399Z" fill="#7DD5FB"/>
<path d="M40.5106 13.0213H15.1914V1.94299C15.1914 0.868898 16.0221 0 17.0457 0H38.6562C39.68 0 40.5106 0.868898 40.5106 1.94299V13.0213Z" fill="#40596B"/>
<path d="M18.1574 26.0427C15.9871 26.0427 14.251 24.3065 14.251 22.0639C14.251 19.8214 15.9871 18.0852 18.1574 18.0852C20.3276 18.0852 22.1361 19.8214 22.1361 22.0639C22.1361 24.3065 20.3276 26.0427 18.1574 26.0427Z" fill="#237BD3"/>
<path d="M18.1569 34.5064C16.5654 34.5064 15.1186 34.2893 14.0335 34C12.2973 33.4213 11.8633 32.6255 11.8633 32.0468C11.8633 29.0808 14.6846 26.6936 18.0846 26.6936C21.4846 26.6936 24.3058 29.0808 24.3058 32.0468C24.3782 33.8553 21.0505 34.5064 18.1569 34.5064Z" fill="#237BD3"/>
</svg>
