<svg width="68" height="68" viewBox="0 0 68 68" fill="none" xmlns="http://www.w3.org/2000/svg">
<path d="M26.7656 31.1064H41.2337V52.0852H26.7656V31.1064Z" fill="#EABC82"/>
<path d="M47.0212 68.0001L33.9829 52.0852H33.6793L15.1914 68.0001H47.0212Z" fill="#E8EAEA"/>
<path d="M36.4013 57.8724L38.34 56.0852L33.9996 52.0852L29.6592 56.0852L31.5979 57.8724H36.4013Z" fill="#237BD3"/>
<path d="M37.6171 68L36.6534 57.8723H32.0687L31.1064 68H37.6171Z" fill="#237BD3"/>
<path d="M34 52.0346C34 52.0346 39.325 57.9858 38.9422 60.0427L43.4043 44.9455L41.5504 40.5107C41.5491 40.5107 41.7328 45.4686 34 52.0346Z" fill="#F2F2F2"/>
<path d="M37.6172 68.0001H68.0002L66.8612 58.4358C66.4911 55.3401 64.4451 52.6955 61.5279 51.5458L45.6757 45.2979C45.6757 45.2979 42.6331 41.1174 41.5198 40.5107C41.5198 40.5107 42.4439 43.8893 41.5198 47.0175C41.0769 48.5265 39.3172 58.2917 37.6172 68.0001" fill="#334A5E"/>
<path d="M37.6172 68.0001H43.4615L48.4683 57.0853L44.3824 54.5354L47.1063 53.0053L45.1503 44.9995C44.4548 44.0421 42.2178 41.0199 41.3051 40.5107C41.3051 40.5107 41.9409 43.5315 41.3051 47.0175C41.0937 48.1842 39.3477 58.1304 37.6172 68.0001Z" fill="#40596B"/>
<path d="M34 52.0347C34 52.0347 28.675 57.9858 29.0578 60.0427L24.5957 44.9455L26.4481 40.5107C26.4495 40.5109 26.2658 45.4687 34 52.0347Z" fill="#F2F2F2"/>
<path d="M30.383 68.0001C28.6815 58.2915 26.9233 48.5264 26.4776 47.0175C25.555 43.8892 26.4776 40.5107 26.4776 40.5107C25.3656 41.1174 22.3216 45.2979 22.3216 45.2979L6.47244 51.5458C3.55544 52.695 1.50771 55.3404 1.13909 58.4359L0 68.0001H30.383Z" fill="#334A5E"/>
<path d="M24.5217 68.0001H30.3833C28.6697 58.1247 26.9285 48.1757 26.6707 47.0175C25.8499 43.3024 26.6707 40.5107 26.6707 40.5107C25.7625 41.0199 23.532 44.0421 22.8387 44.9995L20.8895 53.0053L23.604 54.5354L19.5322 57.0853L24.5217 68.0001Z" fill="#40596B"/>
<path d="M20.7221 7.95765C19.5053 11.336 18.8086 15.2349 18.8086 19.3913C18.8086 32.2475 25.4629 42.6809 33.6658 42.6809C41.8688 42.6809 48.5231 32.2477 48.5231 19.3913C48.5231 18.6794 48.503 17.966 48.4541 17.2666C48.7314 17.0583 48.9512 16.67 49.0202 16.0875C49.319 13.5942 49.2414 10.6548 48.6739 7.95752L20.7221 7.95765Z" fill="#F2CC9B"/>
<path d="M35.6511 36.1701L35.4473 34.8114L44.0025 33.5885C47.8093 33.045 50.6803 29.8004 50.6803 26.0425H52.0856C52.0856 30.477 48.6989 34.3049 44.2063 34.9472L35.6511 36.1701Z" fill="#40596B"/>
<path d="M37.6075 35.1811C37.7173 35.9667 36.84 36.7217 35.6466 36.869C34.452 37.015 33.3955 36.4972 33.2857 35.7116C33.1758 34.9273 34.0519 34.171 35.2479 34.025C36.4413 33.8777 37.4977 34.3955 37.6075 35.1811Z" fill="#40596B"/>
<path d="M20.063 25.3191C20.7676 22.0877 20.8258 19.2555 21.7164 15.826C21.7164 15.826 39.1424 19.7085 46.361 12.6823C46.361 12.6823 48.6138 19.8415 48.0996 25.3191H50.1152C50.5115 18.5903 50.6379 13.4948 50.6379 13.4948C49.9519 1.91666 42.9463 3.17355 40.9833 3.70287C39.2091 -0.00690341 19.306 -5.51577 17.3613 13.4948C17.3613 13.4948 17.4792 18.5917 17.8742 25.3191H20.063Z" fill="#40596B"/>
<path d="M16.9896 23.1489V20.3584C16.9896 10.9296 24.6198 3.25871 34.0012 3.25871C43.3798 3.25871 51.0099 10.9297 51.0099 20.3584V23.1489H53.5316V20.3584C53.5316 9.53224 44.7697 0.723389 34.0011 0.723389C23.2296 0.723389 14.4678 9.53211 14.4678 20.3584V23.1489H16.9896Z" fill="#237BD3"/>
<path d="M19.5316 18.0852C16.6996 18.3034 14.4678 20.647 14.4678 23.5107C14.4678 26.3745 16.6982 28.7182 19.5316 28.9363V18.0852Z" fill="#0E7BE4"/>
<path d="M19.8929 29.6595C19.2941 29.6593 18.8088 29.1923 18.8086 28.6163V17.6814C18.8088 17.1053 19.2941 16.6383 19.8929 16.6382C20.4931 16.6382 20.9788 17.1054 20.9788 17.6814V28.6163C20.9788 29.1907 20.4931 29.6595 19.8929 29.6595Z" fill="#7DD5FB"/>
<path d="M48.4678 18.0852C51.2998 18.3034 53.5316 20.647 53.5316 23.5107C53.5316 26.3745 51.3012 28.7182 48.4678 28.9363V18.0852Z" fill="#0E7BE4"/>
<path d="M48.1066 29.6595C47.8187 29.6596 47.5426 29.5498 47.3391 29.3541C47.1356 29.1584 47.0213 28.893 47.0215 28.6163V17.6814C47.0213 17.4047 47.1356 17.1392 47.3391 16.9435C47.5426 16.7478 47.8187 16.638 48.1066 16.6382C48.7058 16.6383 49.1915 17.1053 49.1917 17.6814V28.6163C49.1917 29.1907 48.7041 29.6595 48.1066 29.6595Z" fill="#7DD5FB"/>
</svg>
