<svg width="68" height="68" viewBox="0 0 68 68" fill="none" xmlns="http://www.w3.org/2000/svg">
<path d="M34 0C15.3253 0 0 15.3253 0 34C0 52.6747 15.3253 68 34 68C39.9496 68 45.8073 66.428 50.9372 63.4532L48.9373 60.0058C44.4144 62.6284 39.2487 64.0156 34 64.0156C17.5219 64.0156 3.98438 50.4781 3.98438 34C3.98438 17.5219 17.5219 3.98438 34 3.98438C50.4781 3.98438 64.0156 17.5219 64.0156 34C64.0156 39.2995 62.6289 44.4745 60.0312 48.9705V44.0938H56.0469V56.0469H68V52.0625H62.8172C66.1635 46.7064 68 40.3454 68 34C68 15.3253 52.6747 0 34 0Z" fill="#237BD3"/>
<path fill-rule="evenodd" clip-rule="evenodd" d="M11.9004 33.9999C11.9004 21.8874 21.8879 11.8999 34.0004 11.8999C46.1129 11.8999 56.1004 21.8874 56.1004 33.9999C56.1004 46.1124 46.1129 56.0999 34.0004 56.0999C21.8879 56.0999 11.9004 46.1124 11.9004 33.9999ZM32.0034 35.9969H47.9793V32.0029H35.9974V19.8879H32.0034V35.9969Z" fill="#7DD5FB"/>
</svg>
