<svg width="69" height="69" viewBox="0 0 69 69" fill="none" xmlns="http://www.w3.org/2000/svg">
<path d="M1.06348 58.4444V6.22226C1.06348 3.33825 3.40173 1 6.28574 1H39.7327L52.5872 13.8545V58.4444C52.5872 61.3284 50.249 63.6667 47.365 63.6667H6.28574C3.40173 63.6667 1.06348 61.3284 1.06348 58.4444" fill="#F2F2F2"/>
<path d="M1.06348 58.4444V6.22226C1.06348 3.33825 3.40173 1 6.28574 1H39.7327L52.5872 13.8545V58.4444C52.5872 61.3284 50.249 63.6667 47.365 63.6667H6.28574C3.40173 63.6667 1.06348 61.3284 1.06348 58.4444" stroke="#C8CED6"/>
<path d="M6.28613 55H47.3655V58.4754H6.28613V55Z" fill="#CDD6E0"/>
<path d="M6.28613 43.6667H47.3655V47.1422H6.28613V43.6667Z" fill="#CDD6E0"/>
<path d="M6.28613 31.6667H47.3655V35.1422H6.28613V31.6667Z" fill="#CDD6E0"/>
<path d="M23.5605 20.3333H47.366V23.8087H23.5605V20.3333Z" fill="#CDD6E0"/>
<path d="M23.5605 8.48486H33.3757V11.9603H23.5605L23.5605 8.48486Z" fill="#CDD6E0"/>
<path d="M39.7324 1L52.5869 13.8545H44.9547C42.0707 13.8545 39.7324 11.5162 39.7324 8.63224V1Z" fill="#CDD6E0"/>
<path fill-rule="evenodd" clip-rule="evenodd" d="M11.7277 24.2205V22.5233C9.75899 22.2126 7.9468 21.3209 6.28613 19.8482L8.44813 17.2188C9.65704 18.2737 10.7511 18.9486 11.7277 19.2424V15.7761C10.0984 15.3584 8.90516 14.7956 8.14533 14.0894C7.38415 13.3857 7.00423 12.3686 7.00423 11.0436C7.00423 9.71717 7.43763 8.62442 8.30713 7.76398C9.17663 6.90232 10.3138 6.38789 11.7264 6.2169V5.07715H14.1925V6.2639C15.7435 6.48066 17.2854 7.12299 18.8234 8.19347L16.9134 10.9377C15.9395 10.2419 15.0295 9.7758 14.1927 9.54337V12.8935C15.8676 13.3269 17.1041 13.9079 17.9031 14.6364C18.7021 15.3649 19.1016 16.3975 19.1016 17.7319C19.1016 19.0649 18.6551 20.1667 17.7634 21.0336C16.873 21.9018 15.6823 22.4227 14.194 22.5925V24.2205H11.7277ZM11.7277 9.44962C11.0619 9.68327 10.7276 10.109 10.7276 10.7304C10.7276 11.3505 11.0619 11.8218 11.7277 12.1482V9.44962ZM15.1235 17.1041C15.2945 17.3208 15.3781 17.5924 15.3781 17.9174C15.3781 18.6315 14.9838 19.112 14.1927 19.3601V16.4984C14.6443 16.685 14.9525 16.8861 15.1235 17.1041Z" fill="#237BD3"/>
<path d="M47.2666 43.0001C47.8416 42.918 48.4178 42.8338 48.9929 42.7507C48.9952 42.7507 48.9977 42.7496 49 42.7496C48.5246 42.3703 48.0324 42.0091 47.5247 41.6667C47.4222 41.8632 47.2419 42.0338 47.1146 42.2249C46.9414 42.4851 46.9437 42.9191 47.2666 43.0001Z" fill="white"/>
<path d="M58.1611 53.2031L53.1393 58.1834L45.3768 50.4901L50.3987 45.5098L58.1611 53.2031Z" fill="#7DD5FB"/>
<path fill-rule="evenodd" clip-rule="evenodd" d="M21.4206 49.2463C29.092 56.918 41.5753 56.918 49.2467 49.2463C56.9182 41.5745 56.9182 29.0922 49.2467 21.4205C41.5753 13.7488 29.092 13.7488 21.4206 21.4205C13.7491 29.0922 13.7491 41.5746 21.4206 49.2463ZM25.0304 45.6377C19.3477 39.9561 19.3477 30.7106 25.0304 25.0291C30.7117 19.3475 39.957 19.3475 45.6383 25.0291C51.3196 30.7107 51.3196 39.9562 45.6383 45.6377C39.9556 51.3193 30.7105 51.3193 25.0304 45.6377Z" fill="#334A5E"/>
<path d="M68.6115 60.8049L57.195 49.3895C56.9477 49.1402 56.6112 49 56.2601 49C55.909 49 55.5725 49.1402 55.3253 49.3895L49.3875 55.3273C48.8708 55.8415 48.8708 56.6803 49.3875 57.197L60.8028 68.6124C61.3199 69.1292 62.1579 69.1292 62.675 68.6124L68.6114 62.6746C69.1295 62.1606 69.1295 61.3204 68.6115 60.8049Z" fill="#237BD3"/>
<path d="M50.9209 58.7478L58.7397 50.9959L61.8023 54.0321L53.9835 61.784L50.9209 58.7478Z" fill="#7DD5FB"/>
</svg>
