<svg width="22" height="16" viewBox="0 0 22 16" fill="none" xmlns="http://www.w3.org/2000/svg">
<g id="i_wifi copy 2">
<path id="Shape" fill-rule="evenodd" clip-rule="evenodd" d="M21.0811 5.11863C21.2434 5.27246 21.499 5.26801 21.6571 5.10991L21.8523 4.91477C22.0174 4.74963 22.0127 4.48132 21.8432 4.3206C15.7741 -1.43744 6.23187 -1.44296 0.15687 4.3206C-0.0125441 4.48132 -0.0172682 4.74966 0.147835 4.91477L0.342973 5.10991C0.501077 5.26801 0.756697 5.27246 0.918939 5.11863C6.5768 -0.24606 15.446 -0.224508 21.0811 5.11863ZM18.1262 8.81239L17.9356 9.01201C17.7817 9.17328 17.528 9.18315 17.3613 9.03508C13.7418 5.81928 8.26497 5.81328 4.63877 9.03508C4.47211 9.18315 4.21839 9.17328 4.06446 9.01201L3.8739 8.81239C3.7128 8.64363 3.72215 8.37418 3.89635 8.21898C7.93687 4.61915 14.0577 4.61418 18.1038 8.21898C18.2779 8.37418 18.2873 8.64363 18.1262 8.81239ZM8.24142 12.6897C8.24142 11.1662 9.47659 9.93104 11 9.93104C12.5235 9.93104 13.7587 11.1662 13.7587 12.6897C13.7587 14.2124 12.5239 15.4483 11 15.4483C9.47711 15.4483 8.24142 14.2133 8.24142 12.6897ZM9.34487 12.6897C9.34487 13.6024 10.0873 14.3448 11 14.3448C11.9128 14.3448 12.6552 13.6024 12.6552 12.6897C12.6552 11.7769 11.9128 11.0345 11 11.0345C10.0873 11.0345 9.34487 11.7769 9.34487 12.6897Z" fill="#575C65"/>
</g>
</svg>
