<svg width="14" height="19" viewBox="0 0 14 19" fill="none" xmlns="http://www.w3.org/2000/svg">
<path fill-rule="evenodd" clip-rule="evenodd" d="M3.81444 4.456C3.81444 2.697 5.24544 1.266 7.00444 1.266C8.77744 1.266 10.2744 2.727 10.2744 4.456C10.2744 6.185 8.77744 7.646 7.00444 7.646C5.30544 7.646 3.81444 6.155 3.81444 4.456ZM7.00444 8.912C9.46044 8.912 11.4604 6.913 11.4604 4.456C11.4604 1.999 9.46044 0 7.00444 0C4.55044 0 2.62744 1.957 2.62744 4.456C2.62744 6.955 4.55044 8.912 7.00444 8.912Z" fill="#237BD3"/>
<path fill-rule="evenodd" clip-rule="evenodd" d="M12.823 15.3671C12.823 16.0371 10.802 16.9651 7.005 16.9651C3.208 16.9651 1.185 16.0371 1.185 15.3671C1.185 12.7291 3.796 10.5841 7.005 10.5841C10.133 10.5841 12.743 12.7301 12.823 15.3671ZM6.925 9.39807C3.106 9.39807 0 12.0761 0 15.3671C0 15.8931 0.317 16.8811 2.445 17.5901C3.8 17.9511 5.419 18.1501 7.005 18.1501C8.141 18.1501 11.958 18.0361 13.362 16.5751C13.703 16.2201 13.867 15.8131 13.849 15.3671C13.849 12.0761 10.743 9.39807 6.925 9.39807Z" fill="#237BD3"/>
</svg>
