<svg width="180" height="40" viewBox="0 0 180 40" fill="none" xmlns="http://www.w3.org/2000/svg">
<path fill-rule="evenodd" clip-rule="evenodd" d="M153.759 13.4411C153.542 12.5013 153.147 11.7111 152.556 11.0259L152.552 11.0208C151.742 10.1121 150.713 9.50819 149.401 9.17417C148.188 8.85316 146.4 8.69568 143.943 8.69568C141.263 8.69568 139.538 9.01018 138.313 9.47753C137.766 9.67636 137.176 10.1042 136.736 10.5167V9.61364H133.269V27.8261H136.752V16.2582C136.752 13.2381 139.829 12.0456 142.893 12.0456H144.43C147.496 12.0456 150.601 13.2381 150.601 16.2582V27.8261H154.039V17.8925C154.039 15.6375 153.952 14.2643 153.759 13.4411ZM138.307 9.47939C138.309 9.47892 138.31 9.47799 138.313 9.47753L138.314 9.47706L138.307 9.47939Z" fill="#EC1D24"/>
<mask id="mask0" mask-type="alpha" maskUnits="userSpaceOnUse" x="95" y="0" width="17" height="29">
<path fill-rule="evenodd" clip-rule="evenodd" d="M95.1936 0.0786133H111.193V28.2416H95.1936V0.0786133Z" fill="white"/>
</mask>
<g mask="url(#mask0)">
<path fill-rule="evenodd" clip-rule="evenodd" d="M95.1936 8.84371H98.709C98.7498 6.95592 98.8128 5.15703 99.0176 4.33709C99.1811 3.51997 99.5489 2.82374 100.08 2.29217C100.693 1.55737 101.55 1.02391 102.653 0.655575C103.716 0.369089 105.521 0.123059 107.891 0.0830733L111.193 0.0783691L108.016 3.18409C107.903 3.18409 106.78 3.18879 106.672 3.18879C101.996 3.18879 102.323 6.18678 102.323 8.84371H110.545L107.221 12.234H102.242L102.261 28.2415H98.709V12.234H95.1936V8.84371Z" fill="#EC1D24"/>
</g>
<mask id="mask1" mask-type="alpha" maskUnits="userSpaceOnUse" x="0" y="0" width="180" height="40">
<path fill-rule="evenodd" clip-rule="evenodd" d="M0 40H180V0H0V40Z" fill="white"/>
</mask>
<g mask="url(#mask1)">
<path fill-rule="evenodd" clip-rule="evenodd" d="M91.7307 6.0869H95.1923V2.60864H91.7307V6.0869Z" fill="#EC1D24"/>
<path fill-rule="evenodd" clip-rule="evenodd" d="M99.5523 34.6345C99.8257 34.1763 100.439 33.9311 101.414 33.9141C101.896 33.9059 102.302 33.9711 102.641 34.0941C102.97 34.2172 103.178 34.3972 103.255 34.6345C103.562 34.1763 104.23 33.9311 105.27 33.9141C105.686 33.9059 106.026 33.9472 106.3 34.0207C106.574 34.0941 106.782 34.2006 106.925 34.3315C107.067 34.4624 107.165 34.618 107.22 34.798C107.275 34.978 107.308 35.1832 107.308 35.4128V38.2609H106.42V35.4945C106.42 35.2076 106.376 34.995 106.311 34.8471C106.234 34.6915 106.125 34.5859 105.949 34.528C105.774 34.4706 105.522 34.438 105.183 34.438C104.832 34.438 104.526 34.4624 104.273 34.5119C104.022 34.5606 103.813 34.6671 103.649 34.8311C103.485 34.995 103.408 35.2406 103.408 35.5597V38.2609H102.553V35.4128C102.553 35.1419 102.521 34.9454 102.455 34.8063C102.389 34.6754 102.269 34.5771 102.082 34.5202C101.896 34.4624 101.623 34.438 101.25 34.438C100.724 34.438 100.308 34.528 100.001 34.7089C99.6944 34.8967 99.5411 35.2241 99.5411 35.6988V38.2609H98.6538V33.9637H99.5411V34.6345H99.5523Z" fill="#006DB7"/>
<path fill-rule="evenodd" clip-rule="evenodd" d="M110.475 35.3017C109.941 35.3017 109.574 35.383 109.385 35.5364C109.263 35.634 109.175 35.7793 109.141 35.9654C109.096 36.1597 109.074 36.4266 109.063 36.7585C109.074 36.7989 109.085 36.8633 109.085 36.9446C109.085 37.0422 109.074 37.1148 109.063 37.1716C109.074 37.4712 109.096 37.7136 109.13 37.8993C109.163 38.0777 109.23 38.2152 109.318 38.3206C109.441 38.4499 109.619 38.5312 109.875 38.5711C110.119 38.6038 110.43 38.6202 110.797 38.6202C111.12 38.6202 111.397 38.6038 111.632 38.5793C111.864 38.5553 112.02 38.4831 112.142 38.385C112.343 38.2075 112.453 37.8348 112.453 37.2601V36.9446C112.453 36.5969 112.443 36.3054 112.409 36.0712C112.376 35.8356 112.287 35.6581 112.165 35.5523C112.042 35.4479 111.864 35.3662 111.632 35.3421C111.387 35.3099 111.098 35.3017 110.753 35.3017H110.475ZM111.987 34.8482C112.332 34.8891 112.609 34.9944 112.821 35.1478C113.054 35.3258 113.209 35.5609 113.277 35.8601C113.332 36.1597 113.365 36.5401 113.365 37.0095C113.365 37.4467 113.332 37.8108 113.265 38.1099C113.199 38.4014 113.032 38.6361 112.754 38.8308C112.532 38.9679 112.242 39.041 111.898 39.0737C111.553 39.1141 111.13 39.1304 110.641 39.1304C110.13 39.1304 109.708 39.0973 109.363 39.0328C109.018 38.9679 108.752 38.8308 108.563 38.6202C108.307 38.3451 108.173 37.8434 108.173 37.1067C108.173 36.6454 108.196 36.2655 108.24 35.9736C108.285 35.6826 108.396 35.4479 108.585 35.2699C108.785 35.0752 109.051 34.9454 109.375 34.8891C109.697 34.8328 110.108 34.7837 110.608 34.7837C111.175 34.776 111.643 34.8083 111.987 34.8482Z" fill="#006DB7"/>
<path fill-rule="evenodd" clip-rule="evenodd" d="M110.769 40.0001H111.635V39.1305H110.769V40.0001Z" fill="#006DB7"/>
<path fill-rule="evenodd" clip-rule="evenodd" d="M116.962 34.3482V38.2608H115.962V34.3482H116.962ZM115.962 33.6994H116.962V33.0435H115.962V33.6994Z" fill="#006DB7"/>
<path fill-rule="evenodd" clip-rule="evenodd" d="M120.288 38.2609H121.154V32.174H120.288V38.2609Z" fill="#006DB7"/>
<path fill-rule="evenodd" clip-rule="evenodd" d="M127.101 37.6547C126.934 37.8917 126.672 38.0556 126.326 38.1374C125.981 38.2196 125.565 38.2609 125.076 38.2609C124.326 38.2609 123.778 38.1456 123.421 37.9077C123.063 37.663 122.885 37.2942 122.885 36.8028V33.9131H123.849V36.7375C123.849 36.9832 123.873 37.1633 123.908 37.2698C123.945 37.3764 124.016 37.4664 124.123 37.5399C124.314 37.679 124.707 37.753 125.291 37.7447C125.54 37.7447 125.743 37.7282 125.909 37.7116C126.065 37.7034 126.231 37.6708 126.386 37.6221C126.541 37.5812 126.684 37.5151 126.803 37.4251C127.017 37.2698 127.125 36.9672 127.125 36.5327V33.9131H128.077V38.2113H127.125V37.6382L127.101 37.6547Z" fill="#006DB7"/>
<path fill-rule="evenodd" clip-rule="evenodd" d="M125.683 32.174L126.346 32.3294L125.101 33.9131L124.615 33.7836L125.683 32.174Z" fill="#006DB7"/>
<path fill-rule="evenodd" clip-rule="evenodd" d="M133.134 36.1215C133.134 35.9926 133.11 35.8632 133.064 35.7425C133.019 35.6136 132.951 35.5168 132.849 35.4607C132.644 35.3553 132.246 35.2992 131.642 35.2992H131.426C131.107 35.2992 130.856 35.315 130.686 35.3313C130.515 35.3634 130.356 35.4362 130.208 35.5489C130.082 35.638 130.003 35.7588 129.957 35.9116C129.912 36.0736 129.878 36.2912 129.866 36.5571C129.878 36.63 129.889 36.7431 129.889 36.8883C129.889 37.1058 129.878 37.2669 129.866 37.3795C129.878 37.6297 129.912 37.84 129.98 37.9929C130.026 38.1458 130.106 38.2752 130.242 38.3715C130.458 38.5172 130.925 38.5895 131.642 38.5895C132.04 38.5895 132.336 38.5814 132.529 38.5565C132.723 38.533 132.871 38.4765 132.996 38.4041C133.167 38.2996 133.247 38.0576 133.247 37.6776V37.5415H134.135V37.7269C134.135 38.2023 133.975 38.5493 133.644 38.7664C133.27 39.0089 132.564 39.1378 131.55 39.1301C131.186 39.1301 130.891 39.1143 130.663 39.0894C130.435 39.0736 130.23 39.0328 130.037 38.9767C129.844 38.9202 129.673 38.8392 129.513 38.7347C129.275 38.5651 129.115 38.3638 129.059 38.13C129.001 37.9038 128.956 37.5252 128.944 37.0009C128.933 36.6458 128.967 36.3635 129.001 36.146C129.024 35.9284 129.07 35.7588 129.139 35.6221C129.207 35.4846 129.309 35.3634 129.457 35.2671C129.628 35.1219 129.832 35.0011 130.071 34.9282C130.311 34.8636 130.561 34.8238 130.8 34.8075C131.039 34.7912 131.335 34.7826 131.688 34.7826C132.086 34.7826 132.438 34.8075 132.758 34.8636C133.064 34.9115 133.303 34.9762 133.463 35.0653C133.702 35.1942 133.872 35.3553 133.94 35.5489C134.02 35.7511 134.044 35.9686 134.044 36.2102H133.134V36.1215Z" fill="#006DB7"/>
<path fill-rule="evenodd" clip-rule="evenodd" d="M137.596 36.8071H140.192V35.6522H137.596V36.8071Z" fill="#006DB7"/>
<path fill-rule="evenodd" clip-rule="evenodd" d="M144.552 34.6345C144.825 34.1763 145.439 33.9311 146.414 33.9141C146.896 33.9059 147.301 33.9711 147.64 34.0941C147.97 34.2172 148.177 34.3972 148.255 34.6345C148.561 34.1763 149.23 33.9311 150.27 33.9141C150.686 33.9059 151.025 33.9472 151.299 34.0207C151.574 34.0941 151.782 34.2006 151.924 34.3315C152.067 34.4624 152.165 34.618 152.22 34.798C152.274 34.978 152.308 35.1832 152.308 35.4128V38.2609H151.42V35.4945C151.42 35.2076 151.376 34.995 151.311 34.8471C151.233 34.6915 151.125 34.5859 150.949 34.528C150.774 34.4706 150.521 34.438 150.183 34.438C149.832 34.438 149.525 34.4624 149.273 34.5119C149.021 34.5606 148.813 34.6671 148.648 34.8311C148.484 34.995 148.407 35.2406 148.407 35.5597V38.2609H147.554V35.4128C147.554 35.1419 147.52 34.9454 147.455 34.8063C147.389 34.6754 147.269 34.5771 147.082 34.5202C146.896 34.4624 146.622 34.438 146.25 34.438C145.724 34.438 145.307 34.528 145.001 34.7089C144.694 34.8967 144.541 35.2241 144.541 35.6988V38.2609H143.654V33.9637H144.541V34.6345H144.552Z" fill="#006DB7"/>
<path fill-rule="evenodd" clip-rule="evenodd" d="M155.474 35.3017C154.942 35.3017 154.575 35.383 154.385 35.5364C154.263 35.634 154.174 35.7793 154.141 35.9654C154.096 36.1597 154.074 36.4266 154.062 36.7585C154.074 36.7989 154.085 36.8633 154.085 36.9446C154.085 37.0422 154.074 37.1148 154.062 37.1716C154.074 37.4712 154.096 37.7136 154.129 37.8993C154.162 38.0777 154.23 38.2152 154.318 38.3206C154.441 38.4499 154.618 38.5312 154.874 38.5711C155.119 38.6038 155.43 38.6202 155.797 38.6202C156.12 38.6202 156.397 38.6038 156.631 38.5793C156.866 38.5553 157.02 38.4831 157.143 38.385C157.343 38.2075 157.453 37.8348 157.453 37.2601V36.9446C157.453 36.5969 157.442 36.3054 157.409 36.0712C157.377 35.8356 157.288 35.6581 157.165 35.5523C157.043 35.4479 156.866 35.3662 156.631 35.3421C156.386 35.3099 156.097 35.3017 155.753 35.3017H155.474ZM156.986 34.8482C157.332 34.8891 157.61 34.9944 157.821 35.1478C158.055 35.3258 158.21 35.5609 158.277 35.8601C158.333 36.1597 158.365 36.5401 158.365 37.0095C158.365 37.4467 158.333 37.8108 158.266 38.1099C158.199 38.4014 158.033 38.6361 157.755 38.8308C157.532 38.9679 157.243 39.041 156.898 39.0737C156.554 39.1141 156.131 39.1304 155.641 39.1304C155.13 39.1304 154.707 39.0973 154.363 39.0328C154.018 38.9679 153.751 38.8308 153.562 38.6202C153.307 38.3451 153.173 37.8434 153.173 37.1067C153.173 36.6454 153.195 36.2655 153.24 35.9736C153.285 35.6826 153.395 35.4479 153.585 35.2699C153.784 35.0752 154.051 34.9454 154.374 34.8891C154.696 34.8328 155.108 34.7837 155.608 34.7837C156.175 34.776 156.642 34.8083 156.986 34.8482Z" fill="#006DB7"/>
<path fill-rule="evenodd" clip-rule="evenodd" d="M155.769 40.0001H156.635V39.1305H155.769V40.0001Z" fill="#006DB7"/>
<path fill-rule="evenodd" clip-rule="evenodd" d="M161.096 34.3482V38.2608H160.096V34.3482H161.096ZM160.096 33.6994H161.096V33.0435H160.096V33.6994Z" fill="#006DB7"/>
<path fill-rule="evenodd" clip-rule="evenodd" d="M165.363 34.4795C165.458 34.3235 165.599 34.2085 165.797 34.127C165.987 34.0447 166.198 33.9872 166.421 33.9619C166.644 33.9301 166.902 33.9131 167.183 33.9131C167.796 33.9131 168.277 33.9545 168.629 34.0447C168.981 34.1436 169.24 34.2986 169.392 34.5043C169.545 34.709 169.615 34.98 169.615 35.3325V38.2609H168.699V35.3486C168.699 35.0946 168.652 34.906 168.547 34.7748C168.441 34.6432 168.288 34.5531 168.089 34.5043C167.877 34.4541 167.583 34.4298 167.207 34.4298C166.844 34.4298 166.55 34.4463 166.327 34.4795C166.103 34.5126 165.916 34.5862 165.739 34.7012C165.469 34.8728 165.34 35.2013 165.34 35.6932V38.2609H164.423V33.9545H165.34V34.4795H165.363Z" fill="#006DB7"/>
<path fill-rule="evenodd" clip-rule="evenodd" d="M173.921 35.3007C173.325 35.3007 172.914 35.382 172.702 35.5355C172.565 35.6331 172.465 35.7784 172.428 35.9646C172.379 36.1589 172.354 36.4259 172.341 36.7578C172.354 36.7983 172.366 36.8627 172.366 36.944C172.366 37.0416 172.354 37.1143 172.341 37.1711C172.354 37.4708 172.379 37.7132 172.416 37.899C172.453 38.0774 172.528 38.215 172.628 38.3203C172.764 38.4498 172.964 38.531 173.25 38.571C173.524 38.6037 173.872 38.62 174.283 38.62C174.644 38.62 174.954 38.6037 175.216 38.5792C175.477 38.5551 175.651 38.4829 175.789 38.3848C176.013 38.2073 176.138 37.8345 176.138 37.2596V36.944C176.138 36.5962 176.125 36.3047 176.087 36.0704C176.051 35.8347 175.951 35.6572 175.814 35.5514C175.677 35.4469 175.477 35.3652 175.216 35.3411C174.942 35.3089 174.619 35.3007 174.233 35.3007H173.921ZM174.109 34.7826C174.743 34.7826 175.266 34.8071 175.651 34.8471C176.037 34.8879 176.349 34.9933 176.586 35.1468C176.846 35.3248 177.02 35.56 177.096 35.8592C177.619 35.8592 177.509 35.228 177.509 35.1064H178.269C178.168 36.0377 177.655 36.3296 177.133 36.3455C177.157 36.588 177.157 36.7501 177.157 37.009C177.157 37.4462 177.12 37.8104 177.046 38.1096C176.971 38.4012 176.784 38.6359 176.474 38.8307C176.225 38.9679 175.9 39.041 175.515 39.0737C175.129 39.1141 174.657 39.1304 174.109 39.1304C173.536 39.1304 173.063 39.0973 172.678 39.0328C172.292 38.9679 171.993 38.8307 171.781 38.62C171.496 38.3449 171.346 37.8431 171.346 37.1061C171.346 36.6448 171.371 36.2647 171.421 35.9727C171.47 35.6817 171.595 35.4469 171.806 35.2689C172.03 35.0741 172.329 34.9442 172.69 34.8879C173.051 34.8316 173.512 34.7826 174.071 34.7826H174.109Z" fill="#006DB7"/>
<path fill-rule="evenodd" clip-rule="evenodd" d="M179.269 34.3482V38.2608H178.269V34.3482H179.269ZM178.269 33.6994H179.269V33.0435H178.269V33.6994Z" fill="#006DB7"/>
<path fill-rule="evenodd" clip-rule="evenodd" d="M60.3941 14.422C60.062 13.6188 59.4869 13.0984 58.5978 12.7915C57.6754 12.4969 56.0544 12.3257 53.2209 12.2849C50.3874 12.3257 48.766 12.4969 47.8435 12.7915C46.9549 13.0984 46.3784 13.6188 46.0472 14.422C45.7838 15.0372 45.4845 16.5353 45.4845 18.6957C45.4845 20.856 45.7838 22.3541 46.0472 22.9694C46.3784 23.7725 46.9549 24.2925 47.8435 24.5999C48.766 24.8954 50.3874 25.0657 53.2209 25.1065C56.0544 25.0657 57.6754 24.8954 58.5978 24.5999C59.4869 24.2925 60.062 23.7725 60.3941 22.9694C60.6585 22.3541 60.9568 20.856 60.9568 18.6957C60.9568 16.5353 60.6585 15.0372 60.3941 14.422ZM64.9038 18.6957C64.9038 20.9058 64.6442 22.7246 64.1305 24.0842C63.6112 25.5007 61.8364 28.6957 53.2209 28.6957C44.6055 28.6957 42.8306 25.5007 42.3118 24.0842C41.7986 22.7246 41.5385 20.9058 41.5385 18.6957C41.5385 16.4846 41.7986 14.6672 42.3118 13.3072C42.8306 11.8902 44.6055 8.69568 53.2209 8.69568C61.8364 8.69568 63.6112 11.8902 64.1305 13.3072C64.6442 14.6672 64.9038 16.4846 64.9038 18.6957Z" fill="#006DB7"/>
<path fill-rule="evenodd" clip-rule="evenodd" d="M127.029 14.422C126.697 13.6188 126.122 13.0984 125.233 12.7915C124.31 12.4969 122.689 12.3257 119.856 12.2849C117.022 12.3257 115.401 12.4969 114.479 12.7915C113.59 13.0984 113.013 13.6188 112.683 14.422C112.418 15.0372 112.12 16.5353 112.12 18.6957C112.12 20.856 112.418 22.3541 112.683 22.9694C113.013 23.7725 113.59 24.2925 114.479 24.5999C115.401 24.8954 117.022 25.0657 119.856 25.1065C122.689 25.0657 124.31 24.8954 125.233 24.5999C126.122 24.2925 126.697 23.7725 127.029 22.9694C127.293 22.3541 127.592 20.856 127.592 18.6957C127.592 16.5353 127.293 15.0372 127.029 14.422ZM131.538 18.6957C131.538 20.9058 131.279 22.7246 130.765 24.0842C130.246 25.5007 128.471 28.6957 119.856 28.6957C111.241 28.6957 109.465 25.5007 108.946 24.0842C108.433 22.7246 108.173 20.9058 108.173 18.6957C108.173 16.4846 108.433 14.6672 108.946 13.3072C109.465 11.8902 111.241 8.69568 119.856 8.69568C128.471 8.69568 130.246 11.8902 130.765 13.3072C131.279 14.6672 131.538 16.4846 131.538 18.6957Z" fill="#EC1D24"/>
<path fill-rule="evenodd" clip-rule="evenodd" d="M62.3146 26.9612C62.3123 26.9635 62.31 26.9646 62.3077 26.9669L62.3203 26.9565C62.3192 26.9589 62.3169 26.96 62.3146 26.9612Z" fill="#959799"/>
<path fill-rule="evenodd" clip-rule="evenodd" d="M37.796 13.4409C37.5767 12.5015 37.1797 11.7113 36.5846 11.0255L36.5795 11.02C35.7661 10.1117 34.7277 9.50823 33.4066 9.1742C32.185 8.85271 30.4225 8.69568 27.9474 8.69568C25.2473 8.69568 23.4149 8.9131 22.179 9.38L22.1781 9.38093C22.1762 9.3814 22.1748 9.38186 22.1734 9.38233C21.1527 9.7526 20.3045 10.4397 19.6789 11.3809C18.9501 10.3946 18.0427 9.71961 16.9155 9.33866C15.6346 8.90567 13.2548 8.69568 10.2499 8.69568C7.99454 8.69568 6.44579 8.85642 5.51432 9.18674L5.50553 9.18999C4.80311 9.45619 4.13169 9.90591 3.47092 10.5466V9.61369H0V27.8261H3.45981V16.2581C3.45981 13.2383 6.5152 12.0458 9.60252 12.0458H11.1503C14.2381 12.0458 17.3245 13.2383 17.3245 16.2581V27.8261H20.7825V16.2581C20.7825 13.2383 23.8027 12.0458 26.8896 12.0458H28.4383C31.5252 12.0458 34.6203 13.2383 34.6203 16.2581V27.8261H38.0769V17.8929C38.0769 15.6374 37.9904 14.2641 37.796 13.4409ZM22.1767 9.38093H22.1781V9.38047C22.1781 9.38047 22.1771 9.38093 22.1767 9.38093ZM22.1799 9.37954C22.179 9.38 22.1785 9.38047 22.1781 9.38047C22.1785 9.38047 22.1785 9.38 22.1785 9.38L22.1799 9.37954Z" fill="#006DB7"/>
<path fill-rule="evenodd" clip-rule="evenodd" d="M162.941 12.7915C163.863 12.4964 165.485 12.3257 168.319 12.2844C171.151 12.3257 172.772 12.4964 173.695 12.7915C174.584 13.0984 175.16 13.6188 175.491 14.422C175.664 14.8242 175.851 15.6084 175.961 16.7066H160.675C160.784 15.6084 160.972 14.8242 161.144 14.422C161.476 13.6188 162.052 13.0984 162.941 12.7915ZM178.137 20.0548H179.961C179.985 19.6188 180 19.1682 180 18.6957C180 16.4846 179.742 14.6667 179.227 13.3067C178.708 11.8902 176.933 8.69568 168.319 8.69568C159.703 8.69568 157.928 11.8902 157.408 13.3067C156.895 14.6667 156.635 16.4846 156.635 18.6957C156.635 20.9058 156.895 22.7241 157.408 24.0842C157.928 25.5007 159.703 28.6957 168.319 28.6957C176.933 28.6957 178.708 25.5007 179.227 24.0842C179.273 23.9613 179.316 23.8304 179.358 23.6999H175.056C174.723 24.1036 174.278 24.3987 173.695 24.5999C172.772 24.8949 171.151 25.0657 168.319 25.1065C165.485 25.0657 163.863 24.8949 162.941 24.5999C162.052 24.2925 161.476 23.7725 161.144 22.9694C160.941 22.4955 160.718 21.496 160.626 20.0752H178.137V20.0548Z" fill="#EC1D24"/>
<path fill-rule="evenodd" clip-rule="evenodd" d="M91.7307 27.8261H95.1923V8.69568H91.7307V27.8261Z" fill="#006DB7"/>
<path fill-rule="evenodd" clip-rule="evenodd" d="M84.613 22.2701C84.2805 23.0495 83.7034 23.5541 82.8123 23.8515C81.8869 24.1388 80.2615 24.3041 77.4203 24.3437C74.579 24.3041 73.4596 24.1388 72.5351 23.8515C71.6436 23.5541 71.0655 23.0495 70.7339 22.2701C70.5251 21.7982 70.2943 20.7895 70.2069 19.353V16.8909C70.2943 15.4549 70.5251 14.4462 70.7339 13.9743C71.0655 13.1948 71.6436 12.6902 72.5351 12.3919C73.4596 12.106 74.579 11.9403 77.4203 11.9002C80.2615 11.9403 81.8869 12.106 82.8123 12.3919C83.7034 12.6902 84.2805 13.1948 84.613 13.9743C84.8777 14.5714 85.1773 16.0258 85.1773 18.1219C85.1773 20.2186 84.8777 21.6725 84.613 22.2701ZM88.3592 12.8924C87.8389 11.5176 86.0593 8.41688 77.4203 8.41688C74.1131 8.41688 71.8165 8.87267 70.2069 9.51078V0H66.6346V27.6056H70.2069V26.7331C71.8165 27.3708 74.1131 27.8261 77.4203 27.8261C86.0593 27.8261 87.8389 24.7267 88.3592 23.3525C88.8747 22.0316 89.1346 20.2674 89.1346 18.1219C89.1346 15.9761 88.8747 14.2123 88.3592 12.8924Z" fill="#006DB7"/>
</g>
</svg>
