<svg width="24" height="24" viewBox="0 0 24 24" fill="none" xmlns="http://www.w3.org/2000/svg">
<path d="M19.55 14.56C19.5195 14.8125 19.3043 15.0018 19.05 15H17C16.7239 15 16.5 15.2239 16.5 15.5V23.5C16.5 23.7761 16.7239 24 17 24H23C23.5523 24 24 23.5523 24 23V1C24 0.447715 23.5523 0 23 0H1C0.447715 0 0 0.447715 0 1V23C0 23.5523 0.447715 24 1 24H12C12.2761 24 12.5 23.7761 12.5 23.5V15.5C12.5 15.2239 12.2761 15 12 15H10C9.72386 15 9.5 14.7761 9.5 14.5V11.5C9.5 11.2239 9.72386 11 10 11H12C12.2761 11 12.5 10.7761 12.5 10.5V9.19C12.5 6.0475 15.0475 3.5 18.19 3.5H19.5C19.6326 3.5 19.7598 3.55268 19.8536 3.64645C19.9473 3.74021 20 3.86739 20 4V7C20 7.27614 19.7761 7.5 19.5 7.5H18.19C17.2566 7.5 16.5 8.25664 16.5 9.19V10.5C16.5 10.7761 16.7239 11 17 11H19.43C19.5737 10.999 19.7109 11.0598 19.8066 11.167C19.9023 11.2742 19.9472 11.4173 19.93 11.56L19.55 14.56Z" fill="white"/>
</svg>
