<svg width="16" height="18" viewBox="0 0 16 18" fill="none" xmlns="http://www.w3.org/2000/svg">
<path fill-rule="evenodd" clip-rule="evenodd" d="M14.0625 16.875H1.68751C1.37651 16.875 1.12451 16.623 1.12451 16.313V6.75H14.6245V16.313C14.6245 16.623 14.3735 16.875 14.0625 16.875ZM1.68751 3.375H14.0625C14.3735 3.375 14.6245 3.627 14.6245 3.937V5.625H1.12451V3.937C1.12451 3.627 1.37651 3.375 1.68751 3.375ZM14.0625 2.25H12.3755V0.422C12.3755 0.189 12.1865 0 11.9535 0H11.6715C11.4385 0 11.2495 0.189 11.2495 0.422V2.25H4.49951V0.422C4.49951 0.189 4.31151 0 4.07851 0H3.79651C3.56351 0 3.37451 0.189 3.37451 0.422V2.25H1.68751C0.755512 2.25 -0.000488281 3.005 -0.000488281 3.937V16.313C-0.000488281 17.245 0.755512 18 1.68751 18H14.0625C14.9945 18 15.7495 17.245 15.7495 16.313V3.937C15.7495 3.005 14.9945 2.25 14.0625 2.25Z" fill="#237BD3"/>
</svg>
