<svg width="17" height="16" viewBox="0 0 17 16" fill="none" xmlns="http://www.w3.org/2000/svg">
<path d="M10.9979 14.6666H11.5905C12.7365 14.6666 13.6645 13.9787 13.6645 12.7324V11.3333" stroke="white" stroke-linecap="round" stroke-linejoin="round"/>
<path fill-rule="evenodd" clip-rule="evenodd" d="M12.9979 6C14.2962 5.99906 15.4062 6.95524 15.6259 8.26382C15.8455 9.5724 15.1108 10.8524 13.8865 11.2942C13.6826 11.3681 13.4564 11.3361 13.2798 11.2086C13.1031 11.081 12.998 10.8737 12.9979 10.6525L12.9979 6Z" stroke="white" stroke-linecap="round" stroke-linejoin="round"/>
<path fill-rule="evenodd" clip-rule="evenodd" d="M3.66453 6C2.36616 5.99906 1.25616 6.95524 1.03652 8.26382C0.816875 9.5724 1.55155 10.8524 2.77591 11.2942C2.97976 11.3681 3.20598 11.3361 3.38264 11.2086C3.5593 11.081 3.66441 10.8737 3.66453 10.6525V6Z" stroke="white" stroke-linecap="round" stroke-linejoin="round"/>
<path d="M12.9979 6.66666V5.4035C12.9979 2.78741 10.9085 0.666656 8.33122 0.666656C5.75389 0.666656 3.66455 2.78741 3.66455 5.4035V6.66666" stroke="white" stroke-linecap="round" stroke-linejoin="round"/>
<path fill-rule="evenodd" clip-rule="evenodd" d="M8.27061 14H10.6949C10.8622 14 10.9979 14.1492 10.9979 14.3333V15C10.9979 15.1841 10.8622 15.3333 10.6949 15.3333H8.27061C7.93589 15.3333 7.66455 15.0349 7.66455 14.6667V14.6667C7.66455 14.2985 7.93589 14 8.27061 14Z" stroke="white" stroke-linecap="round" stroke-linejoin="round"/>
</svg>
