<svg width="16" height="18" viewBox="0 0 16 18" fill="none" xmlns="http://www.w3.org/2000/svg">
<path d="M12.375 11.25C11.5802 11.25 10.8497 11.5249 10.273 11.9846L6.66998 9.73269C6.77668 9.25005 6.77668 8.74992 6.66998 8.26727L10.273 6.01538C10.8497 6.47511 11.5802 6.75 12.375 6.75C14.2389 6.75 15.75 5.23895 15.75 3.375C15.75 1.51105 14.2389 0 12.375 0C10.5111 0 9 1.51105 9 3.375C9 3.62665 9.02777 3.87176 9.08002 4.10769L5.47699 6.35959C4.90032 5.89989 4.16981 5.625 3.375 5.625C1.51105 5.625 0 7.13605 0 9C0 10.8639 1.51105 12.375 3.375 12.375C4.16981 12.375 4.90032 12.1001 5.47699 11.6404L9.08002 13.8923C9.02676 14.1329 8.99993 14.3786 9 14.625C9 16.4889 10.5111 18 12.375 18C14.2389 18 15.75 16.4889 15.75 14.625C15.75 12.7611 14.2389 11.25 12.375 11.25Z" fill="#237BD3"/>
</svg>
