<svg width="24" height="24" viewBox="0 0 24 24" fill="none" xmlns="http://www.w3.org/2000/svg">
<path d="M14.1141 11.993L23.5461 2.56096C23.8275 2.2798 23.9857 1.89829 23.9857 1.50046C23.9857 1.10263 23.8275 0.721122 23.5461 0.43996C23.2649 0.158509 22.8834 0.000366211 22.4856 0.000366211C22.0878 0.000366211 21.7063 0.158509 21.4251 0.43996L11.9931 9.87196L2.56059 0.43996C2.27943 0.158509 1.89792 0.000366211 1.50009 0.000366211C1.10227 0.000366211 0.720756 0.158509 0.439594 0.43996C0.158142 0.721122 0 1.10263 0 1.50046C0 1.89829 0.158142 2.2798 0.439594 2.56096L9.87209 11.993L0.439594 21.425C-0.145966 22.0107 -0.145854 22.9601 0.439844 23.5457C1.02554 24.1313 1.97503 24.1312 2.56059 23.5455L11.9931 14.1135L21.4251 23.5455C21.7181 23.8385 22.1021 23.985 22.4856 23.985C22.8691 23.985 23.2531 23.8385 23.5461 23.5455C23.8275 23.2643 23.9857 22.8828 23.9857 22.485C23.9857 22.0871 23.8275 21.7056 23.5461 21.4245L14.1141 11.993Z" fill="#8A8A8A"/>
</svg>
