<svg width="15" height="19" viewBox="0 0 15 19" fill="none" xmlns="http://www.w3.org/2000/svg">
<path fill-rule="evenodd" clip-rule="evenodd" d="M7.125 0C3.18963 0 0 3.19042 0 7.125C0 10.1048 5.94067 19.0063 7.125 19C8.29113 19.0063 14.25 10.0637 14.25 7.125C14.25 3.19042 11.0604 0 7.125 0ZM7.125 17.2188C6.13779 17.2243 1.1875 9.60767 1.1875 7.125C1.1875 3.84592 3.84512 1.1875 7.125 1.1875C10.4049 1.1875 13.0625 3.84592 13.0625 7.125C13.0625 9.57442 8.09717 17.2243 7.125 17.2188ZM7.125 4.15625C5.48546 4.15625 4.15625 5.48546 4.15625 7.125C4.15625 8.76454 5.48546 10.0938 7.125 10.0938C8.76454 10.0938 10.0938 8.76454 10.0938 7.125C10.0938 5.48546 8.76454 4.15625 7.125 4.15625ZM7.125 8.90625C6.14175 8.90625 5.34375 8.10904 5.34375 7.125C5.34375 6.14096 6.14175 5.34375 7.125 5.34375C8.10825 5.34375 8.90625 6.14096 8.90625 7.125C8.90625 8.10904 8.10825 8.90625 7.125 8.90625Z" fill="#237BD3"/>
</svg>
