<svg width="18" height="18" viewBox="0 0 18 18" fill="none" xmlns="http://www.w3.org/2000/svg">
<path fill-rule="evenodd" clip-rule="evenodd" d="M9.4383 8.32518C8.2393 7.94218 7.4443 7.79218 7.4443 6.91518C7.4443 6.29218 7.9843 5.70018 9.0183 5.70018C10.2113 5.70018 10.5933 6.36018 10.5933 7.15518H12.0183C12.0183 5.81218 11.1413 4.83718 9.7683 4.57518V3.00018H8.2683V4.58218C7.0843 4.82218 6.0183 5.61018 6.0183 6.92218C6.0183 8.61018 7.3533 9.02218 9.0183 9.56218C10.4283 10.0202 10.7063 10.3422 10.7063 11.1302C10.7063 11.8052 10.2043 12.3002 9.0183 12.3002C8.1193 12.3002 7.3313 11.6702 7.3313 10.7552H5.8313C5.8313 12.1652 6.8663 13.1552 8.2683 13.4252V15.0002H9.7683V13.4472C11.2983 13.2302 12.1683 12.3302 12.1683 11.1222C12.1683 9.72018 11.4633 8.97018 9.4383 8.32518Z" fill="#237BD3"/>
<path fill-rule="evenodd" clip-rule="evenodd" d="M8.99976 16.875C4.65676 16.875 1.12476 13.342 1.12476 9C1.12476 4.658 4.65676 1.125 8.99976 1.125C13.3428 1.125 16.8748 4.658 16.8748 9C16.8748 13.342 13.3428 16.875 8.99976 16.875ZM8.99976 0C4.03676 0 -0.000244141 4.038 -0.000244141 9C-0.000244141 13.962 4.03676 18 8.99976 18C13.9628 18 17.9998 13.962 17.9998 9C17.9998 4.038 13.9628 0 8.99976 0Z" fill="#237BD3"/>
</svg>
