<svg width="21" height="18" viewBox="0 0 21 18" fill="none" xmlns="http://www.w3.org/2000/svg">
<path fill-rule="evenodd" clip-rule="evenodd" d="M20.1643 2.11682L18.4214 0.40086C17.8786 -0.13362 16.9964 -0.13362 16.45 0.40086L15.1857 1.64563C15.05 1.77925 15.05 1.99727 15.1857 2.13088L18.4071 5.3026C18.5429 5.43622 18.7643 5.43622 18.9 5.3026L20.1643 4.05782C20.7071 3.51983 20.7071 2.6513 20.1643 2.11682ZM14.3786 2.92206L17.6 6.09377C17.7357 6.22739 17.7357 6.4454 17.6 6.57902L9.8 14.2586L6.48571 14.6208C6.04286 14.6701 5.66786 14.3008 5.71786 13.8648L6.08571 10.6017L13.8857 2.92206C14.0214 2.78844 14.2429 2.78844 14.3786 2.92206ZM13.7143 15.7496V12.17C13.7143 12.0574 13.7607 11.9519 13.8393 11.8711L15.2679 10.4645C15.5393 10.2008 16 10.3872 16 10.7634V16.3122C16 17.244 15.2321 18 14.2857 18H1.71429C0.767857 18 0 17.244 0 16.3122V3.93475C0 3.00293 0.767857 2.24692 1.71429 2.24692H11.9214C12.3036 2.24692 12.4964 2.70053 12.225 2.96777L10.7964 4.37429C10.7143 4.45165 10.6071 4.49736 10.4929 4.49736H2.28571V15.7496H13.7143Z" fill="#CDCDCD"/>
</svg>
