<svg width="24" height="24" viewBox="0 0 24 24" fill="none" xmlns="http://www.w3.org/2000/svg">
<mask id="mask0" mask-type="alpha" maskUnits="userSpaceOnUse" x="3" y="3" width="18" height="18">
<path fill-rule="evenodd" clip-rule="evenodd" d="M3.00024 3.00049H21V20.9995H3.00024V3.00049Z" fill="white"/>
</mask>
<g mask="url(#mask0)">
<path fill-rule="evenodd" clip-rule="evenodd" d="M15.5312 9.42549L18.1612 17.3745L17.4912 18.0455L13.4272 11.4445L8.98524 15.7075L9.34024 17.8645L8.94624 18.2575L8.11524 15.8845L5.74324 15.0535L6.13524 14.6605L8.29224 15.0145L12.5542 10.5725L5.95524 6.50849L6.62524 5.83749L14.5742 8.46849L18.1542 4.73849C18.3022 4.58449 18.4992 4.49949 18.7202 4.49649C18.9282 4.49649 19.1262 4.57749 19.2732 4.72649C19.4242 4.87549 19.5052 5.07549 19.5032 5.28849C19.5012 5.50049 19.4162 5.69849 19.2622 5.84549L15.5312 9.42549ZM21.0002 5.30349C21.0072 4.68649 20.7682 4.10549 20.3322 3.66849C19.9022 3.23749 19.3302 3.00049 18.6962 3.00049C18.0792 3.00649 17.5032 3.25549 17.0742 3.70149L14.1482 6.75049L6.21924 4.12749L3.55724 6.78949L10.1912 10.8745L7.75824 13.4105L5.61924 13.0585L3.00024 15.6785L6.94024 17.0595L8.32124 20.9995L10.9402 18.3795L10.5892 16.2425L13.1252 13.8095L17.2112 20.4435L19.8732 17.7805L17.2502 9.85249L20.2982 6.92549C20.7442 6.49749 20.9932 5.92149 21.0002 5.30349Z" fill="#237BD3"/>
</g>
</svg>
