<svg width="24" height="24" viewBox="0 0 24 24" fill="none" xmlns="http://www.w3.org/2000/svg">
<path d="M11.9129 11.5652C9.30424 11.5652 7.21729 9.47826 7.21729 6.78261C7.21729 4.08696 9.30424 2 11.9129 2C14.5216 2 16.6955 4.08696 16.6955 6.78261C16.6955 9.47826 14.5216 11.5652 11.9129 11.5652Z" fill="#CDCDCD"/>
<path d="M11.9129 21.7391C9.99983 21.7391 8.2607 21.4782 6.95635 21.1304C4.8694 20.4347 4.34766 19.4782 4.34766 18.7826C4.34766 15.2173 7.73896 12.3478 11.8259 12.3478C15.9129 12.3478 19.3042 15.2173 19.3042 18.7826C19.3911 20.9565 15.3911 21.7391 11.9129 21.7391Z" fill="#CDCDCD"/>
</svg>
