<svg width="24" height="24" viewBox="0 0 24 24" fill="none" xmlns="http://www.w3.org/2000/svg">
<path fill-rule="evenodd" clip-rule="evenodd" d="M4.6875 8.375C5.61949 8.375 6.375 7.61949 6.375 6.6875C6.375 5.75551 5.61949 5 4.6875 5C3.75551 5 3 5.75551 3 6.6875C3 7.61949 3.75551 8.375 4.6875 8.375ZM3 12.3125C3 11.3805 3.75551 10.625 4.6875 10.625C5.61949 10.625 6.375 11.3805 6.375 12.3125C6.375 13.2445 5.61949 14 4.6875 14C3.75551 14 3 13.2445 3 12.3125ZM4.6875 16.25C3.75551 16.25 3 17.0055 3 17.9375C3 18.8695 3.75551 19.625 4.6875 19.625C5.61949 19.625 6.375 18.8695 6.375 17.9375C6.375 17.0055 5.61949 16.25 4.6875 16.25ZM20.4375 7.95312H8.0625C7.75182 7.95312 7.5 7.7013 7.5 7.39062V5.98438C7.5 5.6737 7.75182 5.42188 8.0625 5.42188H20.4375C20.7482 5.42188 21 5.6737 21 5.98438V7.39062C21 7.7013 20.7482 7.95312 20.4375 7.95312ZM8.0625 13.5781H20.4375C20.7482 13.5781 21 13.3263 21 13.0156V11.6094C21 11.2987 20.7482 11.0469 20.4375 11.0469H8.0625C7.75182 11.0469 7.5 11.2987 7.5 11.6094V13.0156C7.5 13.3263 7.75182 13.5781 8.0625 13.5781ZM20.4375 19.2031H8.0625C7.75182 19.2031 7.5 18.9513 7.5 18.6406V17.2344C7.5 16.9237 7.75182 16.6719 8.0625 16.6719H20.4375C20.7482 16.6719 21 16.9237 21 17.2344V18.6406C21 18.9513 20.7482 19.2031 20.4375 19.2031Z" fill="#CDCDCD"/>
</svg>
