<svg width="15" height="20" viewBox="0 0 15 20" fill="none" xmlns="http://www.w3.org/2000/svg">
<mask id="mask0" mask-type="alpha" maskUnits="userSpaceOnUse" x="0" y="0" width="15" height="20">
<path fill-rule="evenodd" clip-rule="evenodd" d="M0.000488281 0H15.0001V19.4526H0.000488281V0Z" fill="white"/>
</mask>
<g mask="url(#mask0)">
<path fill-rule="evenodd" clip-rule="evenodd" d="M8.15049 17.6279C8.14849 17.6279 8.14749 17.6289 8.14549 17.6299L7.38249 17.9599L6.73949 17.6789C3.51249 16.2649 1.42849 13.0829 1.42849 9.57089V4.80389L7.41049 1.52589L13.5715 4.80989V9.47589C13.5715 13.0359 11.4435 16.2349 8.15049 17.6279ZM14.6225 3.75089L7.74149 0.0838852C7.52849 -0.0291148 7.27249 -0.0281148 7.06149 0.0878852L0.371488 3.75489C0.142488 3.87989 0.000488281 4.11988 0.000488281 4.38089V9.57189C0.000488281 13.6499 2.42049 17.3459 6.16749 18.9879L7.09549 19.3929C7.18649 19.4329 7.28449 19.4529 7.38049 19.4529C7.47749 19.4529 7.57449 19.4329 7.66449 19.3939L8.71049 18.9419C12.5315 17.3259 15.0005 13.6099 15.0005 9.47589V4.38089C15.0005 4.11689 14.8545 3.87489 14.6225 3.75089Z" fill="#237BD3"/>
</g>
<path fill-rule="evenodd" clip-rule="evenodd" d="M10.1924 7.70801L6.51838 10.696L5.16238 9.10801C4.90638 8.80801 4.45538 8.77201 4.15538 9.02801C3.85538 9.28501 3.81938 9.73501 4.07638 10.036L5.88538 12.154C6.02638 12.32 6.22738 12.405 6.42838 12.405C6.58838 12.405 6.74738 12.353 6.87938 12.245L11.0934 8.81601C11.4004 8.56701 11.4464 8.11701 11.1974 7.81201C10.9484 7.50501 10.4984 7.45901 10.1924 7.70801Z" fill="#237BD3"/>
</svg>
