<svg width="24" height="24" viewBox="0 0 24 24" fill="none" xmlns="http://www.w3.org/2000/svg">
<path fill-rule="evenodd" clip-rule="evenodd" d="M17.2055 15.2307C16.5525 14.5857 15.7365 14.5857 15.0875 15.2307C14.5915 15.7217 14.0965 16.2127 13.6095 16.7127C13.4765 16.8497 13.3645 16.8787 13.2015 16.7867C12.8815 16.6127 12.5405 16.4707 12.2325 16.2797C10.7965 15.3767 9.59346 14.2157 8.52846 12.9087C7.99946 12.2587 7.52946 11.5637 7.20046 10.7817C7.13346 10.6237 7.14646 10.5197 7.27546 10.3907C7.77046 9.91166 8.25346 9.42067 8.74046 8.92967C9.41846 8.24667 9.41846 7.44766 8.73646 6.76066C8.34946 6.36966 7.96146 5.98667 7.57546 5.59566C7.17546 5.19667 6.78046 4.79266 6.37646 4.39666C5.72246 3.76066 4.90746 3.76066 4.25746 4.40166C3.75846 4.89266 3.27946 5.39566 2.77246 5.87866C2.30146 6.32467 2.06446 6.86966 2.01446 7.50566C1.93546 8.54266 2.18946 9.52066 2.54746 10.4737C3.27946 12.4467 4.39546 14.1987 5.74746 15.8047C7.57546 17.9777 9.75546 19.6967 12.3065 20.9367C13.4555 21.4947 14.6455 21.9227 15.9405 21.9937C16.8305 22.0437 17.6055 21.8187 18.2255 21.1237C18.6495 20.6497 19.1285 20.2167 19.5775 19.7627C20.2435 19.0887 20.2475 18.2727 19.5865 17.6067C18.7955 16.8117 18.0005 16.0217 17.2055 15.2307Z" fill="#CDCDCD"/>
<path fill-rule="evenodd" clip-rule="evenodd" d="M12.3193 1.99988C14.7963 2.34588 17.0393 3.46488 18.8123 5.23788C20.4933 6.92388 21.5963 9.04588 22.0003 11.3849L20.4643 11.6469C20.1193 9.62888 19.1663 7.79288 17.7133 6.34088C16.1823 4.81288 14.2423 3.84388 12.1033 3.54388L12.3193 1.99988ZM17.9469 11.6516L16.4109 11.9136C16.2239 10.8236 15.7119 9.83258 14.9289 9.05058C14.1009 8.22258 13.0519 7.70158 11.8989 7.53958L12.1159 5.99558C13.6059 6.20358 14.9579 6.87758 16.0279 7.94758C17.0389 8.96258 17.7049 10.2406 17.9469 11.6516Z" fill="#CDCDCD"/>
</svg>
