<svg width="19" height="18" viewBox="0 0 19 18" fill="none" xmlns="http://www.w3.org/2000/svg">
<path fill-rule="evenodd" clip-rule="evenodd" d="M12.9658 4.3602H17.2494C17.6702 4.3602 18.0144 4.70442 18.0143 5.12509V8.45258C17.9761 8.91154 17.6701 9.21751 17.2494 9.21751V17.2494C17.2111 17.6319 16.8669 17.9761 16.4462 17.9761H1.52986C1.10915 17.9761 0.764928 17.6319 0.764928 17.2112V9.21754C0.344223 9.21754 0 8.87332 0 8.45261V5.12512C0 4.70438 0.344223 4.36016 0.764928 4.36016H5.04864C4.97212 4.3219 4.9339 4.28368 4.89564 4.24542C3.93945 3.28927 3.93945 1.72112 4.89564 0.726705C5.35461 0.267741 6.00476 0 6.65498 0C7.3052 0 7.95539 0.267741 8.41435 0.726741C8.60558 0.917964 8.79684 1.18571 8.98806 1.49167C9.17928 1.22393 9.37054 0.956187 9.56176 0.764964C10.0207 0.306 10.671 0.038259 11.3211 0.038259C11.9713 0.038259 12.6215 0.306 13.0805 0.765C14.0367 1.72115 14.0367 3.2893 13.0805 4.28371C13.0614 4.30282 13.0423 4.31237 13.0232 4.32193C13.004 4.33149 12.9849 4.34106 12.9658 4.3602ZM12.0096 1.83589C11.6271 1.45341 10.9769 1.45341 10.6327 1.83589C9.98251 2.37134 9.60002 3.74823 9.79125 4.01597C9.79125 4.01597 9.86773 4.05423 10.0207 4.05423C10.6327 4.05423 11.6271 3.59527 12.0096 3.21278C12.1932 3.03073 12.2964 2.78289 12.2964 2.52434C12.2964 2.26579 12.1932 2.01795 12.0096 1.83589ZM6.00479 1.79763C6.19602 1.60641 6.4255 1.49167 6.69324 1.49167C6.96094 1.49167 7.19046 1.60641 7.41994 1.75941C7.99365 2.37137 8.41435 3.71001 8.22313 3.97775C8.22313 3.97775 8.14665 4.01601 7.99365 4.01601C7.38169 4.01601 6.38727 3.55704 6.00479 3.17456C5.8212 2.9925 5.71794 2.74465 5.71794 2.4861C5.71794 2.22754 5.8212 1.9797 6.00479 1.79763ZM2.2566 16.4845H8.22313V9.21754H2.2566V16.4845ZM15.7196 16.4845H9.75302V9.21754H15.7196V16.4845ZM1.49163 7.72594H16.4845V5.89009H1.49163V7.72594Z" fill="#237BD3"/>
</svg>
