<svg width="24" height="24" viewBox="0 0 24 24" fill="none" xmlns="http://www.w3.org/2000/svg">
<path d="M7.41687 11.2969H11.2969V7.05469H7.95626C7.64515 8.36053 7.46089 9.79814 7.41687 11.2969Z" fill="white"/>
<path d="M12.7031 11.2969H16.5832C16.5391 9.79814 16.3549 8.36053 16.0438 7.05469H12.7031V11.2969Z" fill="white"/>
<path d="M17.99 11.2969H23.9793C23.894 9.81309 23.5398 8.38017 22.9399 7.05469H17.4851C17.7764 8.37872 17.9485 9.81281 17.99 11.2969Z" fill="white"/>
<path d="M6.51491 7.05469H1.06016C0.460299 8.38017 0.106064 9.81309 0.020752 11.2969H6.01006C6.05155 9.81281 6.22363 8.37872 6.51491 7.05469Z" fill="white"/>
<path d="M11.2968 1.54561C10.4234 1.8885 9.57389 2.85417 8.89111 4.31039C8.69494 4.7288 8.51714 5.17655 8.35791 5.64844H11.2968V1.54561Z" fill="white"/>
<path d="M7.61797 3.71339C8.74077 1.31878 10.297 0 12 0C8.79472 0 5.78127 1.24823 3.51472 3.51469C2.86128 4.16817 2.29302 4.88405 1.81433 5.64844H6.88208C7.09241 4.95891 7.33817 4.31016 7.61797 3.71339Z" fill="white"/>
<path d="M16.3821 3.71339C16.6619 4.31011 16.9076 4.95891 17.1179 5.64844H22.1857C21.707 4.88405 21.1387 4.16817 20.4852 3.51469C18.2188 1.24823 15.2053 0 12 0C13.703 0 15.2593 1.31878 16.3821 3.71339Z" fill="white"/>
<path d="M12.7031 1.54561V5.64844H15.642C15.4828 5.17655 15.305 4.7288 15.1088 4.31039C14.4261 2.85422 13.5766 1.88855 12.7031 1.54561Z" fill="white"/>
<path fill-rule="evenodd" clip-rule="evenodd" d="M0 12.7031V23.2969C0 23.6852 0.314813 24 0.703125 24H23.2969C23.6852 24 24 23.6852 24 23.2969V12.7031H0ZM6.43936 20.9713C6.16927 21.0556 5.88506 20.9516 5.71519 20.7062L3.93591 18.1298V20.461C3.93591 20.7846 3.67359 21.0469 3.34997 21.0469C3.02639 21.0469 2.76403 20.7846 2.76403 20.461V16.2502C2.76403 15.9937 2.93077 15.7671 3.17559 15.6907C3.42037 15.6143 3.68634 15.7062 3.83212 15.9172L5.70389 18.6277L5.68087 16.2479C5.67773 15.9243 5.93756 15.6595 6.26114 15.6563H6.26691C6.58791 15.6563 6.84961 15.915 6.8527 16.2366L6.89213 20.3132V20.3189C6.89217 20.6293 6.71442 20.8854 6.43936 20.9713ZM10.5312 18.3517C10.5312 18.028 10.2688 17.7657 9.94523 17.7657H8.88464V16.8282H10.0763C10.3999 16.8282 10.6622 16.5659 10.6622 16.2423C10.6622 15.9187 10.3999 15.6563 10.0763 15.6563H8.2987C7.97508 15.6563 7.71277 15.9187 7.71277 16.2423V20.461C7.71277 20.7846 7.97508 21.047 8.2987 21.047H10.0763C10.3999 21.047 10.6622 20.7846 10.6622 20.461C10.6622 20.1375 10.3999 19.8751 10.0763 19.8751H8.88464V18.9376H9.94523C10.2688 18.9376 10.5312 18.6753 10.5312 18.3517ZM17.0631 16.3644L16.2378 20.5108C16.2328 20.536 16.2262 20.5608 16.2179 20.5851C16.1246 20.8594 15.8673 21.045 15.5775 21.0469H15.573C15.2851 21.0469 15.0276 20.8653 14.9311 20.5937C14.9283 20.5859 14.9258 20.5781 14.9233 20.5702L14.203 18.2321L13.4795 20.5697L13.4745 20.5851C13.3812 20.8593 13.1239 21.0449 12.8343 21.0469H12.8295C12.5418 21.0469 12.2843 20.8654 12.1878 20.594C12.1782 20.567 12.1706 20.5394 12.165 20.5113L11.3431 16.3559C11.2803 16.0385 11.4868 15.7302 11.8042 15.6674C12.1216 15.6046 12.4299 15.811 12.4928 16.1285L12.9352 18.3651L13.6317 16.1146C13.6762 15.9162 13.8225 15.7463 14.0308 15.6822C14.34 15.5869 14.6679 15.7604 14.7632 16.0697L15.4702 18.3646L15.9138 16.1356C15.977 15.8182 16.2855 15.6123 16.6029 15.6753C16.9201 15.7385 17.1262 16.047 17.0631 16.3644ZM19.4597 21.047C20.3772 21.047 21.148 20.4593 21.2926 19.6497C21.4018 19.0381 21.1271 18.2403 20.0287 17.8352C19.5207 17.6478 19.047 17.4439 18.891 17.3758C18.8053 17.3021 18.8085 17.2021 18.8145 17.1599C18.8236 17.0965 18.8705 16.9415 19.109 16.8697C19.6778 16.6982 20.2112 17.1233 20.2164 17.1277L20.2127 17.1246L20.2132 17.124C20.3153 17.2099 20.4468 17.262 20.5906 17.262C20.9143 17.262 21.1766 16.9996 21.1766 16.676C21.1766 16.4883 21.088 16.3216 20.9506 16.2143C20.815 16.1059 19.8866 15.4114 18.771 15.7476C18.1665 15.9297 17.7388 16.407 17.6546 16.9933C17.5754 17.5449 17.8146 18.0755 18.2787 18.3781C18.3045 18.395 18.3317 18.4097 18.36 18.4223C18.3844 18.4333 18.9671 18.6926 19.6232 18.9346C19.7567 18.9839 20.1885 19.1662 20.139 19.4437C20.1011 19.6558 19.8367 19.8751 19.4597 19.8751C19.0566 19.8751 18.6693 19.7133 18.4237 19.4423C18.2064 19.2025 17.8359 19.1842 17.5961 19.4015C17.3563 19.6188 17.338 19.9893 17.5553 20.2291C18.0263 20.7489 18.7204 21.047 19.4597 21.047Z" fill="white"/>
</svg>

